NotoSerifEthiopic-CondensedBold.ufo
<glyph name="hyphen" format="2">
  <advance width="274"/>
  <unicode hex="002D"/>
  <outline>
    <contour>
      <point x="22" y="214" type="line"/>
      <point x="252" y="214" type="line"/>
      <point x="252" y="331" type="line"/>
      <point x="22" y="331" type="line"/>
    </contour>
  </outline>
</glyph>
<glyph name="dieresiscomb" format="2">
  <unicode hex="0308"/>
  <anchor x="-2" y="536" name="_top"/>
  <anchor x="-2" y="759" name="top"/>
  <outline>
    <contour>
      <point x="96" y="619" type="curve" smooth="yes"/>
      <point x="126" y="619"/>
      <point x="160" y="638"/>
      <point x="160" y="689" type="curve" smooth="yes"/>
      <point x="160" y="741"/>
      <point x="126" y="759"/>
      <point x="96" y="759" type="curve" smooth="yes"/>
      <point x="61" y="759"/>
      <point x="29" y="741"/>
      <point x="29" y="689" type="curve" smooth="yes"/>
      <point x="29" y="638"/>
      <point x="61" y="619"/>
    </contour>
    <contour>
      <point x="-99" y="619" type="curve" smooth="yes"/>
      <point x="-66" y="619"/>
      <point x="-32" y="638"/>
      <point x="-32" y="689" type="curve" smooth="yes"/>
      <point x="-32" y="741"/>
      <point x="-66" y="759"/>
      <point x="-99" y="759" type="curve" smooth="yes"/>
      <point x="-131" y="759"/>
      <point x="-163" y="741"/>
      <point x="-163" y="689" type="curve" smooth="yes"/>
      <point x="-163" y="638"/>
      <point x="-131" y="619"/>
    </contour>
  </outline>
</glyph>
<glyph name="dblverticallineabovecomb" format="2">
  <unicode hex="030E"/>
  <anchor x="1" y="536" name="_top"/>
  <anchor x="1" y="760" name="top"/>
  <outline>
    <contour>
      <point x="-108" y="583" type="line"/>
      <point x="-28" y="583" type="line"/>
      <point x="-28" y="760" type="line"/>
      <point x="-108" y="760" type="line"/>
    </contour>
    <contour>
      <point x="29" y="583" type="line"/>
      <point x="109" y="583" type="line"/>
      <point x="109" y="760" type="line"/>
      <point x="29" y="760" type="line"/>
    </contour>
  </outline>
</glyph>
<glyph name="ha-ethiopic" format="2">
  <advance width="578"/>
  <unicode hex="1200"/>
  <note>
uni1200
</note>
  <anchor x="276" y="720" name="top"/>
  <outline>
    <contour>
      <point x="265" y="-12" type="curve" smooth="yes"/>
      <point x="452" y="-12"/>
      <point x="537" y="103"/>
      <point x="537" y="252" type="curve" smooth="yes"/>
      <point x="537" y="622" type="line" smooth="yes"/>
      <point x="537" y="664"/>
      <point x="534" y="700"/>
      <point x="526" y="720" type="curve"/>
      <point x="306" y="707" type="line"/>
      <point x="306" y="649" type="line"/>
      <point x="339" y="649"/>
      <point x="353" y="635"/>
      <point x="353" y="576" type="curve" smooth="yes"/>
      <point x="353" y="244" type="line" smooth="yes"/>
      <point x="353" y="121"/>
      <point x="337" y="55"/>
      <point x="285" y="55" type="curve" smooth="yes"/>
      <point x="257" y="55"/>
      <point x="243" y="80"/>
      <point x="243" y="120" type="curve" smooth="yes"/>
      <point x="243" y="261"/>
      <point x="248" y="470"/>
      <point x="248" y="622" type="curve" smooth="yes"/>
      <point x="248" y="670"/>
      <point x="244" y="700"/>
      <point x="236" y="720" type="curve"/>
      <point x="16" y="707" type="line"/>
      <point x="16" y="649" type="line"/>
      <point x="49" y="649"/>
      <point x="63" y="635"/>
      <point x="63" y="576" type="curve" smooth="yes"/>
      <point x="63" y="440"/>
      <point x="59" y="294"/>
      <point x="59" y="223" type="curve" smooth="yes"/>
      <point x="59" y="73"/>
      <point x="102" y="-12"/>
    </contour>
  </outline>
</glyph>
<glyph name="hi-ethiopic" format="2">
  <advance width="584"/>
  <unicode hex="1202"/>
  <note>
uni1202
</note>
  <anchor x="291" y="720" name="top"/>
  <outline>
    <contour>
      <point x="173" y="0" type="curve"/>
      <point x="398" y="0" type="line"/>
      <point x="398" y="64" type="line"/>
      <point x="380" y="64"/>
      <point x="372" y="73"/>
      <point x="372" y="88" type="curve" smooth="yes"/>
      <point x="372" y="97"/>
      <point x="375" y="110"/>
      <point x="380" y="126" type="curve" smooth="yes"/>
      <point x="494" y="495" type="line" smooth="yes"/>
      <point x="516" y="567"/>
      <point x="525" y="626"/>
      <point x="525" y="666" type="curve" smooth="yes"/>
      <point x="525" y="693"/>
      <point x="522" y="711"/>
      <point x="518" y="720" type="curve"/>
      <point x="301" y="707" type="line"/>
      <point x="301" y="649" type="line"/>
      <point x="321" y="649"/>
      <point x="329" y="635"/>
      <point x="329" y="609" type="curve" smooth="yes"/>
      <point x="329" y="585"/>
      <point x="321" y="551"/>
      <point x="309" y="510" type="curve" smooth="yes"/>
      <point x="282" y="416" type="line"/>
      <point x="278" y="414"/>
      <point x="273" y="413"/>
      <point x="267" y="413" type="curve" smooth="yes"/>
      <point x="248" y="413"/>
      <point x="235" y="426"/>
      <point x="235" y="467" type="curve" smooth="yes"/>
      <point x="235" y="503"/>
      <point x="239" y="595"/>
      <point x="239" y="639" type="curve" smooth="yes"/>
      <point x="239" y="674"/>
      <point x="235" y="703"/>
      <point x="228" y="720" type="curve"/>
      <point x="8" y="707" type="line"/>
      <point x="8" y="649" type="line"/>
      <point x="41" y="649"/>
      <point x="54" y="635"/>
      <point x="54" y="591" type="curve" smooth="yes"/>
      <point x="54" y="557"/>
      <point x="51" y="510"/>
      <point x="51" y="476" type="curve" smooth="yes"/>
      <point x="51" y="385"/>
      <point x="104" y="334"/>
      <point x="186" y="334" type="curve" smooth="yes"/>
      <point x="218" y="334"/>
      <point x="239" y="338"/>
      <point x="255" y="342" type="curve"/>
      <point x="177" y="98" type="line" smooth="yes"/>
      <point x="169" y="72"/>
      <point x="166" y="54"/>
      <point x="166" y="35" type="curve" smooth="yes"/>
      <point x="166" y="19"/>
      <point x="169" y="7"/>
    </contour>
    <component base="rightdoubleflag" xOffset="349"/>
  </outline>
</glyph>
<glyph name="haa-ethiopic" format="2">
  <advance width="555"/>
  <unicode hex="1203"/>
  <note>
uni1203
</note>
  <anchor x="266" y="720" name="top"/>
  <outline>
    <contour>
      <point x="173" y="-7" type="curve"/>
      <point x="398" y="8" type="line"/>
      <point x="398" y="62" type="line"/>
      <point x="380" y="62"/>
      <point x="372" y="71"/>
      <point x="372" y="88" type="curve" smooth="yes"/>
      <point x="372" y="97"/>
      <point x="375" y="110"/>
      <point x="380" y="126" type="curve" smooth="yes"/>
      <point x="494" y="495" type="line" smooth="yes"/>
      <point x="516" y="567"/>
      <point x="525" y="626"/>
      <point x="525" y="666" type="curve" smooth="yes"/>
      <point x="525" y="693"/>
      <point x="522" y="711"/>
      <point x="518" y="720" type="curve"/>
      <point x="301" y="707" type="line"/>
      <point x="301" y="649" type="line"/>
      <point x="321" y="649"/>
      <point x="329" y="635"/>
      <point x="329" y="609" type="curve" smooth="yes"/>
      <point x="329" y="585"/>
      <point x="321" y="551"/>
      <point x="309" y="510" type="curve" smooth="yes"/>
      <point x="282" y="416" type="line"/>
      <point x="278" y="414"/>
      <point x="273" y="413"/>
      <point x="267" y="413" type="curve" smooth="yes"/>
      <point x="248" y="413"/>
      <point x="235" y="426"/>
      <point x="235" y="467" type="curve" smooth="yes"/>
      <point x="235" y="503"/>
      <point x="239" y="595"/>
      <point x="239" y="639" type="curve" smooth="yes"/>
      <point x="239" y="674"/>
      <point x="235" y="703"/>
      <point x="228" y="720" type="curve"/>
      <point x="8" y="707" type="line"/>
      <point x="8" y="649" type="line"/>
      <point x="41" y="649"/>
      <point x="54" y="635"/>
      <point x="54" y="591" type="curve" smooth="yes"/>
      <point x="54" y="557"/>
      <point x="51" y="510"/>
      <point x="51" y="476" type="curve" smooth="yes"/>
      <point x="51" y="385"/>
      <point x="104" y="334"/>
      <point x="186" y="334" type="curve" smooth="yes"/>
      <point x="218" y="334"/>
      <point x="239" y="338"/>
      <point x="255" y="342" type="curve"/>
      <point x="177" y="98" type="line" smooth="yes"/>
      <point x="169" y="72"/>
      <point x="166" y="47"/>
      <point x="166" y="28" type="curve" smooth="yes"/>
      <point x="166" y="12"/>
      <point x="169" y="0"/>
    </contour>
  </outline>
</glyph>
<glyph name="hee-ethiopic" format="2">
  <advance width="630"/>
  <unicode hex="1204"/>
  <note>
uni1204
</note>
  <anchor x="314" y="720" name="top"/>
  <outline>
    <contour>
      <point x="214" y="0" type="curve"/>
      <point x="462" y="0" type="line" smooth="yes"/>
      <point x="571" y="0"/>
      <point x="620" y="66"/>
      <point x="620" y="150" type="curve" smooth="yes"/>
      <point x="620" y="233"/>
      <point x="575" y="269"/>
      <point x="478" y="269" type="curve" smooth="yes"/>
      <point x="418" y="269" type="line"/>
      <point x="494" y="495" type="line" smooth="yes"/>
      <point x="518" y="567"/>
      <point x="525" y="626"/>
      <point x="525" y="666" type="curve" smooth="yes"/>
      <point x="525" y="693"/>
      <point x="522" y="711"/>
      <point x="518" y="720" type="curve"/>
      <point x="301" y="707" type="line"/>
      <point x="301" y="649" type="line"/>
      <point x="321" y="649"/>
      <point x="329" y="635"/>
      <point x="329" y="609" type="curve" smooth="yes"/>
      <point x="329" y="585"/>
      <point x="321" y="551"/>
      <point x="309" y="510" type="curve" smooth="yes"/>
      <point x="282" y="416" type="line"/>
      <point x="278" y="414"/>
      <point x="273" y="413"/>
      <point x="267" y="413" type="curve" smooth="yes"/>
      <point x="248" y="413"/>
      <point x="235" y="426"/>
      <point x="235" y="467" type="curve" smooth="yes"/>
      <point x="235" y="503"/>
      <point x="239" y="595"/>
      <point x="239" y="639" type="curve" smooth="yes"/>
      <point x="239" y="674"/>
      <point x="235" y="703"/>
      <point x="228" y="720" type="curve"/>
      <point x="8" y="707" type="line"/>
      <point x="8" y="649" type="line"/>
      <point x="41" y="649"/>
      <point x="54" y="635"/>
      <point x="54" y="591" type="curve" smooth="yes"/>
      <point x="54" y="557"/>
      <point x="51" y="510"/>
      <point x="51" y="476" type="curve" smooth="yes"/>
      <point x="51" y="385"/>
      <point x="104" y="334"/>
      <point x="186" y="334" type="curve" smooth="yes"/>
      <point x="216" y="334"/>
      <point x="236" y="338"/>
      <point x="255" y="342" type="curve"/>
      <point x="190" y="162" type="line" smooth="yes"/>
      <point x="179" y="132"/>
      <point x="175" y="106"/>
      <point x="175" y="82" type="curve" smooth="yes"/>
      <point x="175" y="41"/>
      <point x="189" y="11"/>
    </contour>
    <contour>
      <point x="387" y="62" type="line" smooth="yes"/>
      <point x="371" y="62"/>
      <point x="363" y="67"/>
      <point x="363" y="86" type="curve" smooth="yes"/>
      <point x="363" y="96"/>
      <point x="367" y="114"/>
      <point x="372" y="129" type="curve" smooth="yes"/>
      <point x="397" y="207" type="line"/>
      <point x="408" y="207" type="line" smooth="yes"/>
      <point x="451" y="207"/>
      <point x="459" y="182"/>
      <point x="459" y="146" type="curve" smooth="yes"/>
      <point x="459" y="97"/>
      <point x="444" y="62"/>
      <point x="400" y="62" type="curve" smooth="yes"/>
    </contour>
  </outline>
</glyph>
<glyph name="he-ethiopic" format="2">
  <advance width="658"/>
  <unicode hex="1205"/>
  <note>
uni1205
</note>
  <anchor x="333" y="720" name="top"/>
  <outline>
    <contour>
      <point x="345" y="-12" type="curve" smooth="yes"/>
      <point x="533" y="-12"/>
      <point x="617" y="112"/>
      <point x="617" y="275" type="curve" smooth="yes"/>
      <point x="617" y="622" type="line" smooth="yes"/>
      <point x="617" y="664"/>
      <point x="615" y="700"/>
      <point x="607" y="720" type="curve"/>
      <point x="387" y="707" type="line"/>
      <point x="387" y="649" type="line"/>
      <point x="419" y="649"/>
      <point x="434" y="635"/>
      <point x="434" y="576" type="curve" smooth="yes"/>
      <point x="434" y="277" type="line" smooth="yes"/>
      <point x="434" y="114"/>
      <point x="411" y="55"/>
      <point x="365" y="55" type="curve" smooth="yes"/>
      <point x="337" y="55"/>
      <point x="324" y="85"/>
      <point x="324" y="150" type="curve" smooth="yes"/>
      <point x="324" y="218"/>
      <point x="327" y="387"/>
      <point x="327" y="458" type="curve" smooth="yes"/>
      <point x="327" y="518"/>
      <point x="297" y="552"/>
      <point x="251" y="552" type="curve" smooth="yes"/>
      <point x="237" y="552" type="line"/>
      <point x="237" y="647" type="line" smooth="yes"/>
      <point x="237" y="680"/>
      <point x="227" y="709"/>
      <point x="214" y="720" type="curve"/>
      <point x="16" y="707" type="line"/>
      <point x="16" y="652" type="line"/>
      <point x="39" y="652"/>
      <point x="53" y="633"/>
      <point x="53" y="593" type="curve" smooth="yes"/>
      <point x="53" y="473" type="line"/>
      <point x="87" y="473" type="line" smooth="yes"/>
      <point x="121" y="473"/>
      <point x="143" y="453"/>
      <point x="143" y="411" type="curve" smooth="yes"/>
      <point x="143" y="355"/>
      <point x="139" y="268"/>
      <point x="139" y="196" type="curve" smooth="yes"/>
      <point x="139" y="66"/>
      <point x="183" y="-12"/>
    </contour>
  </outline>
</glyph>
<glyph name="ho-ethiopic" format="2">
  <advance width="765"/>
  <unicode hex="1206"/>
  <note>
uni1206
</note>
  <anchor x="390" y="720" name="top"/>
  <outline>
    <contour>
      <point x="265" y="-12" type="curve" smooth="yes"/>
      <point x="452" y="-12"/>
      <point x="537" y="120"/>
      <point x="537" y="273" type="curve" smooth="yes"/>
      <point x="537" y="448" type="line"/>
      <point x="543" y="447"/>
      <point x="549" y="445"/>
      <point x="555" y="445" type="curve" smooth="yes"/>
      <point x="607" y="445" type="line" smooth="yes"/>
      <point x="717" y="445"/>
      <point x="765" y="512"/>
      <point x="765" y="596" type="curve" smooth="yes"/>
      <point x="765" y="678"/>
      <point x="720" y="715"/>
      <point x="624" y="715" type="curve" smooth="yes"/>
      <point x="353" y="715" type="line"/>
      <point x="353" y="275" type="line" smooth="yes"/>
      <point x="353" y="112"/>
      <point x="324" y="55"/>
      <point x="283" y="55" type="curve" smooth="yes"/>
      <point x="258" y="55"/>
      <point x="243" y="83"/>
      <point x="243" y="148" type="curve" smooth="yes"/>
      <point x="243" y="272"/>
      <point x="248" y="470"/>
      <point x="248" y="622" type="curve" smooth="yes"/>
      <point x="248" y="670"/>
      <point x="244" y="700"/>
      <point x="236" y="720" type="curve"/>
      <point x="16" y="707" type="line"/>
      <point x="16" y="649" type="line"/>
      <point x="49" y="649"/>
      <point x="63" y="635"/>
      <point x="63" y="576" type="curve" smooth="yes"/>
      <point x="63" y="440"/>
      <point x="59" y="285"/>
      <point x="59" y="194" type="curve" smooth="yes"/>
      <point x="59" y="64"/>
      <point x="102" y="-12"/>
    </contour>
    <contour>
      <point x="563" y="507" type="curve" smooth="yes"/>
      <point x="543" y="507"/>
      <point x="537" y="525"/>
      <point x="537" y="567" type="curve" smooth="yes"/>
      <point x="537" y="653" type="line"/>
      <point x="553" y="653" type="line" smooth="yes"/>
      <point x="596" y="653"/>
      <point x="604" y="627"/>
      <point x="604" y="588" type="curve" smooth="yes"/>
      <point x="604" y="542"/>
      <point x="587" y="507"/>
    </contour>
  </outline>
</glyph>
<glyph name="la-ethiopic" format="2">
  <advance width="610"/>
  <unicode hex="1208"/>
  <note>
uni1208
</note>
  <anchor x="314" y="714" name="top"/>
  <outline>
    <contour>
      <point x="67" y="-7" type="curve"/>
      <point x="267" y="8" type="line"/>
      <point x="267" y="63" type="line"/>
      <point x="216" y="63"/>
      <point x="198" y="103"/>
      <point x="198" y="175" type="curve" smooth="yes"/>
      <point x="198" y="290"/>
      <point x="232" y="378"/>
      <point x="264" y="436" type="curve"/>
      <point x="370" y="105" type="line" smooth="yes"/>
      <point x="394" y="29"/>
      <point x="405" y="8"/>
      <point x="429" y="-7" type="curve"/>
      <point x="597" y="8" type="line"/>
      <point x="597" y="62" type="line"/>
      <point x="572" y="62"/>
      <point x="553" y="85"/>
      <point x="531" y="153" type="curve" smooth="yes"/>
      <point x="349" y="714" type="line"/>
      <point x="170" y="714" type="line"/>
      <point x="223" y="556" type="line"/>
      <point x="107" y="458"/>
      <point x="31" y="319"/>
      <point x="31" y="155" type="curve" smooth="yes"/>
      <point x="31" y="73"/>
      <point x="47" y="23"/>
    </contour>
  </outline>
</glyph>
<glyph name="li-ethiopic" format="2">
  <advance width="801"/>
  <unicode hex="120A"/>
  <note>
uni120A
</note>
  <anchor x="411" y="714" name="top"/>
  <outline>
    <contour>
      <point x="67" y="-7" type="curve"/>
      <point x="267" y="8" type="line"/>
      <point x="267" y="62" type="line"/>
      <point x="216" y="62"/>
      <point x="198" y="102"/>
      <point x="198" y="169" type="curve" smooth="yes"/>
      <point x="198" y="284"/>
      <point x="232" y="378"/>
      <point x="264" y="436" type="curve"/>
      <point x="370" y="105" type="line" smooth="yes"/>
      <point x="394" y="29"/>
      <point x="405" y="13"/>
      <point x="422" y="0" type="curve"/>
      <point x="620" y="0" type="line"/>
      <point x="620" y="64" type="line"/>
      <point x="597" y="64" type="line" smooth="yes"/>
      <point x="568" y="64"/>
      <point x="556" y="85"/>
      <point x="534" y="153" type="curve" smooth="yes"/>
      <point x="352" y="714" type="line"/>
      <point x="170" y="714" type="line"/>
      <point x="223" y="556" type="line"/>
      <point x="107" y="458"/>
      <point x="31" y="319"/>
      <point x="31" y="155" type="curve" smooth="yes"/>
      <point x="31" y="73"/>
      <point x="47" y="23"/>
    </contour>
    <component base="rightdoubleflag" xOffset="566"/>
  </outline>
</glyph>
<glyph name="laa-ethiopic" format="2">
  <advance width="609"/>
  <unicode hex="120B"/>
  <note>
uni120B
</note>
  <anchor x="312" y="714" name="top"/>
  <outline>
    <contour>
      <point x="424" y="-7" type="curve"/>
      <point x="596" y="8" type="line"/>
      <point x="596" y="62" type="line"/>
      <point x="571" y="62"/>
      <point x="549" y="85"/>
      <point x="528" y="153" type="curve" smooth="yes"/>
      <point x="353" y="714" type="line"/>
      <point x="168" y="714" type="line"/>
      <point x="219" y="556" type="line"/>
      <point x="97" y="487"/>
      <point x="28" y="399"/>
      <point x="28" y="282" type="curve" smooth="yes"/>
      <point x="28" y="227"/>
      <point x="40" y="182"/>
      <point x="63" y="150" type="curve"/>
      <point x="248" y="164" type="line"/>
      <point x="248" y="218" type="line"/>
      <point x="210" y="219"/>
      <point x="194" y="245"/>
      <point x="194" y="291" type="curve" smooth="yes"/>
      <point x="194" y="358"/>
      <point x="222" y="410"/>
      <point x="258" y="440" type="curve"/>
      <point x="361" y="105" type="line" smooth="yes"/>
      <point x="384" y="29"/>
      <point x="401" y="8"/>
    </contour>
  </outline>
</glyph>
<glyph name="lee-ethiopic" format="2">
  <advance width="762"/>
  <unicode hex="120C"/>
  <note>
uni120C
</note>
  <anchor x="391" y="714" name="top"/>
  <outline>
    <contour>
      <point x="67" y="-7" type="curve"/>
      <point x="267" y="8" type="line"/>
      <point x="267" y="62" type="line"/>
      <point x="216" y="62"/>
      <point x="198" y="102"/>
      <point x="198" y="169" type="curve" smooth="yes"/>
      <point x="198" y="284"/>
      <point x="231" y="379"/>
      <point x="263" y="437" type="curve"/>
      <point x="367" y="105" type="line" smooth="yes"/>
      <point x="391" y="29"/>
      <point x="431" y="0"/>
      <point x="477" y="0" type="curve"/>
      <point x="578" y="0" type="line" smooth="yes"/>
      <point x="701" y="0"/>
      <point x="752" y="63"/>
      <point x="752" y="150" type="curve" smooth="yes"/>
      <point x="752" y="233"/>
      <point x="704" y="269"/>
      <point x="594" y="269" type="curve" smooth="yes"/>
      <point x="491" y="269" type="line"/>
      <point x="354" y="714" type="line"/>
      <point x="171" y="714" type="line"/>
      <point x="223" y="556" type="line"/>
      <point x="107" y="458"/>
      <point x="31" y="319"/>
      <point x="31" y="155" type="curve" smooth="yes"/>
      <point x="31" y="73"/>
      <point x="47" y="23"/>
    </contour>
    <contour>
      <point x="577" y="61" type="curve" smooth="yes"/>
      <point x="559" y="61"/>
      <point x="547" y="81"/>
      <point x="532" y="132" type="curve" smooth="yes"/>
      <point x="510" y="207" type="line"/>
      <point x="551" y="207" type="line" smooth="yes"/>
      <point x="594" y="207"/>
      <point x="611" y="181"/>
      <point x="611" y="134" type="curve" smooth="yes"/>
      <point x="611" y="83"/>
      <point x="603" y="61"/>
    </contour>
  </outline>
</glyph>
<glyph name="le-ethiopic" format="2">
  <advance width="682"/>
  <unicode hex="120D"/>
  <note>
uni120D
</note>
  <anchor x="350" y="714" name="top"/>
  <outline>
    <contour>
      <point x="498" y="-7" type="curve"/>
      <point x="669" y="8" type="line"/>
      <point x="669" y="62" type="line"/>
      <point x="644" y="62"/>
      <point x="622" y="85"/>
      <point x="600" y="153" type="curve" smooth="yes"/>
      <point x="423" y="714" type="line"/>
      <point x="238" y="714" type="line"/>
      <point x="291" y="556" type="line"/>
      <point x="140" y="471"/>
      <point x="31" y="330"/>
      <point x="31" y="152" type="curve" smooth="yes"/>
      <point x="31" y="58"/>
      <point x="62" y="11"/>
      <point x="95" y="0" type="curve"/>
      <point x="221" y="0" type="line" smooth="yes"/>
      <point x="343" y="0"/>
      <point x="394" y="63"/>
      <point x="394" y="150" type="curve" smooth="yes"/>
      <point x="394" y="233"/>
      <point x="350" y="269"/>
      <point x="239" y="269" type="curve" smooth="yes"/>
      <point x="213" y="269" type="line"/>
      <point x="241" y="343"/>
      <point x="288" y="404"/>
      <point x="331" y="440" type="curve"/>
      <point x="437" y="105" type="line" smooth="yes"/>
      <point x="461" y="29"/>
      <point x="474" y="8"/>
    </contour>
    <contour>
      <point x="217" y="62" type="curve"/>
      <point x="193" y="62"/>
      <point x="189" y="84"/>
      <point x="189" y="150" type="curve" smooth="yes"/>
      <point x="189" y="170"/>
      <point x="191" y="189"/>
      <point x="195" y="207" type="curve"/>
      <point x="208" y="207" type="line" smooth="yes"/>
      <point x="236" y="207"/>
      <point x="253" y="189"/>
      <point x="253" y="143" type="curve" smooth="yes"/>
      <point x="253" y="89"/>
      <point x="242" y="62"/>
    </contour>
  </outline>
</glyph>
<glyph name="lwa-ethiopic" format="2">
  <advance width="744"/>
  <unicode hex="120F"/>
  <note>
uni120F
</note>
  <anchor x="381" y="714" name="top"/>
  <outline>
    <contour>
      <point x="376" y="57" type="line"/>
      <point x="557" y="57" type="line"/>
      <point x="350" y="714" type="line"/>
      <point x="158" y="714" type="line"/>
      <point x="212" y="556" type="line"/>
      <point x="88" y="491"/>
      <point x="28" y="399"/>
      <point x="28" y="282" type="curve" smooth="yes"/>
      <point x="28" y="227"/>
      <point x="40" y="182"/>
      <point x="63" y="150" type="curve"/>
      <point x="248" y="164" type="line"/>
      <point x="248" y="218" type="line"/>
      <point x="210" y="219"/>
      <point x="194" y="245"/>
      <point x="194" y="291" type="curve" smooth="yes"/>
      <point x="194" y="358"/>
      <point x="223" y="409"/>
      <point x="261" y="439" type="curve"/>
    </contour>
    <component base="footright" xOffset="153"/>
  </outline>
</glyph>
<glyph name="hha-ethiopic" format="2">
  <advance width="805"/>
  <unicode hex="1210"/>
  <note>
uni1210
</note>
  <anchor x="415" y="720" name="top"/>
  <outline>
    <contour>
      <point x="66" y="-8" type="curve"/>
      <point x="276" y="8" type="line"/>
      <point x="276" y="62" type="line"/>
      <point x="248" y="63"/>
      <point x="229" y="87"/>
      <point x="229" y="171" type="curve" smooth="yes"/>
      <point x="229" y="339"/>
      <point x="270" y="400"/>
      <point x="401" y="400" type="curve" smooth="yes"/>
      <point x="523" y="400"/>
      <point x="559" y="341"/>
      <point x="559" y="234" type="curve" smooth="yes"/>
      <point x="559" y="197"/>
      <point x="557" y="130"/>
      <point x="557" y="86" type="curve" smooth="yes"/>
      <point x="557" y="45"/>
      <point x="562" y="15"/>
      <point x="575" y="-6" type="curve"/>
      <point x="788" y="8" type="line"/>
      <point x="788" y="62" type="line"/>
      <point x="757" y="64"/>
      <point x="743" y="80"/>
      <point x="743" y="129" type="curve" smooth="yes"/>
      <point x="743" y="156"/>
      <point x="745" y="213"/>
      <point x="745" y="240" type="curve" smooth="yes"/>
      <point x="745" y="367"/>
      <point x="676" y="468"/>
      <point x="407" y="468" type="curve" smooth="yes"/>
      <point x="152" y="468"/>
      <point x="43" y="332"/>
      <point x="43" y="145" type="curve" smooth="yes"/>
      <point x="43" y="59"/>
      <point x="57" y="13"/>
    </contour>
    <component base="stem1" xOffset="227"/>
  </outline>
</glyph>
<glyph name="hhi-ethiopic" format="2">
  <advance width="982"/>
  <unicode hex="1212"/>
  <note>
uni1212
</note>
  <anchor x="507" y="720" name="top"/>
  <outline>
    <contour>
      <point x="66" y="-7" type="curve"/>
      <point x="276" y="8" type="line"/>
      <point x="276" y="64" type="line"/>
      <point x="248" y="65"/>
      <point x="229" y="89"/>
      <point x="229" y="166" type="curve" smooth="yes"/>
      <point x="229" y="334"/>
      <point x="270" y="400"/>
      <point x="401" y="400" type="curve" smooth="yes"/>
      <point x="523" y="400"/>
      <point x="559" y="341"/>
      <point x="559" y="234" type="curve" smooth="yes"/>
      <point x="559" y="197"/>
      <point x="557" y="125"/>
      <point x="557" y="81" type="curve" smooth="yes"/>
      <point x="557" y="40"/>
      <point x="563" y="18"/>
      <point x="572" y="0" type="curve"/>
      <point x="788" y="0" type="line"/>
      <point x="788" y="64" type="line"/>
      <point x="757" y="64"/>
      <point x="743" y="80"/>
      <point x="743" y="129" type="curve" smooth="yes"/>
      <point x="743" y="156"/>
      <point x="745" y="213"/>
      <point x="745" y="240" type="curve" smooth="yes"/>
      <point x="745" y="367"/>
      <point x="676" y="468"/>
      <point x="407" y="468" type="curve" smooth="yes"/>
      <point x="152" y="468"/>
      <point x="43" y="332"/>
      <point x="43" y="145" type="curve" smooth="yes"/>
      <point x="43" y="59"/>
      <point x="57" y="14"/>
    </contour>
    <component base="stem1" xOffset="227"/>
    <component base="rightdoubleflag" xOffset="747"/>
  </outline>
</glyph>
<glyph name="hhaa-ethiopic" format="2">
  <advance width="781"/>
  <unicode hex="1213"/>
  <note>
uni1213
</note>
  <anchor x="393" y="721" name="top"/>
  <outline>
    <contour>
      <point x="553" y="-7" type="curve"/>
      <point x="764" y="8" type="line"/>
      <point x="764" y="64" type="line"/>
      <point x="736" y="64"/>
      <point x="719" y="80"/>
      <point x="719" y="122" type="curve" smooth="yes"/>
      <point x="719" y="149"/>
      <point x="721" y="214"/>
      <point x="721" y="241" type="curve" smooth="yes"/>
      <point x="721" y="359"/>
      <point x="659" y="456"/>
      <point x="461" y="471" type="curve"/>
      <point x="461" y="650" type="line" smooth="yes"/>
      <point x="461" y="681"/>
      <point x="451" y="710"/>
      <point x="435" y="721" type="curve"/>
      <point x="239" y="706" type="line"/>
      <point x="239" y="652" type="line"/>
      <point x="265" y="652"/>
      <point x="277" y="630"/>
      <point x="277" y="591" type="curve" smooth="yes"/>
      <point x="277" y="466" type="line"/>
      <point x="108" y="437"/>
      <point x="23" y="337"/>
      <point x="23" y="221" type="curve" smooth="yes"/>
      <point x="23" y="188"/>
      <point x="29" y="161"/>
      <point x="36" y="140" type="curve"/>
      <point x="251" y="155" type="line"/>
      <point x="251" y="215" type="line"/>
      <point x="222" y="216"/>
      <point x="203" y="235"/>
      <point x="203" y="278" type="curve" smooth="yes"/>
      <point x="203" y="328"/>
      <point x="226" y="371"/>
      <point x="277" y="389" type="curve"/>
      <point x="277" y="221" type="line" smooth="yes"/>
      <point x="277" y="183"/>
      <point x="286" y="160"/>
      <point x="300" y="143" type="curve"/>
      <point x="498" y="158" type="line"/>
      <point x="498" y="215" type="line"/>
      <point x="473" y="215"/>
      <point x="461" y="228"/>
      <point x="461" y="282" type="curve" smooth="yes"/>
      <point x="461" y="392" type="line"/>
      <point x="512" y="372"/>
      <point x="535" y="318"/>
      <point x="535" y="234" type="curve" smooth="yes"/>
      <point x="535" y="197"/>
      <point x="534" y="125"/>
      <point x="534" y="81" type="curve" smooth="yes"/>
      <point x="534" y="40"/>
      <point x="540" y="14"/>
    </contour>
  </outline>
</glyph>
<glyph name="hhee-ethiopic" format="2">
  <advance width="981"/>
  <unicode hex="1214"/>
  <note>
uni1214
</note>
  <anchor x="507" y="720" name="top"/>
  <outline>
    <contour>
      <point x="66" y="-7" type="curve"/>
      <point x="276" y="8" type="line"/>
      <point x="276" y="64" type="line"/>
      <point x="248" y="65"/>
      <point x="229" y="89"/>
      <point x="229" y="171" type="curve" smooth="yes"/>
      <point x="229" y="329"/>
      <point x="278" y="400"/>
      <point x="392" y="400" type="curve" smooth="yes"/>
      <point x="529" y="400"/>
      <point x="558" y="341"/>
      <point x="558" y="234" type="curve" smooth="yes"/>
      <point x="558" y="149" type="line" smooth="yes"/>
      <point x="558" y="52"/>
      <point x="615" y="7"/>
      <point x="694" y="0" type="curve"/>
      <point x="813" y="0" type="line" smooth="yes"/>
      <point x="922" y="0"/>
      <point x="971" y="66"/>
      <point x="971" y="150" type="curve" smooth="yes"/>
      <point x="971" y="233"/>
      <point x="926" y="269"/>
      <point x="829" y="269" type="curve" smooth="yes"/>
      <point x="741" y="269" type="line"/>
      <point x="726" y="386"/>
      <point x="655" y="468"/>
      <point x="398" y="468" type="curve" smooth="yes"/>
      <point x="160" y="468"/>
      <point x="43" y="332"/>
      <point x="43" y="145" type="curve" smooth="yes"/>
      <point x="43" y="59"/>
      <point x="57" y="14"/>
    </contour>
    <contour>
      <point x="769" y="64" type="curve" smooth="yes"/>
      <point x="748" y="64"/>
      <point x="743" y="79"/>
      <point x="743" y="122" type="curve" smooth="yes"/>
      <point x="743" y="207" type="line"/>
      <point x="759" y="207" type="line" smooth="yes"/>
      <point x="802" y="207"/>
      <point x="810" y="182"/>
      <point x="810" y="143" type="curve" smooth="yes"/>
      <point x="810" y="97"/>
      <point x="793" y="64"/>
    </contour>
    <component base="stem1" xOffset="232"/>
  </outline>
</glyph>
<glyph name="hhe-ethiopic" format="2">
  <advance width="805"/>
  <unicode hex="1215"/>
  <note>
uni1215
</note>
  <anchor x="415" y="848" name="top"/>
  <outline>
    <contour>
      <point x="66" y="-7" type="curve"/>
      <point x="276" y="8" type="line"/>
      <point x="276" y="64" type="line"/>
      <point x="248" y="64"/>
      <point x="229" y="89"/>
      <point x="229" y="173" type="curve" smooth="yes"/>
      <point x="229" y="287"/>
      <point x="248" y="350"/>
      <point x="301" y="380" type="curve"/>
      <point x="301" y="71" type="line" smooth="yes"/>
      <point x="301" y="33"/>
      <point x="310" y="10"/>
      <point x="324" y="-7" type="curve"/>
      <point x="524" y="8" type="line"/>
      <point x="524" y="64" type="line"/>
      <point x="499" y="64"/>
      <point x="485" y="77"/>
      <point x="485" y="131" type="curve" smooth="yes"/>
      <point x="485" y="386" type="line"/>
      <point x="540" y="363"/>
      <point x="559" y="311"/>
      <point x="559" y="234" type="curve" smooth="yes"/>
      <point x="559" y="197"/>
      <point x="557" y="125"/>
      <point x="557" y="81" type="curve" smooth="yes"/>
      <point x="557" y="40"/>
      <point x="562" y="14"/>
      <point x="575" y="-7" type="curve"/>
      <point x="788" y="8" type="line"/>
      <point x="788" y="64" type="line"/>
      <point x="757" y="66"/>
      <point x="743" y="82"/>
      <point x="743" y="131" type="curve" smooth="yes"/>
      <point x="743" y="158"/>
      <point x="745" y="213"/>
      <point x="745" y="240" type="curve" smooth="yes"/>
      <point x="745" y="354"/>
      <point x="690" y="447"/>
      <point x="485" y="465" type="curve"/>
      <point x="485" y="649" type="line" smooth="yes"/>
      <point x="485" y="678"/>
      <point x="476" y="708"/>
      <point x="462" y="719" type="curve"/>
      <point x="229" y="719" type="line"/>
      <point x="230" y="725"/>
      <point x="231" y="731"/>
      <point x="231" y="745" type="curve" smooth="yes"/>
      <point x="231" y="811"/>
      <point x="191" y="848"/>
      <point x="127" y="848" type="curve" smooth="yes"/>
      <point x="107" y="848"/>
      <point x="90" y="844"/>
      <point x="78" y="839" type="curve"/>
      <point x="96" y="801"/>
      <point x="102" y="770"/>
      <point x="102" y="730" type="curve" smooth="yes"/>
      <point x="102" y="704"/>
      <point x="97" y="677"/>
      <point x="90" y="652" type="curve"/>
      <point x="264" y="652" type="line" smooth="yes"/>
      <point x="290" y="652"/>
      <point x="301" y="632"/>
      <point x="301" y="593" type="curve" smooth="yes"/>
      <point x="301" y="459" type="line"/>
      <point x="121" y="426"/>
      <point x="43" y="304"/>
      <point x="43" y="145" type="curve" smooth="yes"/>
      <point x="43" y="59"/>
      <point x="57" y="14"/>
    </contour>
  </outline>
</glyph>
<glyph name="hho-ethiopic" format="2">
  <advance width="790"/>
  <unicode hex="1216"/>
  <note>
uni1216
</note>
  <anchor x="409" y="720" name="top"/>
  <outline>
    <contour>
      <point x="66" y="-7" type="curve"/>
      <point x="276" y="8" type="line"/>
      <point x="276" y="64" type="line"/>
      <point x="248" y="65"/>
      <point x="229" y="88"/>
      <point x="229" y="172" type="curve" smooth="yes"/>
      <point x="229" y="353"/>
      <point x="286" y="402"/>
      <point x="411" y="402" type="curve" smooth="yes"/>
      <point x="521" y="402"/>
      <point x="558" y="342"/>
      <point x="558" y="253" type="curve" smooth="yes"/>
      <point x="558" y="241"/>
      <point x="558" y="222"/>
      <point x="558" y="211" type="curve" smooth="yes"/>
      <point x="558" y="192"/>
      <point x="561" y="163"/>
      <point x="575" y="143" type="curve"/>
      <point x="775" y="157" type="line"/>
      <point x="775" y="211" type="line"/>
      <point x="751" y="212"/>
      <point x="744" y="224"/>
      <point x="744" y="245" type="curve" smooth="yes"/>
      <point x="744" y="252"/>
      <point x="744" y="258"/>
      <point x="744" y="266" type="curve" smooth="yes"/>
      <point x="744" y="360"/>
      <point x="675" y="468"/>
      <point x="407" y="468" type="curve" smooth="yes"/>
      <point x="158" y="468"/>
      <point x="43" y="335"/>
      <point x="43" y="145" type="curve" smooth="yes"/>
      <point x="43" y="59"/>
      <point x="57" y="14"/>
    </contour>
    <contour>
      <point x="325" y="143" type="curve"/>
      <point x="520" y="157" type="line"/>
      <point x="520" y="211" type="line"/>
      <point x="495" y="211"/>
      <point x="485" y="224"/>
      <point x="485" y="278" type="curve" smooth="yes"/>
      <point x="485" y="649" type="line" smooth="yes"/>
      <point x="485" y="680"/>
      <point x="476" y="709"/>
      <point x="461" y="720" type="curve"/>
      <point x="265" y="707" type="line"/>
      <point x="265" y="653" type="line"/>
      <point x="288" y="653"/>
      <point x="301" y="633"/>
      <point x="301" y="594" type="curve" smooth="yes"/>
      <point x="301" y="221" type="line" smooth="yes"/>
      <point x="301" y="183"/>
      <point x="310" y="160"/>
    </contour>
  </outline>
</glyph>
<glyph name="hhwa-ethiopic" format="2">
  <advance width="940"/>
  <unicode hex="1217"/>
  <note>
uni1217
</note>
  <anchor x="476" y="721" name="top"/>
  <outline>
    <contour>
      <point x="553" y="5" type="curve"/>
      <point x="764" y="8" type="line"/>
      <point x="764" y="64" type="line"/>
      <point x="736" y="64"/>
      <point x="719" y="78"/>
      <point x="719" y="120" type="curve" smooth="yes"/>
      <point x="719" y="147"/>
      <point x="721" y="214"/>
      <point x="721" y="241" type="curve" smooth="yes"/>
      <point x="721" y="359"/>
      <point x="659" y="456"/>
      <point x="461" y="471" type="curve"/>
      <point x="461" y="650" type="line" smooth="yes"/>
      <point x="461" y="681"/>
      <point x="451" y="710"/>
      <point x="435" y="721" type="curve"/>
      <point x="239" y="706" type="line"/>
      <point x="239" y="652" type="line"/>
      <point x="265" y="652"/>
      <point x="277" y="630"/>
      <point x="277" y="591" type="curve" smooth="yes"/>
      <point x="277" y="466" type="line"/>
      <point x="108" y="437"/>
      <point x="23" y="337"/>
      <point x="23" y="221" type="curve" smooth="yes"/>
      <point x="23" y="188"/>
      <point x="29" y="161"/>
      <point x="36" y="140" type="curve"/>
      <point x="251" y="155" type="line"/>
      <point x="251" y="215" type="line"/>
      <point x="222" y="216"/>
      <point x="203" y="235"/>
      <point x="203" y="278" type="curve" smooth="yes"/>
      <point x="203" y="328"/>
      <point x="226" y="371"/>
      <point x="277" y="389" type="curve"/>
      <point x="277" y="221" type="line" smooth="yes"/>
      <point x="277" y="183"/>
      <point x="286" y="160"/>
      <point x="300" y="143" type="curve"/>
      <point x="498" y="158" type="line"/>
      <point x="498" y="215" type="line"/>
      <point x="473" y="215"/>
      <point x="461" y="228"/>
      <point x="461" y="282" type="curve" smooth="yes"/>
      <point x="461" y="392" type="line"/>
      <point x="512" y="372"/>
      <point x="535" y="318"/>
      <point x="535" y="234" type="curve" smooth="yes"/>
      <point x="535" y="197"/>
      <point x="534" y="125"/>
      <point x="534" y="81" type="curve" smooth="yes"/>
      <point x="534" y="40"/>
      <point x="540" y="26"/>
    </contour>
    <component base="footright" xOffset="349"/>
  </outline>
</glyph>
<glyph name="ma-ethiopic" format="2">
  <advance width="974"/>
  <unicode hex="1218"/>
  <note>
uni1218
</note>
  <anchor x="494" y="714" name="top"/>
  <outline>
    <contour>
      <point x="253" y="132" type="curve" smooth="yes"/>
      <point x="352" y="132"/>
      <point x="430" y="164"/>
      <point x="469" y="183" type="curve"/>
      <point x="469" y="650" type="line"/>
      <point x="534" y="650" type="line"/>
      <point x="534" y="201" type="line"/>
      <point x="721" y="201" type="line" smooth="yes"/>
      <point x="882" y="201"/>
      <point x="958" y="308"/>
      <point x="958" y="470" type="curve" smooth="yes"/>
      <point x="958" y="641"/>
      <point x="872" y="714"/>
      <point x="736" y="714" type="curve" smooth="yes"/>
      <point x="295" y="714" type="line" smooth="yes"/>
      <point x="129" y="714"/>
      <point x="30" y="599"/>
      <point x="30" y="394" type="curve" smooth="yes"/>
      <point x="30" y="228"/>
      <point x="104" y="132"/>
    </contour>
    <contour>
      <point x="276" y="197" type="curve" smooth="yes"/>
      <point x="231" y="197"/>
      <point x="212" y="254"/>
      <point x="212" y="402" type="curve" smooth="yes"/>
      <point x="212" y="552"/>
      <point x="243" y="650"/>
      <point x="290" y="650" type="curve" smooth="yes"/>
      <point x="295" y="650" type="line"/>
      <point x="295" y="204" type="line"/>
      <point x="289" y="199"/>
      <point x="285" y="197"/>
    </contour>
    <contour>
      <point x="709" y="265" type="line"/>
      <point x="709" y="650" type="line"/>
      <point x="717" y="650" type="line" smooth="yes"/>
      <point x="759" y="650"/>
      <point x="775" y="577"/>
      <point x="775" y="468" type="curve" smooth="yes"/>
      <point x="775" y="334"/>
      <point x="759" y="265"/>
      <point x="718" y="265" type="curve" smooth="yes"/>
    </contour>
  </outline>
</glyph>
<glyph name="mi-ethiopic" format="2">
  <advance width="981"/>
  <unicode hex="121A"/>
  <note>
uni121A
</note>
  <anchor x="495" y="714" name="top"/>
  <outline>
    <contour>
      <point x="560" y="0" type="curve"/>
      <point x="778" y="0" type="line"/>
      <point x="778" y="64" type="line"/>
      <point x="762" y="64"/>
      <point x="748" y="72"/>
      <point x="748" y="88" type="curve" smooth="yes"/>
      <point x="748" y="101"/>
      <point x="751" y="114"/>
      <point x="757" y="130" type="curve" smooth="yes"/>
      <point x="847" y="375" type="line" smooth="yes"/>
      <point x="877" y="457"/>
      <point x="890" y="512"/>
      <point x="890" y="563" type="curve" smooth="yes"/>
      <point x="890" y="656"/>
      <point x="845" y="714"/>
      <point x="718" y="714" type="curve" smooth="yes"/>
      <point x="285" y="714" type="line" smooth="yes"/>
      <point x="112" y="714"/>
      <point x="19" y="620"/>
      <point x="19" y="454" type="curve" smooth="yes"/>
      <point x="19" y="320"/>
      <point x="97" y="246"/>
      <point x="215" y="246" type="curve" smooth="yes"/>
      <point x="311" y="246"/>
      <point x="381" y="282"/>
      <point x="429" y="315" type="curve"/>
      <point x="429" y="650" type="line"/>
      <point x="500" y="650" type="line"/>
      <point x="495" y="614"/>
      <point x="490" y="573"/>
      <point x="490" y="517" type="curve" smooth="yes"/>
      <point x="490" y="392"/>
      <point x="538" y="339"/>
      <point x="645" y="339" type="curve" smooth="yes"/>
      <point x="655" y="339" type="line"/>
      <point x="570" y="108" type="line" smooth="yes"/>
      <point x="559" y="78"/>
      <point x="553" y="53"/>
      <point x="553" y="33" type="curve" smooth="yes"/>
      <point x="553" y="19"/>
      <point x="556" y="8"/>
    </contour>
    <contour>
      <point x="241" y="317" type="curve" smooth="yes"/>
      <point x="203" y="317"/>
      <point x="183" y="351"/>
      <point x="183" y="451" type="curve" smooth="yes"/>
      <point x="183" y="584"/>
      <point x="211" y="650"/>
      <point x="260" y="650" type="curve" smooth="yes"/>
      <point x="266" y="650" type="line"/>
      <point x="266" y="322" type="line"/>
      <point x="260" y="319"/>
      <point x="252" y="317"/>
    </contour>
    <contour>
      <point x="679" y="420" type="line" smooth="yes"/>
      <point x="657" y="420"/>
      <point x="648" y="442"/>
      <point x="648" y="517" type="curve" smooth="yes"/>
      <point x="648" y="571"/>
      <point x="652" y="618"/>
      <point x="656" y="650" type="curve"/>
      <point x="676" y="650" type="line" smooth="yes"/>
      <point x="708" y="650"/>
      <point x="719" y="631"/>
      <point x="719" y="585" type="curve" smooth="yes"/>
      <point x="719" y="537"/>
      <point x="709" y="488"/>
      <point x="696" y="451" type="curve" smooth="yes"/>
      <point x="685" y="420" type="line"/>
    </contour>
    <component base="rightdoubleflag" xOffset="746"/>
  </outline>
</glyph>
<glyph name="mee-ethiopic" format="2">
  <advance width="1019"/>
  <unicode hex="121C"/>
  <note>
uni121C
</note>
  <anchor x="514" y="714" name="top"/>
  <outline>
    <contour>
      <point x="612" y="0" type="curve"/>
      <point x="851" y="0" type="line" smooth="yes"/>
      <point x="961" y="0"/>
      <point x="1009" y="66"/>
      <point x="1009" y="150" type="curve" smooth="yes"/>
      <point x="1009" y="233"/>
      <point x="964" y="269"/>
      <point x="868" y="269" type="curve" smooth="yes"/>
      <point x="808" y="269" type="line"/>
      <point x="847" y="375" type="line" smooth="yes"/>
      <point x="877" y="458"/>
      <point x="890" y="512"/>
      <point x="890" y="563" type="curve" smooth="yes"/>
      <point x="890" y="656"/>
      <point x="845" y="714"/>
      <point x="718" y="714" type="curve" smooth="yes"/>
      <point x="285" y="714" type="line" smooth="yes"/>
      <point x="112" y="714"/>
      <point x="19" y="620"/>
      <point x="19" y="454" type="curve" smooth="yes"/>
      <point x="19" y="320"/>
      <point x="97" y="246"/>
      <point x="215" y="246" type="curve" smooth="yes"/>
      <point x="311" y="246"/>
      <point x="381" y="282"/>
      <point x="429" y="315" type="curve"/>
      <point x="429" y="650" type="line"/>
      <point x="500" y="650" type="line"/>
      <point x="495" y="614"/>
      <point x="490" y="573"/>
      <point x="490" y="517" type="curve" smooth="yes"/>
      <point x="490" y="392"/>
      <point x="538" y="339"/>
      <point x="645" y="339" type="curve" smooth="yes"/>
      <point x="655" y="339" type="line"/>
      <point x="588" y="163" type="line" smooth="yes"/>
      <point x="577" y="135"/>
      <point x="572" y="108"/>
      <point x="572" y="84" type="curve" smooth="yes"/>
      <point x="572" y="43"/>
      <point x="587" y="11"/>
    </contour>
    <contour>
      <point x="241" y="317" type="curve" smooth="yes"/>
      <point x="203" y="317"/>
      <point x="183" y="351"/>
      <point x="183" y="451" type="curve" smooth="yes"/>
      <point x="183" y="584"/>
      <point x="211" y="650"/>
      <point x="260" y="650" type="curve" smooth="yes"/>
      <point x="266" y="650" type="line"/>
      <point x="266" y="322" type="line"/>
      <point x="260" y="319"/>
      <point x="252" y="317"/>
    </contour>
    <contour>
      <point x="776" y="64" type="line" smooth="yes"/>
      <point x="759" y="64"/>
      <point x="749" y="73"/>
      <point x="749" y="91" type="curve" smooth="yes"/>
      <point x="749" y="104"/>
      <point x="753" y="124"/>
      <point x="759" y="139" type="curve" smooth="yes"/>
      <point x="785" y="207" type="line"/>
      <point x="797" y="207" type="line" smooth="yes"/>
      <point x="840" y="207"/>
      <point x="848" y="182"/>
      <point x="848" y="146" type="curve" smooth="yes"/>
      <point x="848" y="97"/>
      <point x="835" y="64"/>
      <point x="791" y="64" type="curve" smooth="yes"/>
    </contour>
    <contour>
      <point x="679" y="420" type="line" smooth="yes"/>
      <point x="657" y="420"/>
      <point x="648" y="442"/>
      <point x="648" y="517" type="curve" smooth="yes"/>
      <point x="648" y="571"/>
      <point x="652" y="618"/>
      <point x="656" y="650" type="curve"/>
      <point x="676" y="650" type="line" smooth="yes"/>
      <point x="708" y="650"/>
      <point x="719" y="631"/>
      <point x="719" y="585" type="curve" smooth="yes"/>
      <point x="719" y="537"/>
      <point x="709" y="488"/>
      <point x="696" y="451" type="curve" smooth="yes"/>
      <point x="685" y="420" type="line"/>
    </contour>
  </outline>
</glyph>
<glyph name="me-ethiopic" format="2">
  <advance width="936"/>
  <unicode hex="121D"/>
  <note>
uni121D
</note>
  <anchor x="470" y="714" name="top"/>
  <outline>
    <contour>
      <point x="215" y="246" type="curve" smooth="yes"/>
      <point x="310" y="246"/>
      <point x="381" y="278"/>
      <point x="429" y="306" type="curve"/>
      <point x="429" y="650" type="line"/>
      <point x="509" y="650" type="line"/>
      <point x="509" y="341" type="line"/>
      <point x="674" y="341" type="line" smooth="yes"/>
      <point x="850" y="341"/>
      <point x="921" y="420"/>
      <point x="921" y="536" type="curve" smooth="yes"/>
      <point x="921" y="659"/>
      <point x="841" y="714"/>
      <point x="691" y="714" type="curve" smooth="yes"/>
      <point x="285" y="714" type="line" smooth="yes"/>
      <point x="112" y="714"/>
      <point x="19" y="620"/>
      <point x="19" y="454" type="curve" smooth="yes"/>
      <point x="19" y="320"/>
      <point x="95" y="246"/>
    </contour>
    <contour>
      <point x="174" y="-7" type="curve"/>
      <point x="382" y="8" type="line"/>
      <point x="382" y="64" type="line"/>
      <point x="365" y="64"/>
      <point x="356" y="73"/>
      <point x="356" y="91" type="curve" smooth="yes"/>
      <point x="356" y="104"/>
      <point x="359" y="115"/>
      <point x="365" y="132" type="curve" smooth="yes"/>
      <point x="429" y="306" type="line"/>
      <point x="253" y="292" type="line"/>
      <point x="179" y="102" type="line" smooth="yes"/>
      <point x="169" y="77"/>
      <point x="166" y="54"/>
      <point x="166" y="35" type="curve" smooth="yes"/>
      <point x="166" y="17"/>
      <point x="170" y="2"/>
    </contour>
    <contour>
      <point x="241" y="317" type="curve" smooth="yes"/>
      <point x="201" y="317"/>
      <point x="183" y="358"/>
      <point x="183" y="451" type="curve" smooth="yes"/>
      <point x="183" y="584"/>
      <point x="210" y="650"/>
      <point x="268" y="650" type="curve" smooth="yes"/>
      <point x="266" y="650" type="line"/>
      <point x="266" y="323" type="line"/>
      <point x="261" y="320"/>
      <point x="252" y="317"/>
    </contour>
    <contour>
      <point x="682" y="410" type="line"/>
      <point x="682" y="650" type="line"/>
      <point x="689" y="650" type="line" smooth="yes"/>
      <point x="725" y="650"/>
      <point x="739" y="612"/>
      <point x="739" y="536" type="curve" smooth="yes"/>
      <point x="739" y="445"/>
      <point x="720" y="410"/>
      <point x="690" y="410" type="curve" smooth="yes"/>
    </contour>
  </outline>
</glyph>
<glyph name="mo-ethiopic" format="2">
  <advance width="936"/>
  <unicode hex="121E"/>
  <note>
uni121E
</note>
  <anchor x="470" y="714" name="top"/>
  <outline>
    <contour>
      <point x="215" y="246" type="curve" smooth="yes"/>
      <point x="310" y="246"/>
      <point x="381" y="278"/>
      <point x="429" y="306" type="curve"/>
      <point x="429" y="650" type="line"/>
      <point x="509" y="650" type="line"/>
      <point x="509" y="341" type="line"/>
      <point x="674" y="341" type="line" smooth="yes"/>
      <point x="850" y="341"/>
      <point x="921" y="420"/>
      <point x="921" y="536" type="curve" smooth="yes"/>
      <point x="921" y="659"/>
      <point x="841" y="714"/>
      <point x="691" y="714" type="curve" smooth="yes"/>
      <point x="285" y="714" type="line" smooth="yes"/>
      <point x="112" y="714"/>
      <point x="19" y="620"/>
      <point x="19" y="454" type="curve" smooth="yes"/>
      <point x="19" y="320"/>
      <point x="95" y="246"/>
    </contour>
    <contour>
      <point x="289" y="-7" type="curve"/>
      <point x="468" y="8" type="line"/>
      <point x="468" y="64" type="line"/>
      <point x="444" y="64"/>
      <point x="429" y="77"/>
      <point x="429" y="131" type="curve" smooth="yes"/>
      <point x="429" y="376" type="line"/>
      <point x="266" y="293" type="line"/>
      <point x="266" y="74" type="line" smooth="yes"/>
      <point x="266" y="36"/>
      <point x="275" y="10"/>
    </contour>
    <contour>
      <point x="241" y="317" type="curve" smooth="yes"/>
      <point x="201" y="317"/>
      <point x="183" y="358"/>
      <point x="183" y="451" type="curve" smooth="yes"/>
      <point x="183" y="584"/>
      <point x="210" y="650"/>
      <point x="268" y="650" type="curve" smooth="yes"/>
      <point x="266" y="650" type="line"/>
      <point x="266" y="323" type="line"/>
      <point x="261" y="320"/>
      <point x="252" y="317"/>
    </contour>
    <contour>
      <point x="682" y="410" type="line"/>
      <point x="682" y="650" type="line"/>
      <point x="689" y="650" type="line" smooth="yes"/>
      <point x="725" y="650"/>
      <point x="739" y="612"/>
      <point x="739" y="536" type="curve" smooth="yes"/>
      <point x="739" y="445"/>
      <point x="720" y="410"/>
      <point x="690" y="410" type="curve" smooth="yes"/>
    </contour>
  </outline>
</glyph>
<glyph name="sza-ethiopic" format="2">
  <advance width="821"/>
  <unicode hex="1220"/>
  <note>
uni1220
</note>
  <anchor x="398" y="721" name="top"/>
  <outline>
    <contour>
      <point x="252" y="-11" type="curve" smooth="yes"/>
      <point x="384" y="-11"/>
      <point x="426" y="72"/>
      <point x="440" y="136" type="curve"/>
      <point x="460" y="115"/>
      <point x="497" y="95"/>
      <point x="561" y="95" type="curve" smooth="yes"/>
      <point x="700" y="95"/>
      <point x="780" y="211"/>
      <point x="780" y="355" type="curve" smooth="yes"/>
      <point x="780" y="626" type="line" smooth="yes"/>
      <point x="780" y="668"/>
      <point x="779" y="701"/>
      <point x="771" y="721" type="curve"/>
      <point x="547" y="707" type="line"/>
      <point x="547" y="650" type="line"/>
      <point x="582" y="650"/>
      <point x="596" y="636"/>
      <point x="596" y="578" type="curve" smooth="yes"/>
      <point x="596" y="259" type="line" smooth="yes"/>
      <point x="596" y="190"/>
      <point x="583" y="162"/>
      <point x="553" y="162" type="curve" smooth="yes"/>
      <point x="526" y="162"/>
      <point x="512" y="185"/>
      <point x="512" y="238" type="curve" smooth="yes"/>
      <point x="512" y="626" type="line" smooth="yes"/>
      <point x="512" y="668"/>
      <point x="510" y="701"/>
      <point x="502" y="721" type="curve"/>
      <point x="278" y="707" type="line"/>
      <point x="278" y="650" type="line"/>
      <point x="313" y="650"/>
      <point x="328" y="636"/>
      <point x="328" y="578" type="curve" smooth="yes"/>
      <point x="328" y="165" type="line" smooth="yes"/>
      <point x="328" y="85"/>
      <point x="314" y="57"/>
      <point x="286" y="57" type="curve" smooth="yes"/>
      <point x="260" y="57"/>
      <point x="246" y="74"/>
      <point x="246" y="133" type="curve" smooth="yes"/>
      <point x="246" y="264"/>
      <point x="251" y="480"/>
      <point x="251" y="626" type="curve" smooth="yes"/>
      <point x="251" y="673"/>
      <point x="248" y="701"/>
      <point x="240" y="721" type="curve"/>
      <point x="16" y="707" type="line"/>
      <point x="16" y="650" type="line"/>
      <point x="51" y="650"/>
      <point x="66" y="636"/>
      <point x="66" y="578" type="curve" smooth="yes"/>
      <point x="66" y="446"/>
      <point x="61" y="289"/>
      <point x="61" y="193" type="curve" smooth="yes"/>
      <point x="61" y="66"/>
      <point x="112" y="-11"/>
    </contour>
  </outline>
</glyph>
<glyph name="szi-ethiopic" format="2">
  <advance width="823"/>
  <unicode hex="1222"/>
  <note>
uni1222
</note>
  <anchor x="414" y="721" name="top"/>
  <outline>
    <contour>
      <point x="433" y="0" type="curve"/>
      <point x="642" y="0" type="line"/>
      <point x="642" y="64" type="line"/>
      <point x="625" y="64"/>
      <point x="618" y="71"/>
      <point x="618" y="89" type="curve" smooth="yes"/>
      <point x="618" y="99"/>
      <point x="620" y="112"/>
      <point x="625" y="129" type="curve" smooth="yes"/>
      <point x="741" y="495" type="line" smooth="yes"/>
      <point x="753" y="533"/>
      <point x="755" y="574"/>
      <point x="755" y="615" type="curve" smooth="yes"/>
      <point x="755" y="626" type="line" smooth="yes"/>
      <point x="755" y="668"/>
      <point x="753" y="701"/>
      <point x="745" y="721" type="curve"/>
      <point x="521" y="707" type="line"/>
      <point x="521" y="650" type="line"/>
      <point x="556" y="650"/>
      <point x="571" y="636"/>
      <point x="571" y="578" type="curve" smooth="yes"/>
      <point x="571" y="557" type="line" smooth="yes"/>
      <point x="571" y="465"/>
      <point x="566" y="404"/>
      <point x="531" y="404" type="curve" smooth="yes"/>
      <point x="504" y="404"/>
      <point x="499" y="438"/>
      <point x="499" y="521" type="curve" smooth="yes"/>
      <point x="499" y="626" type="line" smooth="yes"/>
      <point x="499" y="668"/>
      <point x="497" y="701"/>
      <point x="489" y="721" type="curve"/>
      <point x="265" y="707" type="line"/>
      <point x="265" y="650" type="line"/>
      <point x="301" y="650"/>
      <point x="315" y="636"/>
      <point x="315" y="578" type="curve" smooth="yes"/>
      <point x="315" y="476" type="line" smooth="yes"/>
      <point x="315" y="362"/>
      <point x="311" y="299"/>
      <point x="276" y="299" type="curve" smooth="yes"/>
      <point x="249" y="299"/>
      <point x="246" y="337"/>
      <point x="246" y="416" type="curve" smooth="yes"/>
      <point x="246" y="453"/>
      <point x="251" y="585"/>
      <point x="251" y="626" type="curve" smooth="yes"/>
      <point x="251" y="673"/>
      <point x="248" y="701"/>
      <point x="240" y="721" type="curve"/>
      <point x="16" y="707" type="line"/>
      <point x="16" y="650" type="line"/>
      <point x="51" y="650"/>
      <point x="66" y="636"/>
      <point x="66" y="578" type="curve" smooth="yes"/>
      <point x="66" y="551"/>
      <point x="61" y="468"/>
      <point x="61" y="462" type="curve" smooth="yes"/>
      <point x="61" y="318"/>
      <point x="112" y="231"/>
      <point x="248" y="231" type="curve" smooth="yes"/>
      <point x="371" y="231"/>
      <point x="415" y="309"/>
      <point x="427" y="377" type="curve"/>
      <point x="444" y="360"/>
      <point x="475" y="337"/>
      <point x="518" y="337" type="curve" smooth="yes"/>
      <point x="519" y="337"/>
      <point x="519" y="337"/>
      <point x="523" y="339" type="curve"/>
      <point x="439" y="102" type="line" smooth="yes"/>
      <point x="429" y="75"/>
      <point x="426" y="53"/>
      <point x="426" y="33" type="curve" smooth="yes"/>
      <point x="426" y="19"/>
      <point x="429" y="8"/>
    </contour>
    <component base="rightdoubleflag" xOffset="588"/>
  </outline>
</glyph>
<glyph name="szaa-ethiopic" format="2">
  <advance width="809"/>
  <unicode hex="1223"/>
  <note>
uni1223
</note>
  <anchor x="397" y="721" name="top"/>
  <outline>
    <contour>
      <point x="461" y="-7" type="curve"/>
      <point x="667" y="8" type="line"/>
      <point x="667" y="64" type="line"/>
      <point x="651" y="64"/>
      <point x="643" y="72"/>
      <point x="643" y="89" type="curve" smooth="yes"/>
      <point x="643" y="99"/>
      <point x="645" y="113"/>
      <point x="651" y="131" type="curve" smooth="yes"/>
      <point x="767" y="490" type="line"/>
      <point x="545" y="347" type="line"/>
      <point x="465" y="102" type="line" smooth="yes"/>
      <point x="456" y="76"/>
      <point x="453" y="53"/>
      <point x="453" y="34" type="curve" smooth="yes"/>
      <point x="453" y="16"/>
      <point x="457" y="2"/>
    </contour>
    <component base="shorttoploops"/>
  </outline>
</glyph>
<glyph name="szee-ethiopic" format="2">
  <advance width="869"/>
  <unicode hex="1224"/>
  <note>
uni1224
</note>
  <anchor x="437" y="721" name="top"/>
  <outline>
    <contour>
      <point x="461" y="0" type="curve"/>
      <point x="701" y="0" type="line" smooth="yes"/>
      <point x="810" y="0"/>
      <point x="859" y="66"/>
      <point x="859" y="150" type="curve" smooth="yes"/>
      <point x="859" y="233"/>
      <point x="814" y="269"/>
      <point x="717" y="269" type="curve" smooth="yes"/>
      <point x="668" y="269" type="line"/>
      <point x="731" y="476" type="line"/>
      <point x="501" y="360" type="line"/>
      <point x="437" y="162" type="line" smooth="yes"/>
      <point x="427" y="132"/>
      <point x="422" y="106"/>
      <point x="422" y="82" type="curve" smooth="yes"/>
      <point x="422" y="41"/>
      <point x="436" y="11"/>
    </contour>
    <contour>
      <point x="623" y="62" type="line" smooth="yes"/>
      <point x="607" y="62"/>
      <point x="599" y="71"/>
      <point x="599" y="90" type="curve" smooth="yes"/>
      <point x="599" y="100"/>
      <point x="602" y="114"/>
      <point x="608" y="129" type="curve" smooth="yes"/>
      <point x="641" y="207" type="line"/>
      <point x="647" y="207" type="line" smooth="yes"/>
      <point x="690" y="207"/>
      <point x="698" y="182"/>
      <point x="698" y="146" type="curve" smooth="yes"/>
      <point x="698" y="97"/>
      <point x="683" y="62"/>
      <point x="639" y="62" type="curve" smooth="yes"/>
    </contour>
    <component base="shorttoploops"/>
  </outline>
</glyph>
<glyph name="sze-ethiopic" format="2">
  <advance width="904"/>
  <unicode hex="1225"/>
  <note>
uni1225
</note>
  <anchor x="444" y="721" name="top"/>
  <outline>
    <contour>
      <point x="31" y="-7" type="curve"/>
      <point x="242" y="8" type="line"/>
      <point x="242" y="64" type="line"/>
      <point x="228" y="64"/>
      <point x="219" y="71"/>
      <point x="219" y="89" type="curve" smooth="yes"/>
      <point x="219" y="100"/>
      <point x="221" y="111"/>
      <point x="227" y="129" type="curve" smooth="yes"/>
      <point x="285" y="307" type="line"/>
      <point x="157" y="435" type="line"/>
      <point x="39" y="102" type="line" smooth="yes"/>
      <point x="29" y="73"/>
      <point x="25" y="48"/>
      <point x="25" y="28" type="curve" smooth="yes"/>
      <point x="25" y="13"/>
      <point x="27" y="1"/>
    </contour>
    <component base="shorttoploops" xOffset="84"/>
  </outline>
</glyph>
<glyph name="szo-ethiopic" format="2">
  <advance width="820"/>
  <unicode hex="1226"/>
  <note>
uni1226
</note>
  <anchor x="397" y="721" name="top"/>
  <outline>
    <contour>
      <point x="235" y="-7" type="curve"/>
      <point x="440" y="8" type="line"/>
      <point x="440" y="64" type="line"/>
      <point x="423" y="64"/>
      <point x="415" y="72"/>
      <point x="415" y="90" type="curve" smooth="yes"/>
      <point x="415" y="100"/>
      <point x="418" y="114"/>
      <point x="423" y="131" type="curve" smooth="yes"/>
      <point x="512" y="406" type="line"/>
      <point x="416" y="406" type="line"/>
      <point x="299" y="283" type="line"/>
      <point x="239" y="102" type="line" smooth="yes"/>
      <point x="230" y="76"/>
      <point x="227" y="53"/>
      <point x="227" y="34" type="curve" smooth="yes"/>
      <point x="227" y="16"/>
      <point x="231" y="2"/>
    </contour>
    <component base="shorttoploops"/>
  </outline>
</glyph>
<glyph name="szwa-ethiopic" format="2">
  <advance width="849"/>
  <unicode hex="1227"/>
  <note>
uni1227
</note>
  <anchor x="427" y="721" name="top"/>
  <outline>
    <contour>
      <point x="457" y="7" type="curve"/>
      <point x="663" y="7" type="line"/>
      <point x="663" y="64" type="line"/>
      <point x="647" y="64"/>
      <point x="639" y="71"/>
      <point x="639" y="88" type="curve" smooth="yes"/>
      <point x="639" y="98"/>
      <point x="641" y="111"/>
      <point x="647" y="129" type="curve" smooth="yes"/>
      <point x="753" y="470" type="line" smooth="yes"/>
      <point x="763" y="503"/>
      <point x="771" y="541"/>
      <point x="771" y="581" type="curve" smooth="yes"/>
      <point x="771" y="626" type="line" smooth="yes"/>
      <point x="771" y="668"/>
      <point x="769" y="701"/>
      <point x="761" y="721" type="curve"/>
      <point x="541" y="707" type="line"/>
      <point x="541" y="650" type="line"/>
      <point x="572" y="650"/>
      <point x="587" y="636"/>
      <point x="587" y="578" type="curve" smooth="yes"/>
      <point x="587" y="525" type="line" smooth="yes"/>
      <point x="587" y="440"/>
      <point x="577" y="397"/>
      <point x="545" y="397" type="curve" smooth="yes"/>
      <point x="517" y="397"/>
      <point x="505" y="423"/>
      <point x="505" y="488" type="curve" smooth="yes"/>
      <point x="505" y="626" type="line" smooth="yes"/>
      <point x="505" y="668"/>
      <point x="503" y="701"/>
      <point x="495" y="721" type="curve"/>
      <point x="275" y="707" type="line"/>
      <point x="275" y="650" type="line"/>
      <point x="307" y="650"/>
      <point x="321" y="636"/>
      <point x="321" y="578" type="curve" smooth="yes"/>
      <point x="321" y="422" type="line" smooth="yes"/>
      <point x="321" y="329"/>
      <point x="311" y="302"/>
      <point x="282" y="302" type="curve" smooth="yes"/>
      <point x="253" y="302"/>
      <point x="242" y="331"/>
      <point x="242" y="392" type="curve" smooth="yes"/>
      <point x="242" y="438"/>
      <point x="247" y="585"/>
      <point x="247" y="626" type="curve" smooth="yes"/>
      <point x="247" y="673"/>
      <point x="244" y="701"/>
      <point x="236" y="721" type="curve"/>
      <point x="16" y="707" type="line"/>
      <point x="16" y="650" type="line"/>
      <point x="47" y="650"/>
      <point x="62" y="636"/>
      <point x="62" y="578" type="curve" smooth="yes"/>
      <point x="62" y="542"/>
      <point x="57" y="474"/>
      <point x="57" y="433" type="curve" smooth="yes"/>
      <point x="57" y="310"/>
      <point x="111" y="231"/>
      <point x="244" y="231" type="curve" smooth="yes"/>
      <point x="367" y="231"/>
      <point x="420" y="306"/>
      <point x="433" y="363" type="curve"/>
      <point x="450" y="348"/>
      <point x="498" y="331"/>
      <point x="532" y="328" type="curve" smooth="yes"/>
      <point x="533" y="328"/>
      <point x="533" y="328"/>
      <point x="535" y="328" type="curve"/>
      <point x="461" y="102" type="line" smooth="yes"/>
      <point x="452" y="76"/>
      <point x="449" y="56"/>
      <point x="449" y="41" type="curve" smooth="yes"/>
      <point x="449" y="26"/>
      <point x="453" y="16"/>
    </contour>
    <component base="footright" xOffset="258"/>
  </outline>
</glyph>
<glyph name="ra-ethiopic" format="2">
  <advance width="492"/>
  <unicode hex="1228"/>
  <note>
uni1228
</note>
  <anchor x="256" y="720" name="top"/>
  <outline>
    <contour>
      <point x="437" y="-84" type="curve" smooth="yes"/>
      <point x="456" y="-84"/>
      <point x="474" y="-80"/>
      <point x="485" y="-72" type="curve"/>
      <point x="467" y="-50"/>
      <point x="455" y="-12"/>
      <point x="455" y="32" type="curve" smooth="yes"/>
      <point x="455" y="76"/>
      <point x="468" y="113"/>
      <point x="485" y="136" type="curve"/>
      <point x="474" y="143"/>
      <point x="456" y="148"/>
      <point x="437" y="148" type="curve" smooth="yes"/>
      <point x="379" y="148"/>
      <point x="351" y="108"/>
      <point x="340" y="64" type="curve"/>
      <point x="290" y="64" type="line"/>
      <point x="290" y="0" type="line"/>
      <point x="340" y="0" type="line"/>
      <point x="351" y="-44"/>
      <point x="379" y="-84"/>
    </contour>
    <component base="nose"/>
  </outline>
</glyph>
<glyph name="ru-ethiopic" format="2">
  <advance width="568"/>
  <unicode hex="1229"/>
  <note>
uni1229
</note>
  <anchor x="283" y="720" name="top"/>
  <outline>
    <contour>
      <point x="188" y="193" type="curve" smooth="yes"/>
      <point x="335" y="193" type="line"/>
      <point x="335" y="257" type="line"/>
      <point x="243" y="257" type="line" smooth="yes"/>
      <point x="195" y="257"/>
      <point x="173" y="278"/>
      <point x="173" y="316" type="curve" smooth="yes"/>
      <point x="173" y="359"/>
      <point x="218" y="400"/>
      <point x="263" y="441" type="curve" smooth="yes"/>
      <point x="351" y="522"/>
      <point x="382" y="561"/>
      <point x="382" y="643" type="curve" smooth="yes"/>
      <point x="382" y="674"/>
      <point x="376" y="699"/>
      <point x="369" y="720" type="curve"/>
      <point x="165" y="707" type="line"/>
      <point x="165" y="650" type="line"/>
      <point x="178" y="649"/>
      <point x="190" y="637"/>
      <point x="190" y="612" type="curve" smooth="yes"/>
      <point x="190" y="579"/>
      <point x="164" y="554"/>
      <point x="123" y="514" type="curve" smooth="yes"/>
      <point x="58" y="451"/>
      <point x="8" y="409"/>
      <point x="8" y="324" type="curve" smooth="yes"/>
      <point x="8" y="242"/>
      <point x="63" y="193"/>
    </contour>
    <contour>
      <point x="198" y="-7" type="curve"/>
      <point x="386" y="8" type="line"/>
      <point x="386" y="64" type="line"/>
      <point x="354" y="64"/>
      <point x="339" y="78"/>
      <point x="339" y="138" type="curve" smooth="yes"/>
      <point x="339" y="228" type="line"/>
      <point x="182" y="228" type="line"/>
      <point x="182" y="91" type="line" smooth="yes"/>
      <point x="182" y="49"/>
      <point x="188" y="13"/>
    </contour>
    <component base="rightsingleflag" xOffset="305" yOffset="-159"/>
  </outline>
</glyph>
<glyph name="ri-ethiopic" format="2">
  <advance width="536"/>
  <unicode hex="122A"/>
  <note>
uni122A
</note>
  <anchor x="273" y="720" name="top"/>
  <outline>
    <contour>
      <point x="264" y="-8" type="curve" smooth="yes"/>
      <point x="424" y="-8"/>
      <point x="519" y="67"/>
      <point x="519" y="213" type="curve" smooth="yes"/>
      <point x="519" y="243"/>
      <point x="515" y="273"/>
      <point x="511" y="289" type="curve"/>
      <point x="306" y="275" type="line"/>
      <point x="306" y="217" type="line"/>
      <point x="322" y="217"/>
      <point x="336" y="207"/>
      <point x="336" y="159" type="curve" smooth="yes"/>
      <point x="336" y="84"/>
      <point x="311" y="56"/>
      <point x="266" y="56" type="curve" smooth="yes"/>
      <point x="223" y="56"/>
      <point x="196" y="86"/>
      <point x="196" y="163" type="curve" smooth="yes"/>
      <point x="196" y="259"/>
      <point x="232" y="306"/>
      <point x="297" y="369" type="curve" smooth="yes"/>
      <point x="405" y="473"/>
      <point x="447" y="533"/>
      <point x="447" y="634" type="curve" smooth="yes"/>
      <point x="447" y="681"/>
      <point x="435" y="707"/>
      <point x="428" y="720" type="curve"/>
      <point x="227" y="707" type="line"/>
      <point x="227" y="649" type="line"/>
      <point x="242" y="649"/>
      <point x="253" y="634"/>
      <point x="253" y="605" type="curve" smooth="yes"/>
      <point x="253" y="554"/>
      <point x="216" y="524"/>
      <point x="166" y="465" type="curve" smooth="yes"/>
      <point x="113" y="403"/>
      <point x="27" y="334"/>
      <point x="27" y="206" type="curve" smooth="yes"/>
      <point x="27" y="49"/>
      <point x="122" y="-8"/>
    </contour>
  </outline>
</glyph>
<glyph name="raa-ethiopic" format="2">
  <advance width="675"/>
  <unicode hex="122B"/>
  <note>
uni122B
</note>
  <anchor x="346" y="720" name="top"/>
  <outline>
    <contour>
      <point x="258" y="0" type="curve" smooth="yes"/>
      <point x="441" y="0" type="line"/>
      <point x="441" y="61" type="line" smooth="yes"/>
      <point x="441" y="190"/>
      <point x="469" y="248"/>
      <point x="506" y="248" type="curve" smooth="yes"/>
      <point x="514" y="248" type="line"/>
      <point x="513" y="242"/>
      <point x="512" y="236"/>
      <point x="512" y="222" type="curve" smooth="yes"/>
      <point x="512" y="156"/>
      <point x="552" y="119"/>
      <point x="616" y="119" type="curve" smooth="yes"/>
      <point x="636" y="119"/>
      <point x="653" y="123"/>
      <point x="665" y="128" type="curve"/>
      <point x="647" y="166"/>
      <point x="641" y="197"/>
      <point x="641" y="237" type="curve" smooth="yes"/>
      <point x="641" y="263"/>
      <point x="646" y="290"/>
      <point x="653" y="315" type="curve"/>
      <point x="468" y="315" type="line" smooth="yes"/>
      <point x="334" y="315"/>
      <point x="267" y="231"/>
      <point x="265" y="64" type="curve"/>
      <point x="262" y="64" type="line" smooth="yes"/>
      <point x="232" y="64"/>
      <point x="201" y="108"/>
      <point x="201" y="181" type="curve" smooth="yes"/>
      <point x="201" y="264"/>
      <point x="232" y="306"/>
      <point x="297" y="369" type="curve" smooth="yes"/>
      <point x="405" y="473"/>
      <point x="447" y="533"/>
      <point x="447" y="632" type="curve" smooth="yes"/>
      <point x="447" y="678"/>
      <point x="435" y="707"/>
      <point x="428" y="720" type="curve"/>
      <point x="227" y="707" type="line"/>
      <point x="227" y="649" type="line"/>
      <point x="242" y="649"/>
      <point x="253" y="634"/>
      <point x="253" y="605" type="curve" smooth="yes"/>
      <point x="253" y="554"/>
      <point x="216" y="524"/>
      <point x="166" y="465" type="curve" smooth="yes"/>
      <point x="113" y="403"/>
      <point x="27" y="331"/>
      <point x="27" y="205" type="curve" smooth="yes"/>
      <point x="27" y="56"/>
      <point x="116" y="0"/>
    </contour>
  </outline>
</glyph>
<glyph name="ree-ethiopic" format="2">
  <advance width="665"/>
  <unicode hex="122C"/>
  <note>
uni122C
</note>
  <anchor x="341" y="720" name="top"/>
  <outline>
    <contour>
      <point x="296" y="0" type="line"/>
      <point x="452" y="0" type="line"/>
      <point x="452" y="19" type="line"/>
      <point x="388" y="64" type="line"/>
      <point x="296" y="64" type="line"/>
    </contour>
    <component base="nose"/>
    <component base="ballbig" xOffset="245" yOffset="-157"/>
  </outline>
</glyph>
<glyph name="re-ethiopic" format="2">
  <advance width="529"/>
  <unicode hex="122D"/>
  <note>
uni122D
</note>
  <anchor x="286" y="714" name="top"/>
  <outline>
    <contour>
      <point x="479" y="-84" type="curve" smooth="yes"/>
      <point x="498" y="-84"/>
      <point x="516" y="-80"/>
      <point x="527" y="-72" type="curve"/>
      <point x="509" y="-50"/>
      <point x="497" y="-12"/>
      <point x="497" y="32" type="curve" smooth="yes"/>
      <point x="497" y="76"/>
      <point x="510" y="113"/>
      <point x="527" y="136" type="curve"/>
      <point x="516" y="143"/>
      <point x="498" y="148"/>
      <point x="479" y="148" type="curve" smooth="yes"/>
      <point x="421" y="148"/>
      <point x="393" y="108"/>
      <point x="382" y="64" type="curve"/>
      <point x="338" y="64" type="line" smooth="yes"/>
      <point x="255" y="64"/>
      <point x="231" y="110"/>
      <point x="231" y="229" type="curve" smooth="yes"/>
      <point x="231" y="323" type="line" smooth="yes"/>
      <point x="231" y="561"/>
      <point x="278" y="647"/>
      <point x="355" y="647" type="curve" smooth="yes"/>
      <point x="370" y="647" type="line"/>
      <point x="369" y="641"/>
      <point x="368" y="635"/>
      <point x="368" y="621" type="curve" smooth="yes"/>
      <point x="368" y="555"/>
      <point x="408" y="518"/>
      <point x="472" y="518" type="curve" smooth="yes"/>
      <point x="492" y="518"/>
      <point x="509" y="522"/>
      <point x="521" y="527" type="curve"/>
      <point x="503" y="565"/>
      <point x="497" y="596"/>
      <point x="497" y="636" type="curve" smooth="yes"/>
      <point x="497" y="662"/>
      <point x="502" y="689"/>
      <point x="509" y="714" type="curve"/>
      <point x="332" y="714" type="line" smooth="yes"/>
      <point x="164" y="714"/>
      <point x="46" y="594"/>
      <point x="46" y="323" type="curve" smooth="yes"/>
      <point x="46" y="260" type="line" smooth="yes"/>
      <point x="46" y="70"/>
      <point x="105" y="0"/>
      <point x="264" y="0" type="curve" smooth="yes"/>
      <point x="382" y="0" type="line"/>
      <point x="393" y="-44"/>
      <point x="421" y="-84"/>
    </contour>
  </outline>
</glyph>
<glyph name="ro-ethiopic" format="2">
  <advance width="648"/>
  <unicode hex="122E"/>
  <note>
uni122E
</note>
  <anchor x="342" y="714" name="top"/>
  <outline>
    <contour>
      <point x="529" y="-84" type="curve" smooth="yes"/>
      <point x="548" y="-84"/>
      <point x="566" y="-80"/>
      <point x="577" y="-72" type="curve"/>
      <point x="559" y="-50"/>
      <point x="547" y="-12"/>
      <point x="547" y="32" type="curve" smooth="yes"/>
      <point x="547" y="76"/>
      <point x="560" y="113"/>
      <point x="577" y="136" type="curve"/>
      <point x="566" y="143"/>
      <point x="548" y="148"/>
      <point x="529" y="148" type="curve" smooth="yes"/>
      <point x="471" y="148"/>
      <point x="443" y="108"/>
      <point x="432" y="64" type="curve"/>
      <point x="338" y="64" type="line" smooth="yes"/>
      <point x="255" y="64"/>
      <point x="231" y="110"/>
      <point x="231" y="229" type="curve" smooth="yes"/>
      <point x="231" y="323" type="line" smooth="yes"/>
      <point x="231" y="561"/>
      <point x="263" y="657"/>
      <point x="355" y="657" type="curve" smooth="yes"/>
      <point x="432" y="657" type="line"/>
      <point x="509" y="714" type="line"/>
      <point x="332" y="714" type="line" smooth="yes"/>
      <point x="164" y="714"/>
      <point x="46" y="594"/>
      <point x="46" y="323" type="curve" smooth="yes"/>
      <point x="46" y="260" type="line" smooth="yes"/>
      <point x="46" y="70"/>
      <point x="105" y="0"/>
      <point x="264" y="0" type="curve" smooth="yes"/>
      <point x="432" y="0" type="line"/>
      <point x="443" y="-44"/>
      <point x="471" y="-84"/>
    </contour>
    <component base="ballsmall" xOffset="294" yOffset="298"/>
  </outline>
</glyph>
<glyph name="rwa-ethiopic" format="2">
  <advance width="675"/>
  <unicode hex="122F"/>
  <note>
uni122F
</note>
  <anchor x="346" y="839" name="top"/>
  <outline>
    <contour>
      <point x="258" y="0" type="curve" smooth="yes"/>
      <point x="441" y="0" type="line"/>
      <point x="441" y="61" type="line" smooth="yes"/>
      <point x="441" y="190"/>
      <point x="469" y="248"/>
      <point x="506" y="248" type="curve" smooth="yes"/>
      <point x="514" y="248" type="line"/>
      <point x="513" y="242"/>
      <point x="512" y="236"/>
      <point x="512" y="222" type="curve" smooth="yes"/>
      <point x="512" y="156"/>
      <point x="552" y="119"/>
      <point x="616" y="119" type="curve" smooth="yes"/>
      <point x="636" y="119"/>
      <point x="653" y="123"/>
      <point x="665" y="128" type="curve"/>
      <point x="647" y="166"/>
      <point x="641" y="197"/>
      <point x="641" y="237" type="curve" smooth="yes"/>
      <point x="641" y="263"/>
      <point x="646" y="290"/>
      <point x="653" y="315" type="curve"/>
      <point x="468" y="315" type="line" smooth="yes"/>
      <point x="334" y="315"/>
      <point x="267" y="231"/>
      <point x="265" y="64" type="curve"/>
      <point x="262" y="64" type="line" smooth="yes"/>
      <point x="232" y="64"/>
      <point x="201" y="108"/>
      <point x="201" y="181" type="curve" smooth="yes"/>
      <point x="201" y="264"/>
      <point x="232" y="306"/>
      <point x="297" y="369" type="curve" smooth="yes"/>
      <point x="405" y="473"/>
      <point x="447" y="534"/>
      <point x="447" y="633" type="curve" smooth="yes"/>
      <point x="447" y="679"/>
      <point x="435" y="698"/>
      <point x="428" y="711" type="curve"/>
      <point x="223" y="708" type="line"/>
      <point x="223" y="650" type="line"/>
      <point x="240" y="650"/>
      <point x="253" y="635"/>
      <point x="253" y="605" type="curve" smooth="yes"/>
      <point x="253" y="554"/>
      <point x="216" y="524"/>
      <point x="166" y="465" type="curve" smooth="yes"/>
      <point x="113" y="403"/>
      <point x="27" y="331"/>
      <point x="27" y="205" type="curve" smooth="yes"/>
      <point x="27" y="56"/>
      <point x="116" y="0"/>
    </contour>
    <contour>
      <point x="578" y="839" type="curve" smooth="yes"/>
      <point x="522" y="839"/>
      <point x="485" y="802"/>
      <point x="485" y="739" type="curve" smooth="yes"/>
      <point x="485" y="726"/>
      <point x="486" y="720"/>
      <point x="487" y="714" type="curve"/>
      <point x="178" y="714" type="line"/>
      <point x="179" y="720"/>
      <point x="180" y="726"/>
      <point x="180" y="739" type="curve" smooth="yes"/>
      <point x="180" y="802"/>
      <point x="143" y="839"/>
      <point x="87" y="839" type="curve" smooth="yes"/>
      <point x="70" y="839"/>
      <point x="56" y="835"/>
      <point x="47" y="829" type="curve"/>
      <point x="62" y="794"/>
      <point x="65" y="763"/>
      <point x="65" y="724" type="curve" smooth="yes"/>
      <point x="65" y="698"/>
      <point x="61" y="672"/>
      <point x="54" y="650" type="curve"/>
      <point x="611" y="650" type="line"/>
      <point x="604" y="672"/>
      <point x="600" y="698"/>
      <point x="600" y="724" type="curve" smooth="yes"/>
      <point x="600" y="763"/>
      <point x="603" y="794"/>
      <point x="618" y="829" type="curve"/>
      <point x="609" y="835"/>
      <point x="595" y="839"/>
    </contour>
  </outline>
</glyph>
<glyph name="sa-ethiopic" format="2">
  <advance width="567"/>
  <unicode hex="1230"/>
  <note>
uni1230
</note>
  <anchor x="295" y="767" name="top"/>
  <outline>
    <contour>
      <point x="206" y="569" type="line"/>
      <point x="369" y="569" type="line"/>
      <point x="369" y="694" type="line" smooth="yes"/>
      <point x="369" y="726"/>
      <point x="359" y="755"/>
      <point x="346" y="767" type="curve"/>
      <point x="169" y="753" type="line"/>
      <point x="169" y="699" type="line"/>
      <point x="192" y="699"/>
      <point x="206" y="679"/>
      <point x="206" y="638" type="curve" smooth="yes"/>
    </contour>
    <component base="shortnarch"/>
  </outline>
</glyph>
<glyph name="si-ethiopic" format="2">
  <advance width="731"/>
  <unicode hex="1232"/>
  <note>
uni1232
</note>
  <anchor x="381" y="767" name="top"/>
  <outline>
    <contour>
      <point x="51" y="-7" type="curve"/>
      <point x="272" y="8" type="line"/>
      <point x="272" y="64" type="line"/>
      <point x="239" y="64"/>
      <point x="225" y="79"/>
      <point x="225" y="138" type="curve" smooth="yes"/>
      <point x="225" y="312" type="line" smooth="yes"/>
      <point x="225" y="496"/>
      <point x="248" y="545"/>
      <point x="286" y="545" type="curve" smooth="yes"/>
      <point x="311" y="545"/>
      <point x="322" y="526"/>
      <point x="322" y="448" type="curve" smooth="yes"/>
      <point x="322" y="345"/>
      <point x="318" y="180"/>
      <point x="318" y="91" type="curve" smooth="yes"/>
      <point x="318" y="50"/>
      <point x="321" y="20"/>
      <point x="329" y="0" type="curve"/>
      <point x="549" y="0" type="line"/>
      <point x="549" y="64" type="line"/>
      <point x="517" y="64"/>
      <point x="502" y="78"/>
      <point x="502" y="138" type="curve" smooth="yes"/>
      <point x="502" y="211"/>
      <point x="507" y="307"/>
      <point x="507" y="377" type="curve" smooth="yes"/>
      <point x="507" y="527"/>
      <point x="463" y="612"/>
      <point x="307" y="612" type="curve" smooth="yes"/>
      <point x="125" y="612"/>
      <point x="41" y="481"/>
      <point x="41" y="300" type="curve" smooth="yes"/>
      <point x="41" y="91" type="line" smooth="yes"/>
      <point x="41" y="49"/>
      <point x="43" y="13"/>
    </contour>
    <contour>
      <point x="206" y="569" type="line"/>
      <point x="369" y="569" type="line"/>
      <point x="369" y="694" type="line" smooth="yes"/>
      <point x="369" y="726"/>
      <point x="359" y="755"/>
      <point x="346" y="767" type="curve"/>
      <point x="169" y="753" type="line"/>
      <point x="169" y="699" type="line"/>
      <point x="192" y="699"/>
      <point x="206" y="679"/>
      <point x="206" y="638" type="curve" smooth="yes"/>
    </contour>
    <component base="rightdoubleflag" xOffset="496"/>
  </outline>
</glyph>
<glyph name="saa-ethiopic" format="2">
	<advance width="556"/>
	<unicode hex="1233"/>
	<anchor x="284" y="767" name="top"/>
	<note>
		uni1233
	</note>
	<outline>
		<contour>
			<point x="191" y="569" type="line"/>
			<point x="354" y="569" type="line"/>
			<point x="354" y="694" type="line" smooth="yes"/>
			<point x="354" y="726"/>
			<point x="344" y="755"/>
			<point x="331" y="767" type="curve"/>
			<point x="154" y="753" type="line"/>
			<point x="154" y="699" type="line"/>
			<point x="177" y="699"/>
			<point x="191" y="679"/>
			<point x="191" y="638" type="curve" smooth="yes"/>
		</contour>
		<component base="baashort"/>
	</outline>
</glyph>
<glyph name="see-ethiopic" format="2">
  <advance width="743"/>
  <unicode hex="1234"/>
  <note>
uni1234
</note>
  <anchor x="387" y="767" name="top"/>
  <outline>
    <contour>
      <point x="51" y="-7" type="curve"/>
      <point x="272" y="8" type="line"/>
      <point x="272" y="64" type="line"/>
      <point x="239" y="64"/>
      <point x="225" y="78"/>
      <point x="225" y="137" type="curve" smooth="yes"/>
      <point x="225" y="337" type="line" smooth="yes"/>
      <point x="225" y="492"/>
      <point x="249" y="545"/>
      <point x="286" y="545" type="curve" smooth="yes"/>
      <point x="309" y="545"/>
      <point x="322" y="522"/>
      <point x="322" y="463" type="curve" smooth="yes"/>
      <point x="322" y="383"/>
      <point x="320" y="213"/>
      <point x="320" y="123" type="curve" smooth="yes"/>
      <point x="320" y="47"/>
      <point x="348" y="16"/>
      <point x="398" y="0" type="curve"/>
      <point x="575" y="0" type="line" smooth="yes"/>
      <point x="684" y="0"/>
      <point x="733" y="66"/>
      <point x="733" y="150" type="curve" smooth="yes"/>
      <point x="733" y="233"/>
      <point x="688" y="269"/>
      <point x="591" y="269" type="curve" smooth="yes"/>
      <point x="505" y="269" type="line"/>
      <point x="505" y="297"/>
      <point x="507" y="347"/>
      <point x="507" y="377" type="curve" smooth="yes"/>
      <point x="507" y="507"/>
      <point x="473" y="583"/>
      <point x="375" y="605" type="curve"/>
      <point x="375" y="694" type="line" smooth="yes"/>
      <point x="375" y="726"/>
      <point x="366" y="755"/>
      <point x="352" y="767" type="curve"/>
      <point x="175" y="753" type="line"/>
      <point x="175" y="699" type="line"/>
      <point x="198" y="699"/>
      <point x="212" y="679"/>
      <point x="212" y="638" type="curve" smooth="yes"/>
      <point x="212" y="598" type="line"/>
      <point x="96" y="560"/>
      <point x="41" y="447"/>
      <point x="41" y="300" type="curve" smooth="yes"/>
      <point x="41" y="91" type="line" smooth="yes"/>
      <point x="41" y="49"/>
      <point x="43" y="13"/>
    </contour>
    <contour>
      <point x="531" y="62" type="curve" smooth="yes"/>
      <point x="511" y="62"/>
      <point x="505" y="74"/>
      <point x="505" y="108" type="curve" smooth="yes"/>
      <point x="505" y="207" type="line"/>
      <point x="521" y="207" type="line" smooth="yes"/>
      <point x="564" y="207"/>
      <point x="571" y="182"/>
      <point x="571" y="143" type="curve" smooth="yes"/>
      <point x="571" y="97"/>
      <point x="554" y="62"/>
    </contour>
  </outline>
</glyph>
<glyph name="se-ethiopic" format="2">
  <advance width="567"/>
  <unicode hex="1235"/>
  <note>
uni1235
</note>
  <anchor x="295" y="764" name="top"/>
  <outline>
    <contour>
      <point x="210" y="569" type="line"/>
      <point x="370" y="569" type="line"/>
      <point x="342" y="646" type="line" smooth="yes"/>
      <point x="338" y="656"/>
      <point x="336" y="666"/>
      <point x="336" y="675" type="curve" smooth="yes"/>
      <point x="336" y="695"/>
      <point x="347" y="709"/>
      <point x="366" y="710" type="curve"/>
      <point x="366" y="764" type="line"/>
      <point x="179" y="758" type="line"/>
      <point x="170" y="748"/>
      <point x="166" y="730"/>
      <point x="166" y="710" type="curve" smooth="yes"/>
      <point x="166" y="695"/>
      <point x="169" y="678"/>
      <point x="175" y="661" type="curve" smooth="yes"/>
    </contour>
    <component base="shortnarch"/>
  </outline>
</glyph>
<glyph name="so-ethiopic" format="2">
  <advance width="554"/>
  <unicode hex="1236"/>
  <note>
uni1236
</note>
  <anchor x="296" y="767" name="top"/>
  <outline>
    <contour>
      <point x="203" y="569" type="line"/>
      <point x="366" y="569" type="line"/>
      <point x="366" y="694" type="line" smooth="yes"/>
      <point x="366" y="726"/>
      <point x="356" y="755"/>
      <point x="343" y="767" type="curve"/>
      <point x="166" y="753" type="line"/>
      <point x="166" y="699" type="line"/>
      <point x="189" y="699"/>
      <point x="203" y="679"/>
      <point x="203" y="638" type="curve" smooth="yes"/>
    </contour>
    <component base="boshort"/>
  </outline>
</glyph>
<glyph name="swa-ethiopic" format="2">
  <advance width="643"/>
  <unicode hex="1237"/>
  <note>
uni1237
</note>
  <anchor x="321" y="767" name="top"/>
  <outline>
    <contour>
      <point x="315" y="4" type="curve"/>
      <point x="535" y="7" type="line"/>
      <point x="535" y="64" type="line"/>
      <point x="503" y="64"/>
      <point x="488" y="78"/>
      <point x="488" y="138" type="curve" smooth="yes"/>
      <point x="488" y="211"/>
      <point x="493" y="307"/>
      <point x="493" y="379" type="curve" smooth="yes"/>
      <point x="493" y="527"/>
      <point x="449" y="612"/>
      <point x="294" y="612" type="curve" smooth="yes"/>
      <point x="118" y="612"/>
      <point x="27" y="500"/>
      <point x="27" y="346" type="curve" smooth="yes"/>
      <point x="27" y="319" type="line" smooth="yes"/>
      <point x="27" y="280"/>
      <point x="29" y="252"/>
      <point x="37" y="232" type="curve"/>
      <point x="258" y="246" type="line"/>
      <point x="258" y="304" type="line"/>
      <point x="225" y="304"/>
      <point x="211" y="318"/>
      <point x="211" y="350" type="curve" smooth="yes"/>
      <point x="211" y="394" type="line" smooth="yes"/>
      <point x="211" y="508"/>
      <point x="233" y="545"/>
      <point x="270" y="545" type="curve" smooth="yes"/>
      <point x="295" y="545"/>
      <point x="308" y="525"/>
      <point x="308" y="444" type="curve" smooth="yes"/>
      <point x="308" y="340"/>
      <point x="304" y="180"/>
      <point x="304" y="92" type="curve" smooth="yes"/>
      <point x="304" y="44"/>
      <point x="307" y="24"/>
    </contour>
    <contour>
      <point x="198" y="569" type="line"/>
      <point x="361" y="569" type="line"/>
      <point x="361" y="694" type="line" smooth="yes"/>
      <point x="361" y="726"/>
      <point x="351" y="755"/>
      <point x="338" y="767" type="curve"/>
      <point x="161" y="753" type="line"/>
      <point x="161" y="699" type="line"/>
      <point x="184" y="699"/>
      <point x="198" y="679"/>
      <point x="198" y="638" type="curve" smooth="yes"/>
    </contour>
    <component base="footlong"/>
  </outline>
</glyph>
<glyph name="sha-ethiopic" format="2">
	<advance width="607"/>
	<unicode hex="1238"/>
	<anchor x="305" y="845" name="top"/>
	<note>
		uni1238
	</note>
	<outline>
		<contour>
			<point x="227" y="569" type="line"/>
			<point x="382" y="569" type="line"/>
			<point x="382" y="733" type="line"/>
			<point x="227" y="733" type="line"/>
		</contour>
		<component base="shortnarch" xOffset="18"/>
		<component base="bonemiddle" xOffset="30" yOffset="12"/>
	</outline>
</glyph>
<glyph name="shi-ethiopic" format="2">
  <advance width="755"/>
  <unicode hex="123A"/>
  <note>
uni123A
</note>
  <anchor x="392" y="845" name="top"/>
  <outline>
    <contour>
      <point x="69" y="-7" type="curve"/>
      <point x="290" y="8" type="line"/>
      <point x="290" y="64" type="line"/>
      <point x="257" y="64"/>
      <point x="243" y="78"/>
      <point x="243" y="137" type="curve" smooth="yes"/>
      <point x="243" y="312" type="line" smooth="yes"/>
      <point x="243" y="496"/>
      <point x="266" y="545"/>
      <point x="304" y="545" type="curve" smooth="yes"/>
      <point x="329" y="545"/>
      <point x="340" y="526"/>
      <point x="340" y="448" type="curve" smooth="yes"/>
      <point x="340" y="345"/>
      <point x="336" y="180"/>
      <point x="336" y="91" type="curve" smooth="yes"/>
      <point x="336" y="50"/>
      <point x="339" y="20"/>
      <point x="347" y="0" type="curve"/>
      <point x="567" y="0" type="line"/>
      <point x="567" y="64" type="line"/>
      <point x="535" y="64"/>
      <point x="520" y="78"/>
      <point x="520" y="138" type="curve" smooth="yes"/>
      <point x="520" y="211"/>
      <point x="525" y="307"/>
      <point x="525" y="377" type="curve" smooth="yes"/>
      <point x="525" y="527"/>
      <point x="481" y="612"/>
      <point x="325" y="612" type="curve" smooth="yes"/>
      <point x="143" y="612"/>
      <point x="59" y="481"/>
      <point x="59" y="300" type="curve" smooth="yes"/>
      <point x="59" y="91" type="line" smooth="yes"/>
      <point x="59" y="49"/>
      <point x="61" y="13"/>
    </contour>
    <contour>
      <point x="697" y="-84" type="curve" smooth="yes"/>
      <point x="716" y="-84"/>
      <point x="734" y="-80"/>
      <point x="745" y="-72" type="curve"/>
      <point x="727" y="-50"/>
      <point x="715" y="-12"/>
      <point x="715" y="32" type="curve" smooth="yes"/>
      <point x="715" y="76"/>
      <point x="728" y="113"/>
      <point x="745" y="136" type="curve"/>
      <point x="734" y="143"/>
      <point x="716" y="148"/>
      <point x="697" y="148" type="curve" smooth="yes"/>
      <point x="639" y="148"/>
      <point x="611" y="108"/>
      <point x="600" y="64" type="curve"/>
      <point x="510" y="64" type="line"/>
      <point x="510" y="0" type="line"/>
      <point x="600" y="0" type="line"/>
      <point x="611" y="-44"/>
      <point x="639" y="-84"/>
    </contour>
    <contour>
      <point x="227" y="569" type="line"/>
      <point x="382" y="569" type="line"/>
      <point x="382" y="733" type="line"/>
      <point x="227" y="733" type="line"/>
    </contour>
    <component base="bonemiddle" xOffset="30" yOffset="12"/>
  </outline>
</glyph>
<glyph name="shaa-ethiopic" format="2">
	<advance width="606"/>
	<unicode hex="123B"/>
	<anchor x="300" y="845" name="top"/>
	<note>
		uni123B
	</note>
	<outline>
		<contour>
			<point x="219" y="569" type="line"/>
			<point x="374" y="569" type="line"/>
			<point x="374" y="733" type="line"/>
			<point x="219" y="733" type="line"/>
		</contour>
		<component base="bonemiddle" xOffset="20" yOffset="12"/>
		<component base="baashort" xOffset="32"/>
	</outline>
</glyph>
<glyph name="shee-ethiopic" format="2">
  <advance width="742"/>
  <unicode hex="123C"/>
  <note>
uni123C
</note>
  <anchor x="386" y="845" name="top"/>
  <outline>
    <contour>
      <point x="63" y="-7" type="curve"/>
      <point x="284" y="8" type="line"/>
      <point x="284" y="64" type="line"/>
      <point x="251" y="64"/>
      <point x="237" y="78"/>
      <point x="237" y="137" type="curve" smooth="yes"/>
      <point x="237" y="312" type="line" smooth="yes"/>
      <point x="237" y="496"/>
      <point x="260" y="545"/>
      <point x="298" y="545" type="curve" smooth="yes"/>
      <point x="323" y="545"/>
      <point x="334" y="526"/>
      <point x="334" y="448" type="curve" smooth="yes"/>
      <point x="334" y="383"/>
      <point x="332" y="304"/>
      <point x="332" y="255" type="curve"/>
      <point x="504" y="243" type="line"/>
      <point x="504" y="279"/>
      <point x="505" y="336"/>
      <point x="505" y="377" type="curve" smooth="yes"/>
      <point x="505" y="527"/>
      <point x="475" y="612"/>
      <point x="319" y="612" type="curve" smooth="yes"/>
      <point x="137" y="612"/>
      <point x="53" y="481"/>
      <point x="53" y="300" type="curve" smooth="yes"/>
      <point x="53" y="91" type="line" smooth="yes"/>
      <point x="53" y="49"/>
      <point x="55" y="13"/>
    </contour>
    <contour>
      <point x="229" y="569" type="line"/>
      <point x="384" y="569" type="line"/>
      <point x="384" y="733" type="line"/>
      <point x="229" y="733" type="line"/>
    </contour>
    <component base="bonemiddle" xOffset="30" yOffset="12"/>
    <component base="baselinebowl" xOffset="317"/>
  </outline>
</glyph>
<glyph name="sho-ethiopic" format="2">
  <advance width="607"/>
  <unicode hex="123E"/>
  <note>
uni123E
</note>
  <anchor x="305" y="845" name="top"/>
  <outline>
    <contour>
      <point x="228" y="569" type="line"/>
      <point x="383" y="569" type="line"/>
      <point x="383" y="733" type="line"/>
      <point x="228" y="733" type="line"/>
    </contour>
    <component base="boshort" xOffset="19"/>
    <component base="bonemiddle" xOffset="30" yOffset="12"/>
  </outline>
</glyph>
<glyph name="shwa-ethiopic" format="2">
  <advance width="643"/>
  <unicode hex="123F"/>
  <note>
uni123F
</note>
  <anchor x="321" y="845" name="top"/>
  <outline>
    <contour>
      <point x="333" y="3" type="curve"/>
      <point x="553" y="7" type="line"/>
      <point x="553" y="64" type="line"/>
      <point x="521" y="64"/>
      <point x="506" y="78"/>
      <point x="506" y="138" type="curve" smooth="yes"/>
      <point x="506" y="211"/>
      <point x="511" y="307"/>
      <point x="511" y="379" type="curve" smooth="yes"/>
      <point x="511" y="527"/>
      <point x="467" y="612"/>
      <point x="312" y="612" type="curve" smooth="yes"/>
      <point x="136" y="612"/>
      <point x="45" y="500"/>
      <point x="45" y="346" type="curve" smooth="yes"/>
      <point x="45" y="319" type="line" smooth="yes"/>
      <point x="45" y="280"/>
      <point x="47" y="252"/>
      <point x="55" y="232" type="curve"/>
      <point x="276" y="246" type="line"/>
      <point x="276" y="304" type="line"/>
      <point x="243" y="304"/>
      <point x="229" y="318"/>
      <point x="229" y="350" type="curve" smooth="yes"/>
      <point x="229" y="394" type="line" smooth="yes"/>
      <point x="229" y="508"/>
      <point x="251" y="545"/>
      <point x="288" y="545" type="curve" smooth="yes"/>
      <point x="313" y="545"/>
      <point x="326" y="525"/>
      <point x="326" y="444" type="curve" smooth="yes"/>
      <point x="326" y="340"/>
      <point x="322" y="180"/>
      <point x="322" y="92" type="curve" smooth="yes"/>
      <point x="322" y="44"/>
      <point x="325" y="23"/>
    </contour>
    <contour>
      <point x="215" y="569" type="line"/>
      <point x="370" y="569" type="line"/>
      <point x="370" y="733" type="line"/>
      <point x="215" y="733" type="line"/>
    </contour>
    <component base="footlong"/>
    <component base="bonemiddle" xOffset="15" yOffset="12"/>
  </outline>
</glyph>
<glyph name="qi-ethiopic" format="2">
	<advance width="633"/>
	<unicode hex="1242"/>
	<anchor x="316" y="720" name="top"/>
	<note>
		uni1242
	</note>
	<outline>
		<contour>
			<point x="237" y="0" type="curve"/>
			<point x="458" y="0" type="line"/>
			<point x="458" y="64" type="line"/>
			<point x="425" y="64"/>
			<point x="410" y="78"/>
			<point x="410" y="137" type="curve" smooth="yes"/>
			<point x="410" y="649" type="line" smooth="yes"/>
			<point x="410" y="680"/>
			<point x="402" y="709"/>
			<point x="388" y="720" type="curve"/>
			<point x="189" y="707" type="line"/>
			<point x="189" y="652" type="line"/>
			<point x="212" y="652"/>
			<point x="226" y="632"/>
			<point x="226" y="593" type="curve" smooth="yes"/>
			<point x="226" y="98" type="line" smooth="yes"/>
			<point x="226" y="50"/>
			<point x="229" y="20"/>
		</contour>
		<component base="rightdoubleflag" xOffset="397"/>
		<component base="midring" yOffset="22"/>
	</outline>
</glyph>
<glyph name="qee-ethiopic" format="2">
  <advance width="635"/>
  <unicode hex="1244"/>
  <note>
uni1244
</note>
  <anchor x="317" y="720" name="top"/>
  <outline>
    <contour>
      <point x="333" y="0" type="curve" smooth="yes"/>
      <point x="471" y="0" type="line" smooth="yes"/>
      <point x="575" y="0"/>
      <point x="620" y="58"/>
      <point x="620" y="132" type="curve" smooth="yes"/>
      <point x="620" y="202"/>
      <point x="579" y="234"/>
      <point x="486" y="234" type="curve" smooth="yes"/>
      <point x="408" y="234" type="line"/>
      <point x="408" y="649" type="line" smooth="yes"/>
      <point x="408" y="680"/>
      <point x="399" y="709"/>
      <point x="385" y="720" type="curve"/>
      <point x="187" y="707" type="line"/>
      <point x="187" y="652" type="line"/>
      <point x="210" y="652"/>
      <point x="224" y="632"/>
      <point x="224" y="593" type="curve" smooth="yes"/>
      <point x="224" y="115" type="line" smooth="yes"/>
      <point x="224" y="46"/>
      <point x="261" y="0"/>
    </contour>
    <contour>
      <point x="429" y="56" type="curve" smooth="yes"/>
      <point x="413" y="56"/>
      <point x="408" y="71"/>
      <point x="408" y="106" type="curve" smooth="yes"/>
      <point x="408" y="176" type="line"/>
      <point x="421" y="176" type="line" smooth="yes"/>
      <point x="455" y="176"/>
      <point x="462" y="155"/>
      <point x="462" y="123" type="curve" smooth="yes"/>
      <point x="462" y="84"/>
      <point x="448" y="56"/>
    </contour>
    <component base="midringshort" yOffset="53"/>
  </outline>
</glyph>
<glyph name="qe-ethiopic" format="2">
  <advance width="633"/>
  <unicode hex="1245"/>
  <note>
uni1245
</note>
  <anchor x="316" y="839" name="top"/>
  <outline>
    <contour>
      <point x="248" y="-7" type="curve"/>
      <point x="448" y="8" type="line"/>
      <point x="448" y="64" type="line"/>
      <point x="423" y="64"/>
      <point x="409" y="77"/>
      <point x="409" y="131" type="curve" smooth="yes"/>
      <point x="409" y="647" type="line" smooth="yes"/>
      <point x="409" y="674"/>
      <point x="406" y="701"/>
      <point x="386" y="714" type="curve"/>
      <point x="147" y="714" type="line"/>
      <point x="148" y="720"/>
      <point x="149" y="726"/>
      <point x="149" y="739" type="curve" smooth="yes"/>
      <point x="149" y="802"/>
      <point x="112" y="839"/>
      <point x="56" y="839" type="curve" smooth="yes"/>
      <point x="39" y="839"/>
      <point x="25" y="835"/>
      <point x="16" y="829" type="curve"/>
      <point x="31" y="794"/>
      <point x="34" y="763"/>
      <point x="34" y="724" type="curve" smooth="yes"/>
      <point x="34" y="698"/>
      <point x="30" y="672"/>
      <point x="23" y="650" type="curve"/>
      <point x="188" y="650" type="line" smooth="yes"/>
      <point x="215" y="650"/>
      <point x="225" y="632"/>
      <point x="225" y="593" type="curve" smooth="yes"/>
      <point x="225" y="71" type="line" smooth="yes"/>
      <point x="225" y="33"/>
      <point x="233" y="10"/>
    </contour>
    <component base="midring" yOffset="2"/>
  </outline>
</glyph>
<glyph name="qoa-ethiopic" format="2">
  <advance width="635"/>
  <unicode hex="1247"/>
  <note>
uni1247
</note>
  <anchor x="317" y="770" name="top"/>
  <outline>
    <contour>
      <point x="75" y="-84" type="curve" smooth="yes"/>
      <point x="133" y="-84"/>
      <point x="161" y="-44"/>
      <point x="172" y="0" type="curve"/>
      <point x="383" y="0" type="line"/>
      <point x="397" y="11"/>
      <point x="406" y="40"/>
      <point x="406" y="71" type="curve" smooth="yes"/>
      <point x="406" y="480" type="line" smooth="yes"/>
      <point x="406" y="506"/>
      <point x="408" y="516"/>
      <point x="425" y="525" type="curve" smooth="yes"/>
      <point x="471" y="549"/>
      <point x="510" y="582"/>
      <point x="510" y="646" type="curve" smooth="yes"/>
      <point x="510" y="718"/>
      <point x="457" y="770"/>
      <point x="318" y="770" type="curve" smooth="yes"/>
      <point x="184" y="770"/>
      <point x="126" y="717"/>
      <point x="126" y="638" type="curve" smooth="yes"/>
      <point x="126" y="566"/>
      <point x="180" y="532"/>
      <point x="240" y="520" type="curve"/>
      <point x="235" y="509"/>
      <point x="226" y="495"/>
      <point x="226" y="471" type="curve"/>
      <point x="226" y="121" type="line" smooth="yes"/>
      <point x="226" y="82"/>
      <point x="217" y="64"/>
      <point x="200" y="64" type="curve" smooth="yes"/>
      <point x="172" y="64" type="line"/>
      <point x="161" y="108"/>
      <point x="133" y="148"/>
      <point x="75" y="148" type="curve" smooth="yes"/>
      <point x="56" y="148"/>
      <point x="38" y="143"/>
      <point x="27" y="136" type="curve"/>
      <point x="44" y="113"/>
      <point x="57" y="76"/>
      <point x="57" y="32" type="curve" smooth="yes"/>
      <point x="57" y="-12"/>
      <point x="45" y="-50"/>
      <point x="27" y="-72" type="curve"/>
      <point x="38" y="-80"/>
      <point x="56" y="-84"/>
    </contour>
    <contour>
      <point x="313" y="558" type="curve"/>
      <point x="293" y="568"/>
      <point x="272" y="586"/>
      <point x="272" y="639" type="curve" smooth="yes"/>
      <point x="272" y="690"/>
      <point x="286" y="717"/>
      <point x="318" y="717" type="curve" smooth="yes"/>
      <point x="346" y="717"/>
      <point x="362" y="691"/>
      <point x="362" y="646" type="curve" smooth="yes"/>
      <point x="362" y="594"/>
      <point x="336" y="572"/>
    </contour>
    <component base="midringshort" yOffset="-60"/>
  </outline>
</glyph>
<glyph name="qwaa-ethiopic" format="2">
  <advance width="633"/>
  <unicode hex="124B"/>
  <note>
uni124B
</note>
  <anchor x="316" y="719" name="top"/>
  <outline>
    <contour>
      <point x="225" y="161" type="line"/>
      <point x="409" y="161" type="line"/>
      <point x="409" y="660" type="line" smooth="yes"/>
      <point x="409" y="686"/>
      <point x="400" y="709"/>
      <point x="386" y="719" type="curve"/>
      <point x="188" y="707" type="line"/>
      <point x="188" y="663" type="line"/>
      <point x="211" y="663"/>
      <point x="225" y="647"/>
      <point x="225" y="615" type="curve" smooth="yes"/>
    </contour>
    <contour>
      <point x="245" y="138" type="line"/>
      <point x="560" y="138" type="line"/>
      <point x="560" y="202" type="line"/>
      <point x="245" y="202" type="line"/>
    </contour>
    <contour>
      <point x="399" y="-7" type="curve"/>
      <point x="599" y="8" type="line"/>
      <point x="599" y="64" type="line"/>
      <point x="574" y="64"/>
      <point x="560" y="77"/>
      <point x="560" y="128" type="curve" smooth="yes"/>
      <point x="560" y="183" type="line"/>
      <point x="376" y="183" type="line"/>
      <point x="376" y="71" type="line" smooth="yes"/>
      <point x="376" y="33"/>
      <point x="384" y="10"/>
    </contour>
    <component base="midring" yOffset="59"/>
    <component base="leftsingleflag" xOffset="21" yOffset="-217"/>
  </outline>
</glyph>
<glyph name="qwee-ethiopic" format="2">
  <advance width="635"/>
  <unicode hex="124C"/>
  <note>
uni1244
</note>
  <anchor x="317" y="720" name="top"/>
  <outline>
    <contour>
      <point x="71" y="-129" type="curve" smooth="yes"/>
      <point x="135" y="-129"/>
      <point x="175" y="-92"/>
      <point x="175" y="-26" type="curve" smooth="yes"/>
      <point x="175" y="-12"/>
      <point x="174" y="-6"/>
      <point x="173" y="0" type="curve"/>
      <point x="389" y="0" type="line"/>
      <point x="289" y="64" type="line"/>
      <point x="34" y="64" type="line"/>
      <point x="41" y="40"/>
      <point x="46" y="14"/>
      <point x="46" y="-11" type="curve" smooth="yes"/>
      <point x="46" y="-51"/>
      <point x="40" y="-82"/>
      <point x="22" y="-120" type="curve"/>
      <point x="34" y="-125"/>
      <point x="51" y="-129"/>
    </contour>
    <component base="qee-ethiopic"/>
  </outline>
</glyph>
<glyph name="qha-ethiopic" format="2">
  <advance width="653"/>
  <unicode hex="1250"/>
  <note>
uni1250
</note>
  <anchor x="326" y="845" name="top"/>
  <outline>
    <contour>
      <point x="258" y="-7" type="curve"/>
      <point x="458" y="8" type="line"/>
      <point x="458" y="64" type="line"/>
      <point x="433" y="64"/>
      <point x="419" y="77"/>
      <point x="419" y="131" type="curve" smooth="yes"/>
      <point x="419" y="731" type="line"/>
      <point x="235" y="731" type="line"/>
      <point x="235" y="71" type="line" smooth="yes"/>
      <point x="235" y="33"/>
      <point x="244" y="10"/>
    </contour>
    <component base="midring" xOffset="10" yOffset="24"/>
    <component base="bonemiddle" xOffset="50" yOffset="12"/>
  </outline>
</glyph>
<glyph name="qhi-ethiopic" format="2">
  <advance width="653"/>
  <unicode hex="1252"/>
  <note>
uni1252
</note>
  <anchor x="326" y="845" name="top"/>
  <outline>
    <contour>
      <point x="247" y="0" type="curve"/>
      <point x="466" y="0" type="line"/>
      <point x="466" y="64" type="line"/>
      <point x="433" y="64"/>
      <point x="419" y="78"/>
      <point x="419" y="137" type="curve"/>
      <point x="419" y="723" type="line"/>
      <point x="235" y="723" type="line"/>
      <point x="235" y="98" type="line" smooth="yes"/>
      <point x="235" y="50"/>
      <point x="239" y="20"/>
    </contour>
    <component base="midring" xOffset="10" yOffset="37"/>
    <component base="bonemiddle" xOffset="51" yOffset="12"/>
    <component base="rightdoubleflag" xOffset="410"/>
  </outline>
</glyph>
<glyph name="qhaa-ethiopic" format="2">
  <advance width="645"/>
  <unicode hex="1253"/>
  <note>
uni1253
</note>
  <anchor x="318" y="845" name="top"/>
  <outline>
    <contour>
      <point x="59" y="-124" type="curve" smooth="yes"/>
      <point x="117" y="-124"/>
      <point x="153" y="-87"/>
      <point x="153" y="-25" type="curve" smooth="yes"/>
      <point x="153" y="-13"/>
      <point x="152" y="-7"/>
      <point x="152" y="-1" type="curve"/>
      <point x="160" y="-1" type="line" smooth="yes"/>
      <point x="315" y="-1"/>
      <point x="400" y="91"/>
      <point x="400" y="236" type="curve" smooth="yes"/>
      <point x="400" y="714" type="line"/>
      <point x="237" y="714" type="line"/>
      <point x="237" y="237" type="line" smooth="yes"/>
      <point x="237" y="116"/>
      <point x="196" y="63"/>
      <point x="121" y="63" type="curve" smooth="yes"/>
      <point x="26" y="63" type="line"/>
      <point x="33" y="40"/>
      <point x="38" y="15"/>
      <point x="38" y="-9" type="curve" smooth="yes"/>
      <point x="38" y="-48"/>
      <point x="34" y="-80"/>
      <point x="17" y="-115" type="curve"/>
      <point x="27" y="-120"/>
      <point x="42" y="-124"/>
    </contour>
    <component base="midring" xOffset="2" yOffset="4"/>
    <component base="bonemiddle" xOffset="43" yOffset="12"/>
  </outline>
</glyph>
<glyph name="qhee-ethiopic" format="2">
  <advance width="647"/>
  <unicode hex="1254"/>
  <note>
uni1254
</note>
  <anchor x="327" y="845" name="top"/>
  <outline>
    <contour>
      <point x="341" y="0" type="curve" smooth="yes"/>
      <point x="479" y="0" type="line" smooth="yes"/>
      <point x="583" y="0"/>
      <point x="629" y="58"/>
      <point x="629" y="132" type="curve" smooth="yes"/>
      <point x="629" y="202"/>
      <point x="587" y="234"/>
      <point x="494" y="234" type="curve" smooth="yes"/>
      <point x="416" y="234" type="line"/>
      <point x="416" y="750" type="line"/>
      <point x="232" y="750" type="line"/>
      <point x="232" y="115" type="line" smooth="yes"/>
      <point x="232" y="46"/>
      <point x="269" y="0"/>
    </contour>
    <contour>
      <point x="437" y="56" type="curve" smooth="yes"/>
      <point x="421" y="56"/>
      <point x="416" y="71"/>
      <point x="416" y="106" type="curve" smooth="yes"/>
      <point x="416" y="176" type="line"/>
      <point x="429" y="176" type="line" smooth="yes"/>
      <point x="463" y="176"/>
      <point x="470" y="155"/>
      <point x="470" y="123" type="curve" smooth="yes"/>
      <point x="470" y="84"/>
      <point x="456" y="56"/>
    </contour>
    <component base="midringshort" xOffset="10" yOffset="52"/>
    <component base="bonemiddle" xOffset="48" yOffset="12"/>
  </outline>
</glyph>
<glyph name="qhe-ethiopic" format="2">
  <advance width="669"/>
  <unicode hex="1255"/>
  <note>
uni1255
</note>
  <anchor x="335" y="844" name="top"/>
  <outline>
    <contour>
      <point x="255" y="-7" type="curve"/>
      <point x="454" y="8" type="line"/>
      <point x="454" y="64" type="line"/>
      <point x="432" y="64"/>
      <point x="417" y="78"/>
      <point x="417" y="118" type="curve" smooth="yes"/>
      <point x="417" y="180"/>
      <point x="466" y="406"/>
      <point x="466" y="467" type="curve" smooth="yes"/>
      <point x="466" y="527"/>
      <point x="436" y="561"/>
      <point x="371" y="561" type="curve" smooth="yes"/>
      <point x="333" y="561" type="line"/>
      <point x="333" y="713" type="line"/>
      <point x="167" y="713" type="line"/>
      <point x="167" y="483" type="line"/>
      <point x="214" y="483" type="line" smooth="yes"/>
      <point x="256" y="483"/>
      <point x="281" y="468"/>
      <point x="281" y="422" type="curve" smooth="yes"/>
      <point x="281" y="367"/>
      <point x="233" y="137"/>
      <point x="233" y="71" type="curve" smooth="yes"/>
      <point x="233" y="33"/>
      <point x="242" y="10"/>
    </contour>
    <component base="midringshort" xOffset="34" yOffset="-108"/>
    <component base="bone" yOffset="13"/>
  </outline>
</glyph>
<glyph name="qho-ethiopic" format="2">
  <advance width="655"/>
  <unicode hex="1256"/>
  <note>
uni1256
</note>
  <anchor x="327" y="844" name="top"/>
  <outline>
    <contour>
      <point x="268" y="-7" type="curve"/>
      <point x="457" y="8" type="line"/>
      <point x="457" y="64" type="line"/>
      <point x="432" y="64"/>
      <point x="417" y="77"/>
      <point x="417" y="131" type="curve" smooth="yes"/>
      <point x="417" y="370" type="line" smooth="yes"/>
      <point x="417" y="396"/>
      <point x="420" y="407"/>
      <point x="436" y="415" type="curve" smooth="yes"/>
      <point x="487" y="441"/>
      <point x="525" y="474"/>
      <point x="525" y="538" type="curve" smooth="yes"/>
      <point x="525" y="610"/>
      <point x="475" y="660"/>
      <point x="328" y="660" type="curve" smooth="yes"/>
      <point x="186" y="660"/>
      <point x="132" y="607"/>
      <point x="132" y="528" type="curve" smooth="yes"/>
      <point x="132" y="456"/>
      <point x="186" y="422"/>
      <point x="251" y="410" type="curve"/>
      <point x="246" y="399"/>
      <point x="237" y="385"/>
      <point x="237" y="361" type="curve" smooth="yes"/>
      <point x="237" y="71" type="line" smooth="yes"/>
      <point x="237" y="33"/>
      <point x="246" y="10"/>
    </contour>
    <contour>
      <point x="325" y="451" type="curve"/>
      <point x="304" y="461"/>
      <point x="282" y="488"/>
      <point x="282" y="532" type="curve" smooth="yes"/>
      <point x="282" y="578"/>
      <point x="296" y="605"/>
      <point x="329" y="605" type="curve" smooth="yes"/>
      <point x="358" y="605"/>
      <point x="375" y="579"/>
      <point x="375" y="539" type="curve" smooth="yes"/>
      <point x="375" y="493"/>
      <point x="348" y="465"/>
    </contour>
    <contour>
      <point x="244" y="645" type="line"/>
      <point x="408" y="645" type="line"/>
      <point x="408" y="726" type="line"/>
      <point x="244" y="726" type="line"/>
    </contour>
    <component base="bonelong" xOffset="21" yOffset="11"/>
    <component base="midringshort" xOffset="10" yOffset="-146"/>
  </outline>
</glyph>
<glyph name="qhwa-ethiopic" format="2">
  <advance width="895"/>
  <unicode hex="1258"/>
  <note>
uni1258
</note>
  <anchor x="451" y="845" name="top"/>
  <outline>
    <contour>
      <point x="259" y="-7" type="curve"/>
      <point x="459" y="8" type="line"/>
      <point x="459" y="64" type="line"/>
      <point x="434" y="64"/>
      <point x="420" y="77"/>
      <point x="420" y="131" type="curve" smooth="yes"/>
      <point x="420" y="723" type="line"/>
      <point x="236" y="723" type="line"/>
      <point x="236" y="71" type="line" smooth="yes"/>
      <point x="236" y="33"/>
      <point x="245" y="10"/>
    </contour>
    <component base="rightbulbsmall" xOffset="424" yOffset="-143"/>
    <component base="midringshort" xOffset="10" yOffset="68"/>
    <component base="bonemiddle" xOffset="52" yOffset="12"/>
  </outline>
</glyph>
<glyph name="qhwaa-ethiopic" format="2">
  <advance width="675"/>
  <unicode hex="125B"/>
  <note>
uni125B
</note>
  <anchor x="337" y="845" name="top"/>
  <outline>
    <contour>
      <point x="245" y="179" type="line"/>
      <point x="429" y="179" type="line"/>
      <point x="429" y="723" type="line"/>
      <point x="245" y="723" type="line"/>
    </contour>
    <contour>
      <point x="229" y="139" type="line"/>
      <point x="586" y="139" type="line"/>
      <point x="586" y="203" type="line"/>
      <point x="229" y="203" type="line"/>
    </contour>
    <contour>
      <point x="466" y="-7" type="curve"/>
      <point x="625" y="8" type="line"/>
      <point x="625" y="64" type="line"/>
      <point x="600" y="64"/>
      <point x="586" y="77"/>
      <point x="586" y="128" type="curve" smooth="yes"/>
      <point x="586" y="190" type="line"/>
      <point x="443" y="190" type="line"/>
      <point x="443" y="71" type="line" smooth="yes"/>
      <point x="443" y="33"/>
      <point x="452" y="10"/>
    </contour>
    <component base="midringshort" xOffset="20" yOffset="45"/>
    <component base="leftsingleflag" xOffset="44" yOffset="-216"/>
    <component base="bonemiddle" xOffset="60" yOffset="12"/>
  </outline>
</glyph>
<glyph name="qhwee-ethiopic" format="2">
  <advance width="681"/>
  <unicode hex="125C"/>
  <note>
uni125C
</note>
  <anchor x="340" y="845" name="top"/>
  <outline>
    <contour>
      <point x="218" y="0" type="line"/>
      <point x="390" y="0" type="line"/>
      <point x="390" y="64" type="line"/>
      <point x="218" y="64" type="line"/>
    </contour>
    <component base="qhee-ethiopic" xOffset="16"/>
    <component base="leftsingleflag" xOffset="18" yOffset="-355"/>
  </outline>
</glyph>
<glyph name="ba-ethiopic" format="2">
  <advance width="578"/>
  <unicode hex="1260"/>
  <note>
uni1260
</note>
  <anchor x="301" y="726" name="top"/>
  <outline>
    <contour>
      <point x="313" y="726" type="curve" smooth="yes"/>
      <point x="126" y="726"/>
      <point x="41" y="611"/>
      <point x="41" y="462" type="curve" smooth="yes"/>
      <point x="41" y="92" type="line" smooth="yes"/>
      <point x="41" y="50"/>
      <point x="44" y="14"/>
      <point x="52" y="-6" type="curve"/>
      <point x="272" y="7" type="line"/>
      <point x="272" y="65" type="line"/>
      <point x="239" y="65"/>
      <point x="225" y="79"/>
      <point x="225" y="138" type="curve" smooth="yes"/>
      <point x="225" y="470" type="line" smooth="yes"/>
      <point x="225" y="593"/>
      <point x="241" y="659"/>
      <point x="293" y="659" type="curve" smooth="yes"/>
      <point x="321" y="659"/>
      <point x="335" y="634"/>
      <point x="335" y="594" type="curve" smooth="yes"/>
      <point x="335" y="453"/>
      <point x="330" y="244"/>
      <point x="330" y="92" type="curve" smooth="yes"/>
      <point x="330" y="44"/>
      <point x="334" y="14"/>
      <point x="342" y="-6" type="curve"/>
      <point x="562" y="7" type="line"/>
      <point x="562" y="65" type="line"/>
      <point x="529" y="65"/>
      <point x="515" y="79"/>
      <point x="515" y="138" type="curve" smooth="yes"/>
      <point x="515" y="274"/>
      <point x="519" y="420"/>
      <point x="519" y="491" type="curve" smooth="yes"/>
      <point x="519" y="641"/>
      <point x="476" y="726"/>
    </contour>
  </outline>
</glyph>
<glyph name="bi-ethiopic" format="2">
  <advance width="736"/>
  <unicode hex="1262"/>
  <note>
uni1262
</note>
  <anchor x="383" y="726" name="top"/>
  <outline>
    <contour>
      <point x="678" y="-84" type="curve" smooth="yes"/>
      <point x="697" y="-84"/>
      <point x="715" y="-80"/>
      <point x="726" y="-72" type="curve"/>
      <point x="708" y="-50"/>
      <point x="696" y="-12"/>
      <point x="696" y="32" type="curve" smooth="yes"/>
      <point x="696" y="76"/>
      <point x="709" y="113"/>
      <point x="726" y="136" type="curve"/>
      <point x="715" y="143"/>
      <point x="697" y="148"/>
      <point x="678" y="148" type="curve" smooth="yes"/>
      <point x="620" y="148"/>
      <point x="592" y="108"/>
      <point x="581" y="64" type="curve"/>
      <point x="562" y="64" type="line" smooth="yes"/>
      <point x="529" y="64"/>
      <point x="515" y="78"/>
      <point x="515" y="138" type="curve" smooth="yes"/>
      <point x="515" y="274"/>
      <point x="519" y="420"/>
      <point x="519" y="491" type="curve" smooth="yes"/>
      <point x="519" y="641"/>
      <point x="476" y="726"/>
      <point x="313" y="726" type="curve" smooth="yes"/>
      <point x="126" y="726"/>
      <point x="41" y="595"/>
      <point x="41" y="462" type="curve" smooth="yes"/>
      <point x="41" y="92" type="line" smooth="yes"/>
      <point x="41" y="50"/>
      <point x="44" y="13"/>
      <point x="52" y="-7" type="curve"/>
      <point x="272" y="8" type="line"/>
      <point x="272" y="64" type="line"/>
      <point x="239" y="64"/>
      <point x="225" y="78"/>
      <point x="225" y="137" type="curve" smooth="yes"/>
      <point x="225" y="470" type="line" smooth="yes"/>
      <point x="225" y="593"/>
      <point x="248" y="659"/>
      <point x="293" y="659" type="curve" smooth="yes"/>
      <point x="321" y="659"/>
      <point x="335" y="634"/>
      <point x="335" y="577" type="curve" smooth="yes"/>
      <point x="335" y="453"/>
      <point x="330" y="244"/>
      <point x="330" y="92" type="curve" smooth="yes"/>
      <point x="330" y="50"/>
      <point x="334" y="20"/>
      <point x="342" y="0" type="curve"/>
      <point x="581" y="0" type="line"/>
      <point x="592" y="-44"/>
      <point x="620" y="-84"/>
    </contour>
  </outline>
</glyph>
<glyph name="baa-ethiopic" format="2">
  <advance width="567"/>
  <unicode hex="1263"/>
  <note>
uni1263
</note>
  <anchor x="290" y="726" name="top"/>
  <outline>
    <contour>
      <point x="331" y="-7" type="curve"/>
      <point x="551" y="8" type="line"/>
      <point x="551" y="64" type="line"/>
      <point x="518" y="64"/>
      <point x="504" y="78"/>
      <point x="504" y="137" type="curve" smooth="yes"/>
      <point x="504" y="273"/>
      <point x="508" y="420"/>
      <point x="508" y="491" type="curve" smooth="yes"/>
      <point x="508" y="641"/>
      <point x="465" y="726"/>
      <point x="302" y="726" type="curve" smooth="yes"/>
      <point x="115" y="726"/>
      <point x="30" y="595"/>
      <point x="30" y="462" type="curve" smooth="yes"/>
      <point x="30" y="336" type="line" smooth="yes"/>
      <point x="30" y="294"/>
      <point x="33" y="258"/>
      <point x="41" y="238" type="curve"/>
      <point x="261" y="251" type="line"/>
      <point x="261" y="309" type="line"/>
      <point x="228" y="309"/>
      <point x="214" y="323"/>
      <point x="214" y="382" type="curve" smooth="yes"/>
      <point x="214" y="470" type="line" smooth="yes"/>
      <point x="214" y="593"/>
      <point x="237" y="659"/>
      <point x="282" y="659" type="curve" smooth="yes"/>
      <point x="310" y="659"/>
      <point x="324" y="634"/>
      <point x="324" y="577" type="curve" smooth="yes"/>
      <point x="324" y="453"/>
      <point x="319" y="244"/>
      <point x="319" y="92" type="curve" smooth="yes"/>
      <point x="319" y="44"/>
      <point x="323" y="13"/>
    </contour>
  </outline>
</glyph>
<glyph name="bee-ethiopic" format="2">
  <advance width="755"/>
  <unicode hex="1264"/>
  <note>
uni1264
</note>
  <anchor x="393" y="726" name="top"/>
  <outline>
    <contour>
      <point x="52" y="-7" type="curve"/>
      <point x="272" y="8" type="line"/>
      <point x="272" y="64" type="line"/>
      <point x="239" y="64"/>
      <point x="225" y="78"/>
      <point x="225" y="137" type="curve" smooth="yes"/>
      <point x="225" y="470" type="line" smooth="yes"/>
      <point x="225" y="593"/>
      <point x="248" y="659"/>
      <point x="293" y="659" type="curve" smooth="yes"/>
      <point x="321" y="659"/>
      <point x="335" y="634"/>
      <point x="335" y="577" type="curve" smooth="yes"/>
      <point x="335" y="469"/>
      <point x="332" y="243"/>
      <point x="332" y="123" type="curve" smooth="yes"/>
      <point x="332" y="47"/>
      <point x="360" y="16"/>
      <point x="410" y="0" type="curve"/>
      <point x="587" y="0" type="line" smooth="yes"/>
      <point x="696" y="0"/>
      <point x="745" y="66"/>
      <point x="745" y="150" type="curve" smooth="yes"/>
      <point x="745" y="233"/>
      <point x="700" y="269"/>
      <point x="603" y="269" type="curve" smooth="yes"/>
      <point x="517" y="269" type="line"/>
      <point x="517" y="327"/>
      <point x="519" y="427"/>
      <point x="519" y="491" type="curve" smooth="yes"/>
      <point x="519" y="641"/>
      <point x="476" y="726"/>
      <point x="313" y="726" type="curve" smooth="yes"/>
      <point x="126" y="726"/>
      <point x="41" y="595"/>
      <point x="41" y="462" type="curve" smooth="yes"/>
      <point x="41" y="92" type="line" smooth="yes"/>
      <point x="41" y="50"/>
      <point x="44" y="13"/>
    </contour>
    <contour>
      <point x="543" y="62" type="curve" smooth="yes"/>
      <point x="523" y="62"/>
      <point x="517" y="74"/>
      <point x="517" y="108" type="curve" smooth="yes"/>
      <point x="517" y="207" type="line"/>
      <point x="533" y="207" type="line" smooth="yes"/>
      <point x="576" y="207"/>
      <point x="583" y="182"/>
      <point x="583" y="143" type="curve" smooth="yes"/>
      <point x="583" y="97"/>
      <point x="566" y="62"/>
    </contour>
  </outline>
</glyph>
<glyph name="bo-ethiopic" format="2">
  <advance width="576"/>
  <unicode hex="1266"/>
  <note>
uni1266
</note>
  <anchor x="302" y="726" name="top"/>
  <outline>
    <contour>
      <point x="52" y="-7" type="curve"/>
      <point x="272" y="8" type="line"/>
      <point x="272" y="64" type="line"/>
      <point x="239" y="64"/>
      <point x="225" y="78"/>
      <point x="225" y="137" type="curve" smooth="yes"/>
      <point x="225" y="470" type="line" smooth="yes"/>
      <point x="225" y="593"/>
      <point x="248" y="659"/>
      <point x="293" y="659" type="curve" smooth="yes"/>
      <point x="321" y="659"/>
      <point x="335" y="634"/>
      <point x="335" y="577" type="curve" smooth="yes"/>
      <point x="335" y="473"/>
      <point x="332" y="412"/>
      <point x="332" y="330" type="curve" smooth="yes"/>
      <point x="332" y="282"/>
      <point x="336" y="252"/>
      <point x="344" y="232" type="curve"/>
      <point x="564" y="245" type="line"/>
      <point x="564" y="303" type="line"/>
      <point x="531" y="303"/>
      <point x="517" y="317"/>
      <point x="517" y="376" type="curve" smooth="yes"/>
      <point x="517" y="403"/>
      <point x="519" y="460"/>
      <point x="519" y="491" type="curve" smooth="yes"/>
      <point x="519" y="641"/>
      <point x="476" y="726"/>
      <point x="313" y="726" type="curve" smooth="yes"/>
      <point x="126" y="726"/>
      <point x="41" y="595"/>
      <point x="41" y="462" type="curve" smooth="yes"/>
      <point x="41" y="92" type="line" smooth="yes"/>
      <point x="41" y="50"/>
      <point x="44" y="13"/>
    </contour>
  </outline>
</glyph>
<glyph name="bwa-ethiopic" format="2">
  <advance width="663"/>
  <unicode hex="1267"/>
  <note>
uni1267
</note>
  <anchor x="341" y="726" name="top"/>
  <outline>
    <contour>
      <point x="334" y="35" type="line"/>
      <point x="518" y="35" type="line"/>
      <point x="518" y="491" type="line" smooth="yes"/>
      <point x="518" y="641"/>
      <point x="475" y="726"/>
      <point x="312" y="726" type="curve" smooth="yes"/>
      <point x="125" y="726"/>
      <point x="40" y="595"/>
      <point x="40" y="462" type="curve" smooth="yes"/>
      <point x="40" y="336" type="line" smooth="yes"/>
      <point x="40" y="294"/>
      <point x="43" y="258"/>
      <point x="51" y="238" type="curve"/>
      <point x="271" y="251" type="line"/>
      <point x="271" y="309" type="line"/>
      <point x="238" y="309"/>
      <point x="224" y="323"/>
      <point x="224" y="382" type="curve" smooth="yes"/>
      <point x="224" y="470" type="line" smooth="yes"/>
      <point x="224" y="593"/>
      <point x="247" y="659"/>
      <point x="292" y="659" type="curve" smooth="yes"/>
      <point x="320" y="659"/>
      <point x="334" y="634"/>
      <point x="334" y="577" type="curve" smooth="yes"/>
    </contour>
    <component base="footlong" xOffset="20"/>
  </outline>
</glyph>
<glyph name="vee-ethiopic" format="2">
  <advance width="743"/>
  <unicode hex="126C"/>
  <note>
uni126C
</note>
  <anchor x="387" y="844" name="top"/>
  <outline>
    <contour>
      <point x="51" y="-7" type="curve"/>
      <point x="272" y="8" type="line"/>
      <point x="272" y="64" type="line"/>
      <point x="239" y="64"/>
      <point x="225" y="78"/>
      <point x="225" y="137" type="curve" smooth="yes"/>
      <point x="225" y="297" type="line" smooth="yes"/>
      <point x="225" y="509"/>
      <point x="252" y="545"/>
      <point x="287" y="545" type="curve" smooth="yes"/>
      <point x="308" y="545"/>
      <point x="322" y="530"/>
      <point x="322" y="443" type="curve" smooth="yes"/>
      <point x="322" y="373"/>
      <point x="320" y="213"/>
      <point x="320" y="123" type="curve" smooth="yes"/>
      <point x="320" y="47"/>
      <point x="348" y="16"/>
      <point x="398" y="0" type="curve"/>
      <point x="575" y="0" type="line" smooth="yes"/>
      <point x="684" y="0"/>
      <point x="733" y="66"/>
      <point x="733" y="150" type="curve" smooth="yes"/>
      <point x="733" y="233"/>
      <point x="688" y="269"/>
      <point x="591" y="269" type="curve" smooth="yes"/>
      <point x="505" y="269" type="line"/>
      <point x="505" y="297"/>
      <point x="507" y="347"/>
      <point x="507" y="377" type="curve" smooth="yes"/>
      <point x="507" y="527"/>
      <point x="463" y="612"/>
      <point x="307" y="612" type="curve" smooth="yes"/>
      <point x="125" y="612"/>
      <point x="41" y="481"/>
      <point x="41" y="300" type="curve" smooth="yes"/>
      <point x="41" y="91" type="line" smooth="yes"/>
      <point x="41" y="49"/>
      <point x="43" y="13"/>
    </contour>
    <contour>
      <point x="531" y="62" type="curve" smooth="yes"/>
      <point x="511" y="62"/>
      <point x="505" y="74"/>
      <point x="505" y="108" type="curve" smooth="yes"/>
      <point x="505" y="207" type="line"/>
      <point x="521" y="207" type="line" smooth="yes"/>
      <point x="564" y="207"/>
      <point x="571" y="182"/>
      <point x="571" y="143" type="curve" smooth="yes"/>
      <point x="571" y="97"/>
      <point x="554" y="62"/>
    </contour>
    <component base="bone" xOffset="55" yOffset="13"/>
  </outline>
</glyph>
<glyph name="vwa-ethiopic" format="2">
  <advance width="643"/>
  <unicode hex="126F"/>
  <note>
uni126F
</note>
  <anchor x="321" y="845" name="top"/>
  <outline>
    <contour>
      <point x="322" y="31" type="curve"/>
      <point x="506" y="31" type="line"/>
      <point x="506" y="117"/>
      <point x="511" y="307"/>
      <point x="511" y="379" type="curve" smooth="yes"/>
      <point x="511" y="527"/>
      <point x="467" y="612"/>
      <point x="312" y="612" type="curve" smooth="yes"/>
      <point x="136" y="612"/>
      <point x="45" y="494"/>
      <point x="45" y="346" type="curve" smooth="yes"/>
      <point x="45" y="319" type="line" smooth="yes"/>
      <point x="45" y="280"/>
      <point x="47" y="252"/>
      <point x="55" y="232" type="curve"/>
      <point x="276" y="246" type="line"/>
      <point x="276" y="304" type="line"/>
      <point x="243" y="304"/>
      <point x="229" y="318"/>
      <point x="229" y="350" type="curve" smooth="yes"/>
      <point x="229" y="374" type="line" smooth="yes"/>
      <point x="229" y="503"/>
      <point x="252" y="545"/>
      <point x="289" y="545" type="curve" smooth="yes"/>
      <point x="315" y="545"/>
      <point x="326" y="521"/>
      <point x="326" y="446" type="curve" smooth="yes"/>
      <point x="326" y="323"/>
      <point x="322" y="107"/>
    </contour>
    <component base="footlong"/>
    <component base="bonemiddle" xOffset="29" yOffset="12"/>
  </outline>
</glyph>
<glyph name="ti-ethiopic" format="2">
  <advance width="581"/>
  <unicode hex="1272"/>
  <note>
uni1272
</note>
  <anchor x="285" y="720" name="top"/>
  <outline>
    <contour>
      <point x="522" y="-84" type="curve" smooth="yes"/>
      <point x="541" y="-84"/>
      <point x="559" y="-80"/>
      <point x="570" y="-72" type="curve"/>
      <point x="552" y="-50"/>
      <point x="540" y="-12"/>
      <point x="540" y="32" type="curve" smooth="yes"/>
      <point x="540" y="76"/>
      <point x="553" y="113"/>
      <point x="570" y="136" type="curve"/>
      <point x="559" y="143"/>
      <point x="541" y="148"/>
      <point x="522" y="148" type="curve" smooth="yes"/>
      <point x="464" y="148"/>
      <point x="436" y="108"/>
      <point x="425" y="64" type="curve"/>
      <point x="415" y="64" type="line" smooth="yes"/>
      <point x="390" y="64"/>
      <point x="376" y="77"/>
      <point x="376" y="128" type="curve" smooth="yes"/>
      <point x="376" y="649" type="line" smooth="yes"/>
      <point x="376" y="680"/>
      <point x="367" y="709"/>
      <point x="353" y="720" type="curve"/>
      <point x="155" y="707" type="line"/>
      <point x="155" y="652" type="line"/>
      <point x="178" y="652"/>
      <point x="192" y="632"/>
      <point x="192" y="593" type="curve" smooth="yes"/>
      <point x="192" y="71" type="line" smooth="yes"/>
      <point x="192" y="40"/>
      <point x="201" y="17"/>
      <point x="215" y="0" type="curve"/>
      <point x="425" y="0" type="line"/>
      <point x="436" y="-44"/>
      <point x="464" y="-84"/>
    </contour>
    <component base="footmiddle" xOffset="-10" yOffset="488"/>
  </outline>
</glyph>
<glyph name="tee-ethiopic" format="2">
  <advance width="600"/>
  <unicode hex="1274"/>
  <note>
uni1274
</note>
  <anchor x="295" y="720" name="top"/>
  <outline>
    <contour>
      <point x="303" y="0" type="curve" smooth="yes"/>
      <point x="441" y="0" type="line" smooth="yes"/>
      <point x="545" y="0"/>
      <point x="590" y="58"/>
      <point x="590" y="132" type="curve" smooth="yes"/>
      <point x="590" y="202"/>
      <point x="549" y="234"/>
      <point x="456" y="234" type="curve" smooth="yes"/>
      <point x="378" y="234" type="line"/>
      <point x="378" y="649" type="line" smooth="yes"/>
      <point x="378" y="680"/>
      <point x="369" y="709"/>
      <point x="355" y="720" type="curve"/>
      <point x="157" y="707" type="line"/>
      <point x="157" y="652" type="line"/>
      <point x="180" y="652"/>
      <point x="194" y="632"/>
      <point x="194" y="593" type="curve" smooth="yes"/>
      <point x="194" y="115" type="line" smooth="yes"/>
      <point x="194" y="46"/>
      <point x="231" y="0"/>
    </contour>
    <contour>
      <point x="399" y="56" type="curve" smooth="yes"/>
      <point x="383" y="56"/>
      <point x="378" y="71"/>
      <point x="378" y="106" type="curve" smooth="yes"/>
      <point x="378" y="176" type="line"/>
      <point x="391" y="176" type="line" smooth="yes"/>
      <point x="425" y="176"/>
      <point x="432" y="155"/>
      <point x="432" y="123" type="curve" smooth="yes"/>
      <point x="432" y="84"/>
      <point x="418" y="56"/>
    </contour>
    <component base="footmiddle" xOffset="-10" yOffset="488"/>
  </outline>
</glyph>
<glyph name="te-ethiopic" format="2">
  <advance width="597"/>
  <unicode hex="1275"/>
  <note>
uni1275
</note>
  <anchor x="303" y="839" name="top"/>
  <outline>
    <contour>
      <point x="242" y="-7" type="curve"/>
      <point x="442" y="8" type="line"/>
      <point x="442" y="64" type="line"/>
      <point x="417" y="64"/>
      <point x="403" y="77"/>
      <point x="403" y="131" type="curve" smooth="yes"/>
      <point x="403" y="647" type="line" smooth="yes"/>
      <point x="403" y="674"/>
      <point x="400" y="701"/>
      <point x="380" y="714" type="curve"/>
      <point x="141" y="714" type="line"/>
      <point x="142" y="720"/>
      <point x="143" y="726"/>
      <point x="143" y="739" type="curve" smooth="yes"/>
      <point x="143" y="802"/>
      <point x="106" y="839"/>
      <point x="50" y="839" type="curve" smooth="yes"/>
      <point x="33" y="839"/>
      <point x="19" y="835"/>
      <point x="10" y="829" type="curve"/>
      <point x="25" y="794"/>
      <point x="28" y="763"/>
      <point x="28" y="724" type="curve" smooth="yes"/>
      <point x="28" y="698"/>
      <point x="24" y="672"/>
      <point x="17" y="650" type="curve"/>
      <point x="182" y="650" type="line" smooth="yes"/>
      <point x="209" y="650"/>
      <point x="219" y="632"/>
      <point x="219" y="593" type="curve" smooth="yes"/>
      <point x="219" y="71" type="line" smooth="yes"/>
      <point x="219" y="33"/>
      <point x="227" y="10"/>
    </contour>
    <component base="footmiddle" xOffset="16" yOffset="384"/>
  </outline>
</glyph>
<glyph name="twa-ethiopic" format="2">
  <advance width="627"/>
  <unicode hex="1277"/>
  <note>
uni1277
</note>
  <anchor x="313" y="720" name="top"/>
  <outline>
    <contour>
      <point x="232" y="5" type="curve"/>
      <point x="437" y="10" type="line"/>
      <point x="437" y="64" type="line"/>
      <point x="412" y="64"/>
      <point x="398" y="77"/>
      <point x="398" y="128" type="curve" smooth="yes"/>
      <point x="398" y="649" type="line" smooth="yes"/>
      <point x="398" y="680"/>
      <point x="389" y="709"/>
      <point x="375" y="720" type="curve"/>
      <point x="177" y="707" type="line"/>
      <point x="177" y="652" type="line"/>
      <point x="200" y="652"/>
      <point x="214" y="632"/>
      <point x="214" y="593" type="curve" smooth="yes"/>
      <point x="214" y="81" type="line" smooth="yes"/>
      <point x="214" y="43"/>
      <point x="224" y="19"/>
    </contour>
    <component base="footmiddle" xOffset="10" yOffset="437"/>
    <component base="footmiddle" xOffset="26"/>
  </outline>
</glyph>
<glyph name="ca-ethiopic" format="2">
  <advance width="611"/>
  <unicode hex="1278"/>
  <note>
uni1278
</note>
  <anchor x="305" y="845" name="top"/>
  <outline>
    <contour>
      <point x="239" y="-7" type="curve"/>
      <point x="439" y="8" type="line"/>
      <point x="439" y="64" type="line"/>
      <point x="414" y="64"/>
      <point x="400" y="78"/>
      <point x="400" y="134" type="curve" smooth="yes"/>
      <point x="400" y="730" type="line"/>
      <point x="216" y="730" type="line"/>
      <point x="216" y="75" type="line" smooth="yes"/>
      <point x="216" y="35"/>
      <point x="225" y="11"/>
    </contour>
    <component base="bonemiddle" xOffset="31" yOffset="12"/>
    <component base="footmiddle" xOffset="10" yOffset="441"/>
  </outline>
</glyph>
<glyph name="ci-ethiopic" format="2">
  <advance width="634"/>
  <unicode hex="127A"/>
  <note>
uni127A
</note>
  <anchor x="317" y="845" name="top"/>
  <outline>
    <contour>
      <point x="556" y="-84" type="curve" smooth="yes"/>
      <point x="575" y="-84"/>
      <point x="593" y="-80"/>
      <point x="604" y="-72" type="curve"/>
      <point x="586" y="-50"/>
      <point x="574" y="-12"/>
      <point x="574" y="32" type="curve" smooth="yes"/>
      <point x="574" y="76"/>
      <point x="587" y="113"/>
      <point x="604" y="136" type="curve"/>
      <point x="593" y="143"/>
      <point x="575" y="148"/>
      <point x="556" y="148" type="curve" smooth="yes"/>
      <point x="498" y="148"/>
      <point x="470" y="108"/>
      <point x="459" y="64" type="curve"/>
      <point x="449" y="64" type="line" smooth="yes"/>
      <point x="424" y="64"/>
      <point x="410" y="77"/>
      <point x="410" y="128" type="curve" smooth="yes"/>
      <point x="410" y="731" type="line"/>
      <point x="226" y="731" type="line"/>
      <point x="226" y="71" type="line" smooth="yes"/>
      <point x="226" y="40"/>
      <point x="235" y="17"/>
      <point x="249" y="0" type="curve"/>
      <point x="459" y="0" type="line"/>
      <point x="470" y="-44"/>
      <point x="498" y="-84"/>
    </contour>
    <component base="bonemiddle" xOffset="41" yOffset="12"/>
    <component base="footmiddle" xOffset="20" yOffset="441"/>
  </outline>
</glyph>
<glyph name="caa-ethiopic" format="2">
  <advance width="625"/>
  <unicode hex="127B"/>
  <note>
uni127B
</note>
  <anchor x="322" y="845" name="top"/>
  <outline>
    <contour>
      <point x="72" y="-124" type="curve" smooth="yes"/>
      <point x="130" y="-124"/>
      <point x="166" y="-87"/>
      <point x="166" y="-25" type="curve" smooth="yes"/>
      <point x="166" y="-13"/>
      <point x="166" y="-10"/>
      <point x="165" y="0" type="curve"/>
      <point x="173" y="0" type="line" smooth="yes"/>
      <point x="328" y="0"/>
      <point x="413" y="91"/>
      <point x="413" y="236" type="curve" smooth="yes"/>
      <point x="413" y="725" type="line"/>
      <point x="250" y="725" type="line"/>
      <point x="250" y="237" type="line" smooth="yes"/>
      <point x="250" y="116"/>
      <point x="209" y="64"/>
      <point x="134" y="64" type="curve" smooth="yes"/>
      <point x="39" y="64" type="line"/>
      <point x="46" y="41"/>
      <point x="51" y="15"/>
      <point x="51" y="-9" type="curve" smooth="yes"/>
      <point x="51" y="-48"/>
      <point x="47" y="-80"/>
      <point x="30" y="-115" type="curve"/>
      <point x="40" y="-120"/>
      <point x="55" y="-124"/>
    </contour>
    <component base="footmiddle" xOffset="34" yOffset="465"/>
    <component base="bonemiddle" xOffset="54" yOffset="12"/>
  </outline>
</glyph>
<glyph name="cee-ethiopic" format="2">
  <advance width="657"/>
  <unicode hex="127C"/>
  <note>
uni127C
</note>
  <anchor x="328" y="845" name="top"/>
  <outline>
    <contour>
      <point x="331" y="0" type="curve" smooth="yes"/>
      <point x="477" y="0" type="line" smooth="yes"/>
      <point x="581" y="0"/>
      <point x="627" y="58"/>
      <point x="627" y="132" type="curve" smooth="yes"/>
      <point x="627" y="202"/>
      <point x="585" y="234"/>
      <point x="492" y="234" type="curve" smooth="yes"/>
      <point x="406" y="234" type="line"/>
      <point x="406" y="750" type="line"/>
      <point x="222" y="750" type="line"/>
      <point x="222" y="115" type="line" smooth="yes"/>
      <point x="222" y="46"/>
      <point x="259" y="0"/>
    </contour>
    <contour>
      <point x="435" y="56" type="curve" smooth="yes"/>
      <point x="415" y="56"/>
      <point x="406" y="71"/>
      <point x="406" y="106" type="curve" smooth="yes"/>
      <point x="406" y="176" type="line"/>
      <point x="427" y="176" type="line" smooth="yes"/>
      <point x="461" y="176"/>
      <point x="468" y="155"/>
      <point x="468" y="123" type="curve" smooth="yes"/>
      <point x="468" y="84"/>
      <point x="457" y="56"/>
    </contour>
    <component base="bonemiddle" xOffset="38" yOffset="12"/>
    <component base="footmiddle" xOffset="20" yOffset="468"/>
  </outline>
</glyph>
<glyph name="ce-ethiopic" format="2">
  <advance width="649"/>
  <unicode hex="127D"/>
  <note>
uni127D
</note>
  <anchor x="314" y="845" name="top"/>
  <outline>
    <contour>
      <point x="257" y="-7" type="curve"/>
      <point x="460" y="8" type="line"/>
      <point x="460" y="64" type="line"/>
      <point x="438" y="64"/>
      <point x="423" y="78"/>
      <point x="423" y="121" type="curve" smooth="yes"/>
      <point x="423" y="183"/>
      <point x="472" y="423"/>
      <point x="472" y="484" type="curve" smooth="yes"/>
      <point x="472" y="540"/>
      <point x="441" y="574"/>
      <point x="377" y="574" type="curve" smooth="yes"/>
      <point x="347" y="574" type="line"/>
      <point x="347" y="760" type="line"/>
      <point x="163" y="760" type="line"/>
      <point x="163" y="507" type="line"/>
      <point x="220" y="507" type="line" smooth="yes"/>
      <point x="262" y="507"/>
      <point x="287" y="492"/>
      <point x="287" y="446" type="curve" smooth="yes"/>
      <point x="287" y="391"/>
      <point x="235" y="153"/>
      <point x="235" y="77" type="curve" smooth="yes"/>
      <point x="235" y="33"/>
      <point x="243" y="10"/>
    </contour>
    <component base="footmiddle" xOffset="58" yOffset="309"/>
    <component base="bone.alt" yOffset="14"/>
  </outline>
</glyph>
<glyph name="co-ethiopic" format="2">
  <advance width="706"/>
  <unicode hex="127E"/>
  <note>
uni127E
</note>
  <anchor x="353" y="910" name="top"/>
  <outline>
    <contour>
      <point x="196" y="714" type="line"/>
      <point x="539" y="714" type="line"/>
      <point x="539" y="778" type="line"/>
      <point x="196" y="778" type="line"/>
    </contour>
    <contour>
      <point x="647" y="910" type="curve" smooth="yes"/>
      <point x="583" y="910"/>
      <point x="543" y="873"/>
      <point x="543" y="807" type="curve" smooth="yes"/>
      <point x="543" y="791"/>
      <point x="544" y="785"/>
      <point x="545" y="778" type="curve"/>
      <point x="429" y="778" type="line"/>
      <point x="429" y="714" type="line"/>
      <point x="684" y="714" type="line"/>
      <point x="677" y="739"/>
      <point x="672" y="766"/>
      <point x="672" y="792" type="curve" smooth="yes"/>
      <point x="672" y="832"/>
      <point x="678" y="863"/>
      <point x="696" y="901" type="curve"/>
      <point x="684" y="906"/>
      <point x="667" y="910"/>
    </contour>
    <component base="to-ethiopic" xOffset="90"/>
    <component base="leftdoubleflag" yOffset="714"/>
  </outline>
</glyph>
<glyph name="cwa-ethiopic" format="2">
  <advance width="634"/>
  <unicode hex="127F"/>
  <note>
uni127F
</note>
  <anchor x="317" y="845" name="top"/>
  <outline>
    <contour>
      <point x="242" y="6" type="curve"/>
      <point x="442" y="9" type="line"/>
      <point x="442" y="64" type="line"/>
      <point x="417" y="64"/>
      <point x="403" y="78"/>
      <point x="403" y="134" type="curve" smooth="yes"/>
      <point x="403" y="735" type="line"/>
      <point x="219" y="735" type="line"/>
      <point x="219" y="75" type="line" smooth="yes"/>
      <point x="219" y="46"/>
      <point x="228" y="24"/>
    </contour>
    <component base="bonemiddle" xOffset="35" yOffset="12"/>
    <component base="footmiddle" xOffset="15" yOffset="448"/>
    <component base="footmiddle" xOffset="28"/>
  </outline>
</glyph>
<glyph name="xaa-ethiopic" format="2">
  <advance width="580"/>
  <unicode hex="1283"/>
  <note>
uni1283
</note>
  <anchor x="269" y="720" name="top"/>
  <outline>
    <contour>
      <point x="156" y="-124" type="curve" smooth="yes"/>
      <point x="214" y="-124"/>
      <point x="250" y="-87"/>
      <point x="250" y="-25" type="curve" smooth="yes"/>
      <point x="250" y="-13"/>
      <point x="249" y="-7"/>
      <point x="249" y="-1" type="curve"/>
      <point x="257" y="-1" type="line" smooth="yes"/>
      <point x="422" y="-1"/>
      <point x="539" y="108"/>
      <point x="539" y="282" type="curve" smooth="yes"/>
      <point x="539" y="458" type="line" smooth="yes"/>
      <point x="539" y="518"/>
      <point x="509" y="552"/>
      <point x="444" y="552" type="curve" smooth="yes"/>
      <point x="414" y="552" type="line"/>
      <point x="414" y="647" type="line" smooth="yes"/>
      <point x="414" y="680"/>
      <point x="404" y="709"/>
      <point x="391" y="720" type="curve"/>
      <point x="193" y="707" type="line"/>
      <point x="193" y="652" type="line"/>
      <point x="216" y="652"/>
      <point x="230" y="633"/>
      <point x="230" y="593" type="curve" smooth="yes"/>
      <point x="230" y="473" type="line"/>
      <point x="287" y="473" type="line" smooth="yes"/>
      <point x="329" y="473"/>
      <point x="354" y="459"/>
      <point x="354" y="412" type="curve" smooth="yes"/>
      <point x="354" y="284" type="line" smooth="yes"/>
      <point x="354" y="122"/>
      <point x="303" y="63"/>
      <point x="218" y="63" type="curve" smooth="yes"/>
      <point x="123" y="63" type="line"/>
      <point x="130" y="40"/>
      <point x="135" y="15"/>
      <point x="135" y="-9" type="curve" smooth="yes"/>
      <point x="135" y="-48"/>
      <point x="131" y="-80"/>
      <point x="114" y="-115" type="curve"/>
      <point x="124" y="-120"/>
      <point x="139" y="-124"/>
    </contour>
    <component base="leftsingleflag" xOffset="-10" yOffset="188"/>
  </outline>
</glyph>
<glyph name="xe-ethiopic" format="2">
  <advance width="575"/>
  <unicode hex="1285"/>
  <note>
uni1285
</note>
  <anchor x="257" y="720" name="top"/>
  <outline>
    <contour>
      <point x="10" y="283" type="curve"/>
      <point x="200" y="297" type="line"/>
      <point x="200" y="351" type="line"/>
      <point x="173" y="351"/>
      <point x="158" y="372"/>
      <point x="158" y="410" type="curve" smooth="yes"/>
      <point x="158" y="491"/>
      <point x="187" y="545"/>
      <point x="230" y="552" type="curve"/>
      <point x="222" y="611" type="line"/>
      <point x="87" y="593"/>
      <point x="-6" y="507"/>
      <point x="-6" y="372" type="curve" smooth="yes"/>
      <point x="-6" y="330"/>
      <point x="1" y="306"/>
    </contour>
    <component base="na-ethiopic" xOffset="168"/>
  </outline>
</glyph>
<glyph name="xwaa-ethiopic" format="2">
  <advance width="663"/>
  <unicode hex="128B"/>
  <note>
uni128B
</note>
  <anchor x="326" y="720" name="top"/>
  <outline>
    <contour>
      <point x="334" y="147" type="curve"/>
      <point x="533" y="156" type="line"/>
      <point x="533" y="210" type="line"/>
      <point x="510" y="210"/>
      <point x="495" y="224"/>
      <point x="495" y="267" type="curve" smooth="yes"/>
      <point x="495" y="303"/>
      <point x="529" y="422"/>
      <point x="529" y="458" type="curve" smooth="yes"/>
      <point x="529" y="518"/>
      <point x="498" y="552"/>
      <point x="434" y="552" type="curve" smooth="yes"/>
      <point x="404" y="552" type="line"/>
      <point x="404" y="647" type="line" smooth="yes"/>
      <point x="404" y="680"/>
      <point x="394" y="709"/>
      <point x="381" y="720" type="curve"/>
      <point x="183" y="707" type="line"/>
      <point x="183" y="652" type="line"/>
      <point x="206" y="652"/>
      <point x="220" y="633"/>
      <point x="220" y="593" type="curve" smooth="yes"/>
      <point x="220" y="482" type="line"/>
      <point x="277" y="482" type="line" smooth="yes"/>
      <point x="319" y="482"/>
      <point x="344" y="468"/>
      <point x="344" y="421" type="curve" smooth="yes"/>
      <point x="344" y="389"/>
      <point x="311" y="265"/>
      <point x="311" y="225" type="curve" smooth="yes"/>
      <point x="311" y="186"/>
      <point x="320" y="164"/>
    </contour>
    <contour>
      <point x="267" y="146" type="line"/>
      <point x="616" y="146" type="line"/>
      <point x="616" y="210" type="line"/>
      <point x="267" y="210" type="line"/>
    </contour>
    <contour>
      <point x="518" y="-7" type="curve"/>
      <point x="653" y="8" type="line"/>
      <point x="653" y="64" type="line"/>
      <point x="630" y="64"/>
      <point x="616" y="80"/>
      <point x="616" y="117" type="curve" smooth="yes"/>
      <point x="616" y="210" type="line"/>
      <point x="495" y="210" type="line"/>
      <point x="495" y="66" type="line" smooth="yes"/>
      <point x="495" y="34"/>
      <point x="504" y="5"/>
    </contour>
    <component base="leftsingleflag" xOffset="56" yOffset="-209"/>
    <component base="leftsingleflag" xOffset="-10" yOffset="179"/>
  </outline>
</glyph>
<glyph name="xwee-ethiopic" format="2">
	<advance width="699"/>
	<unicode hex="128C"/>
	<anchor x="344" y="720" name="top"/>
	<note>
		uni128C
	</note>
	<outline>
		<contour>
			<point x="251" y="0" type="line"/>
			<point x="454" y="0" type="line"/>
			<point x="401" y="64" type="line"/>
			<point x="251" y="64" type="line"/>
		</contour>
		<component base="xee-ethiopic"/>
		<component base="leftsingleflag" xOffset="71" yOffset="-355"/>
	</outline>
</glyph>
<glyph name="na-ethiopic" format="2">
  <advance width="407"/>
  <unicode hex="1290"/>
  <note>
uni1290
</note>
  <anchor x="179" y="720" name="top"/>
  <outline>
    <contour>
      <point x="137" y="-7" type="curve"/>
      <point x="340" y="8" type="line"/>
      <point x="340" y="64" type="line"/>
      <point x="318" y="64"/>
      <point x="303" y="78"/>
      <point x="303" y="121" type="curve" smooth="yes"/>
      <point x="303" y="183"/>
      <point x="352" y="392"/>
      <point x="352" y="453" type="curve" smooth="yes"/>
      <point x="352" y="509"/>
      <point x="321" y="543"/>
      <point x="257" y="543" type="curve" smooth="yes"/>
      <point x="227" y="543" type="line"/>
      <point x="227" y="647" type="line" smooth="yes"/>
      <point x="227" y="680"/>
      <point x="217" y="709"/>
      <point x="204" y="720" type="curve"/>
      <point x="6" y="707" type="line"/>
      <point x="6" y="652" type="line"/>
      <point x="29" y="652"/>
      <point x="43" y="633"/>
      <point x="43" y="593" type="curve" smooth="yes"/>
      <point x="43" y="476" type="line"/>
      <point x="100" y="476" type="line" smooth="yes"/>
      <point x="142" y="476"/>
      <point x="167" y="461"/>
      <point x="167" y="415" type="curve" smooth="yes"/>
      <point x="167" y="360"/>
      <point x="115" y="153"/>
      <point x="115" y="77" type="curve" smooth="yes"/>
      <point x="115" y="33"/>
      <point x="123" y="10"/>
    </contour>
  </outline>
</glyph>
<glyph name="ni-ethiopic" format="2">
  <advance width="522"/>
  <unicode hex="1292"/>
  <note>
uni1292
</note>
  <anchor x="259" y="720" name="top"/>
  <outline>
    <contour>
      <point x="142" y="0" type="curve"/>
      <point x="340" y="0" type="line"/>
      <point x="340" y="64" type="line"/>
      <point x="318" y="64"/>
      <point x="303" y="78"/>
      <point x="303" y="118" type="curve" smooth="yes"/>
      <point x="303" y="180"/>
      <point x="352" y="392"/>
      <point x="352" y="453" type="curve" smooth="yes"/>
      <point x="352" y="509"/>
      <point x="321" y="543"/>
      <point x="257" y="543" type="curve" smooth="yes"/>
      <point x="227" y="543" type="line"/>
      <point x="227" y="647" type="line" smooth="yes"/>
      <point x="227" y="680"/>
      <point x="217" y="709"/>
      <point x="204" y="720" type="curve"/>
      <point x="6" y="707" type="line"/>
      <point x="6" y="652" type="line"/>
      <point x="29" y="652"/>
      <point x="43" y="633"/>
      <point x="43" y="593" type="curve" smooth="yes"/>
      <point x="43" y="476" type="line"/>
      <point x="100" y="476" type="line" smooth="yes"/>
      <point x="142" y="476"/>
      <point x="167" y="461"/>
      <point x="167" y="415" type="curve" smooth="yes"/>
      <point x="167" y="360"/>
      <point x="119" y="145"/>
      <point x="119" y="77" type="curve" smooth="yes"/>
      <point x="119" y="42"/>
      <point x="127" y="16"/>
    </contour>
    <component base="rightdoubleflag" xOffset="287"/>
  </outline>
</glyph>
<glyph name="naa-ethiopic" format="2">
  <advance width="490"/>
  <unicode hex="1293"/>
  <note>
uni1293
</note>
  <anchor x="245" y="714" name="top"/>
  <outline>
    <contour>
      <point x="262" y="-7" type="curve"/>
      <point x="480" y="8" type="line"/>
      <point x="480" y="64" type="line"/>
      <point x="445" y="64"/>
      <point x="431" y="77"/>
      <point x="431" y="136" type="curve" smooth="yes"/>
      <point x="431" y="203" type="line" smooth="yes"/>
      <point x="431" y="305"/>
      <point x="366" y="359"/>
      <point x="260" y="359" type="curve" smooth="yes"/>
      <point x="204" y="359" type="line"/>
      <point x="204" y="551"/>
      <point x="241" y="647"/>
      <point x="304" y="647" type="curve" smooth="yes"/>
      <point x="310" y="647" type="line"/>
      <point x="309" y="641"/>
      <point x="308" y="635"/>
      <point x="308" y="621" type="curve" smooth="yes"/>
      <point x="308" y="554"/>
      <point x="348" y="518"/>
      <point x="409" y="518" type="curve" smooth="yes"/>
      <point x="428" y="518"/>
      <point x="446" y="523"/>
      <point x="457" y="527" type="curve"/>
      <point x="438" y="564"/>
      <point x="433" y="597"/>
      <point x="433" y="638" type="curve" smooth="yes"/>
      <point x="433" y="663"/>
      <point x="438" y="690"/>
      <point x="445" y="714" type="curve"/>
      <point x="293" y="714" type="line" smooth="yes"/>
      <point x="101" y="714"/>
      <point x="10" y="584"/>
      <point x="10" y="319" type="curve" smooth="yes"/>
      <point x="10" y="286" type="line"/>
      <point x="156" y="286" type="line" smooth="yes"/>
      <point x="234" y="286"/>
      <point x="248" y="253"/>
      <point x="248" y="177" type="curve" smooth="yes"/>
      <point x="248" y="88" type="line" smooth="yes"/>
      <point x="248" y="44"/>
      <point x="253" y="14"/>
    </contour>
  </outline>
</glyph>
<glyph name="nee-ethiopic" format="2">
  <advance width="511"/>
  <unicode hex="1294"/>
  <note>
uni1294
</note>
  <anchor x="253" y="720" name="top"/>
  <outline>
    <contour>
      <point x="220" y="0" type="curve"/>
      <point x="339" y="0" type="line" smooth="yes"/>
      <point x="448" y="0"/>
      <point x="501" y="66"/>
      <point x="501" y="150" type="curve" smooth="yes"/>
      <point x="501" y="233"/>
      <point x="450" y="269"/>
      <point x="353" y="269" type="curve" smooth="yes"/>
      <point x="301" y="269" type="line"/>
      <point x="317" y="307" type="line" smooth="yes"/>
      <point x="336" y="353"/>
      <point x="357" y="409"/>
      <point x="357" y="460" type="curve" smooth="yes"/>
      <point x="357" y="520"/>
      <point x="312" y="552"/>
      <point x="253" y="552" type="curve" smooth="yes"/>
      <point x="227" y="552" type="line"/>
      <point x="227" y="647" type="line" smooth="yes"/>
      <point x="227" y="680"/>
      <point x="217" y="709"/>
      <point x="204" y="720" type="curve"/>
      <point x="6" y="707" type="line"/>
      <point x="6" y="652" type="line"/>
      <point x="29" y="652"/>
      <point x="43" y="633"/>
      <point x="43" y="593" type="curve" smooth="yes"/>
      <point x="43" y="473" type="line"/>
      <point x="105" y="473" type="line" smooth="yes"/>
      <point x="147" y="473"/>
      <point x="170" y="458"/>
      <point x="170" y="423" type="curve" smooth="yes"/>
      <point x="170" y="391"/>
      <point x="155" y="356"/>
      <point x="136" y="311" type="curve" smooth="yes"/>
      <point x="109" y="246" type="line" smooth="yes"/>
      <point x="93" y="208"/>
      <point x="85" y="173"/>
      <point x="85" y="134" type="curve" smooth="yes"/>
      <point x="85" y="45"/>
      <point x="143" y="8"/>
    </contour>
    <contour>
      <point x="292" y="62" type="curve" smooth="yes"/>
      <point x="268" y="62"/>
      <point x="254" y="74"/>
      <point x="254" y="111" type="curve" smooth="yes"/>
      <point x="254" y="149"/>
      <point x="264" y="178"/>
      <point x="276" y="207" type="curve"/>
      <point x="284" y="207" type="line" smooth="yes"/>
      <point x="322" y="207"/>
      <point x="341" y="183"/>
      <point x="341" y="144" type="curve" smooth="yes"/>
      <point x="341" y="94"/>
      <point x="322" y="62"/>
    </contour>
  </outline>
</glyph>
<glyph name="ne-ethiopic" format="2">
  <advance width="570"/>
  <unicode hex="1295"/>
  <note>
uni1295
</note>
  <anchor x="262" y="714" name="top"/>
  <outline>
    <contour>
      <point x="305" y="-7" type="curve"/>
      <point x="504" y="8" type="line"/>
      <point x="504" y="64" type="line"/>
      <point x="481" y="64"/>
      <point x="466" y="78"/>
      <point x="466" y="121" type="curve" smooth="yes"/>
      <point x="466" y="183"/>
      <point x="515" y="388"/>
      <point x="515" y="453" type="curve" smooth="yes"/>
      <point x="515" y="509"/>
      <point x="485" y="543"/>
      <point x="420" y="543" type="curve" smooth="yes"/>
      <point x="390" y="543" type="line"/>
      <point x="390" y="588" type="line" smooth="yes"/>
      <point x="390" y="665"/>
      <point x="348" y="714"/>
      <point x="240" y="714" type="curve" smooth="yes"/>
      <point x="17" y="714" type="line"/>
      <point x="24" y="692"/>
      <point x="28" y="665"/>
      <point x="28" y="640" type="curve" smooth="yes"/>
      <point x="28" y="600"/>
      <point x="25" y="570"/>
      <point x="10" y="535" type="curve"/>
      <point x="19" y="529"/>
      <point x="33" y="525"/>
      <point x="50" y="525" type="curve" smooth="yes"/>
      <point x="106" y="525"/>
      <point x="143" y="562"/>
      <point x="143" y="624" type="curve" smooth="yes"/>
      <point x="143" y="638"/>
      <point x="142" y="644"/>
      <point x="141" y="650" type="curve"/>
      <point x="156" y="650" type="line" smooth="yes"/>
      <point x="189" y="650"/>
      <point x="206" y="630"/>
      <point x="206" y="571" type="curve" smooth="yes"/>
      <point x="206" y="476" type="line"/>
      <point x="263" y="476" type="line" smooth="yes"/>
      <point x="306" y="476"/>
      <point x="330" y="461"/>
      <point x="330" y="412" type="curve" smooth="yes"/>
      <point x="330" y="357"/>
      <point x="282" y="138"/>
      <point x="282" y="71" type="curve" smooth="yes"/>
      <point x="282" y="33"/>
      <point x="291" y="10"/>
    </contour>
  </outline>
</glyph>
<glyph name="no-ethiopic" format="2">
  <advance width="612"/>
  <unicode hex="1296"/>
  <note>
uni1296
</note>
  <anchor x="306" y="714" name="top"/>
  <outline>
    <contour>
      <point x="285" y="-6" type="curve"/>
      <point x="500" y="8" type="line"/>
      <point x="500" y="64" type="line"/>
      <point x="467" y="64"/>
      <point x="453" y="78"/>
      <point x="453" y="137" type="curve" smooth="yes"/>
      <point x="453" y="218" type="line" smooth="yes"/>
      <point x="453" y="314"/>
      <point x="391" y="360"/>
      <point x="298" y="360" type="curve" smooth="yes"/>
      <point x="200" y="360" type="line"/>
      <point x="200" y="381" type="line" smooth="yes"/>
      <point x="200" y="579"/>
      <point x="241" y="652"/>
      <point x="304" y="652" type="curve" smooth="yes"/>
      <point x="310" y="652" type="line"/>
      <point x="466" y="714" type="line"/>
      <point x="296" y="714" type="line" smooth="yes"/>
      <point x="128" y="714"/>
      <point x="10" y="594"/>
      <point x="10" y="319" type="curve" smooth="yes"/>
      <point x="10" y="286" type="line"/>
      <point x="204" y="286" type="line" smooth="yes"/>
      <point x="255" y="286"/>
      <point x="269" y="259"/>
      <point x="269" y="190" type="curve" smooth="yes"/>
      <point x="269" y="92" type="line" smooth="yes"/>
      <point x="269" y="46"/>
      <point x="276" y="15"/>
    </contour>
    <component base="ballsmall" xOffset="258" yOffset="298"/>
  </outline>
</glyph>
<glyph name="nwa-ethiopic" format="2">
  <advance width="637"/>
  <unicode hex="1297"/>
  <note>
uni1297
</note>
  <anchor x="341" y="714" name="top"/>
  <outline>
    <contour>
      <point x="265" y="28" type="line"/>
      <point x="448" y="28" type="line"/>
      <point x="448" y="203" type="line" smooth="yes"/>
      <point x="448" y="305"/>
      <point x="383" y="359"/>
      <point x="277" y="359" type="curve" smooth="yes"/>
      <point x="250" y="359" type="line"/>
      <point x="250" y="551"/>
      <point x="287" y="647"/>
      <point x="350" y="647" type="curve" smooth="yes"/>
      <point x="356" y="647" type="line"/>
      <point x="355" y="641"/>
      <point x="354" y="635"/>
      <point x="354" y="621" type="curve" smooth="yes"/>
      <point x="354" y="554"/>
      <point x="394" y="518"/>
      <point x="455" y="518" type="curve" smooth="yes"/>
      <point x="474" y="518"/>
      <point x="492" y="523"/>
      <point x="503" y="527" type="curve"/>
      <point x="484" y="564"/>
      <point x="479" y="597"/>
      <point x="479" y="638" type="curve" smooth="yes"/>
      <point x="479" y="663"/>
      <point x="484" y="690"/>
      <point x="491" y="714" type="curve"/>
      <point x="339" y="714" type="line" smooth="yes"/>
      <point x="141" y="714"/>
      <point x="56" y="584"/>
      <point x="56" y="319" type="curve" smooth="yes"/>
      <point x="56" y="286" type="line"/>
      <point x="173" y="286" type="line" smooth="yes"/>
      <point x="251" y="286"/>
      <point x="265" y="253"/>
      <point x="265" y="177" type="curve" smooth="yes"/>
    </contour>
    <component base="footmiddle" xOffset="46"/>
  </outline>
</glyph>
<glyph name="nya-ethiopic" format="2">
  <advance width="571"/>
  <unicode hex="1298"/>
  <note>
uni1298
</note>
  <anchor x="275" y="799" name="top"/>
  <outline>
    <contour>
      <point x="276" y="-7" type="curve"/>
      <point x="479" y="8" type="line"/>
      <point x="479" y="64" type="line"/>
      <point x="457" y="64"/>
      <point x="442" y="78"/>
      <point x="442" y="121" type="curve" smooth="yes"/>
      <point x="442" y="183"/>
      <point x="491" y="363"/>
      <point x="491" y="424" type="curve" smooth="yes"/>
      <point x="491" y="480"/>
      <point x="460" y="514"/>
      <point x="396" y="514" type="curve" smooth="yes"/>
      <point x="366" y="514" type="line"/>
      <point x="366" y="669" type="line"/>
      <point x="182" y="669" type="line"/>
      <point x="182" y="447" type="line"/>
      <point x="239" y="447" type="line" smooth="yes"/>
      <point x="281" y="447"/>
      <point x="306" y="432"/>
      <point x="306" y="386" type="curve" smooth="yes"/>
      <point x="306" y="331"/>
      <point x="254" y="153"/>
      <point x="254" y="77" type="curve" smooth="yes"/>
      <point x="254" y="33"/>
      <point x="262" y="10"/>
    </contour>
    <component base="bonemiddle" yOffset="-34"/>
  </outline>
</glyph>
<glyph name="nyi-ethiopic" format="2">
  <advance width="659"/>
  <unicode hex="129A"/>
  <note>
uni129A
</note>
  <anchor x="329" y="799" name="top"/>
  <outline>
    <contour>
      <point x="279" y="0" type="curve"/>
      <point x="482" y="0" type="line"/>
      <point x="482" y="64" type="line"/>
      <point x="460" y="64"/>
      <point x="445" y="78"/>
      <point x="445" y="121" type="curve" smooth="yes"/>
      <point x="445" y="183"/>
      <point x="494" y="363"/>
      <point x="494" y="424" type="curve" smooth="yes"/>
      <point x="494" y="480"/>
      <point x="463" y="514"/>
      <point x="399" y="514" type="curve" smooth="yes"/>
      <point x="369" y="514" type="line"/>
      <point x="369" y="679" type="line"/>
      <point x="185" y="679" type="line"/>
      <point x="185" y="447" type="line"/>
      <point x="242" y="447" type="line" smooth="yes"/>
      <point x="284" y="447"/>
      <point x="309" y="432"/>
      <point x="309" y="386" type="curve" smooth="yes"/>
      <point x="309" y="331"/>
      <point x="257" y="160"/>
      <point x="257" y="84" type="curve" smooth="yes"/>
      <point x="257" y="40"/>
      <point x="265" y="17"/>
    </contour>
    <component base="rightdoubleflag" xOffset="424"/>
    <component base="bonemiddle" yOffset="-34"/>
  </outline>
</glyph>
<glyph name="nyaa-ethiopic" format="2">
  <advance width="551"/>
  <unicode hex="129B"/>
  <note>
uni129B
</note>
  <anchor x="275" y="799" name="top"/>
  <outline>
    <contour>
      <point x="289" y="-7" type="curve"/>
      <point x="511" y="8" type="line"/>
      <point x="511" y="64" type="line"/>
      <point x="475" y="64"/>
      <point x="461" y="77"/>
      <point x="461" y="119" type="curve" smooth="yes"/>
      <point x="461" y="146" type="line" smooth="yes"/>
      <point x="461" y="218"/>
      <point x="397" y="271"/>
      <point x="306" y="271" type="curve" smooth="yes"/>
      <point x="211" y="271" type="line"/>
      <point x="211" y="367"/>
      <point x="248" y="466"/>
      <point x="332" y="466" type="curve" smooth="yes"/>
      <point x="345" y="466" type="line"/>
      <point x="344" y="460"/>
      <point x="343" y="454"/>
      <point x="343" y="440" type="curve" smooth="yes"/>
      <point x="343" y="374"/>
      <point x="381" y="337"/>
      <point x="445" y="337" type="curve" smooth="yes"/>
      <point x="465" y="337"/>
      <point x="480" y="341"/>
      <point x="492" y="346" type="curve"/>
      <point x="475" y="381"/>
      <point x="468" y="412"/>
      <point x="468" y="452" type="curve" smooth="yes"/>
      <point x="468" y="478"/>
      <point x="473" y="508"/>
      <point x="480" y="533" type="curve"/>
      <point x="322" y="533" type="line" smooth="yes"/>
      <point x="117" y="533"/>
      <point x="17" y="400"/>
      <point x="17" y="230" type="curve" smooth="yes"/>
      <point x="17" y="198" type="line"/>
      <point x="211" y="198" type="line" smooth="yes"/>
      <point x="264" y="198"/>
      <point x="278" y="166"/>
      <point x="278" y="119" type="curve" smooth="yes"/>
      <point x="278" y="88" type="line" smooth="yes"/>
      <point x="278" y="42"/>
      <point x="281" y="13"/>
    </contour>
    <contour>
      <point x="200" y="495" type="line"/>
      <point x="353" y="497" type="line"/>
      <point x="353" y="670" type="line"/>
      <point x="200" y="670" type="line"/>
    </contour>
    <component base="bonemiddle" yOffset="-34"/>
  </outline>
</glyph>
<glyph name="nyee-ethiopic" format="2">
  <advance width="647"/>
  <unicode hex="129C"/>
  <note>
uni129C
</note>
  <anchor x="323" y="799" name="top"/>
  <outline>
    <contour>
      <point x="360" y="0" type="curve"/>
      <point x="479" y="0" type="line" smooth="yes"/>
      <point x="588" y="0"/>
      <point x="637" y="66"/>
      <point x="637" y="150" type="curve" smooth="yes"/>
      <point x="637" y="233"/>
      <point x="602" y="269"/>
      <point x="505" y="269" type="curve" smooth="yes"/>
      <point x="450" y="269" type="line"/>
      <point x="460" y="307" type="line" smooth="yes"/>
      <point x="472" y="352"/>
      <point x="494" y="395"/>
      <point x="494" y="446" type="curve" smooth="yes"/>
      <point x="494" y="506"/>
      <point x="462" y="544"/>
      <point x="399" y="544" type="curve" smooth="yes"/>
      <point x="367" y="544" type="line"/>
      <point x="367" y="683" type="line"/>
      <point x="183" y="683" type="line"/>
      <point x="183" y="466" type="line"/>
      <point x="245" y="466" type="line" smooth="yes"/>
      <point x="287" y="466"/>
      <point x="307" y="449"/>
      <point x="307" y="411" type="curve" smooth="yes"/>
      <point x="307" y="378"/>
      <point x="292" y="345"/>
      <point x="276" y="307" type="curve" smooth="yes"/>
      <point x="251" y="247" type="line" smooth="yes"/>
      <point x="235" y="209"/>
      <point x="233" y="169"/>
      <point x="233" y="140" type="curve" smooth="yes"/>
      <point x="233" y="51"/>
      <point x="284" y="8"/>
    </contour>
    <contour>
      <point x="432" y="62" type="curve" smooth="yes"/>
      <point x="408" y="62"/>
      <point x="398" y="84"/>
      <point x="398" y="116" type="curve" smooth="yes"/>
      <point x="398" y="142"/>
      <point x="407" y="178"/>
      <point x="419" y="207" type="curve"/>
      <point x="425" y="207" type="line" smooth="yes"/>
      <point x="468" y="207"/>
      <point x="477" y="183"/>
      <point x="477" y="144" type="curve" smooth="yes"/>
      <point x="477" y="94"/>
      <point x="456" y="62"/>
    </contour>
    <component base="bonemiddle" yOffset="-34"/>
  </outline>
</glyph>
<glyph name="nye-ethiopic" format="2">
  <advance width="577"/>
  <unicode hex="129D"/>
  <note>
uni129D
</note>
  <anchor x="266" y="839" name="top"/>
  <outline>
    <contour>
      <point x="324" y="-7" type="curve"/>
      <point x="522" y="8" type="line"/>
      <point x="522" y="64" type="line"/>
      <point x="500" y="64"/>
      <point x="485" y="78"/>
      <point x="485" y="113" type="curve" smooth="yes"/>
      <point x="485" y="155"/>
      <point x="515" y="243"/>
      <point x="515" y="300" type="curve" smooth="yes"/>
      <point x="515" y="354"/>
      <point x="485" y="382"/>
      <point x="420" y="382" type="curve" smooth="yes"/>
      <point x="390" y="382" type="line"/>
      <point x="390" y="409" type="line" smooth="yes"/>
      <point x="390" y="486"/>
      <point x="348" y="535"/>
      <point x="240" y="535" type="curve" smooth="yes"/>
      <point x="17" y="535" type="line"/>
      <point x="24" y="512"/>
      <point x="28" y="486"/>
      <point x="28" y="460" type="curve" smooth="yes"/>
      <point x="28" y="421"/>
      <point x="25" y="390"/>
      <point x="10" y="356" type="curve"/>
      <point x="19" y="350"/>
      <point x="33" y="346"/>
      <point x="50" y="346" type="curve" smooth="yes"/>
      <point x="106" y="346"/>
      <point x="143" y="382"/>
      <point x="143" y="445" type="curve" smooth="yes"/>
      <point x="143" y="458"/>
      <point x="142" y="464"/>
      <point x="141" y="471" type="curve"/>
      <point x="156" y="471" type="line" smooth="yes"/>
      <point x="189" y="471"/>
      <point x="206" y="451"/>
      <point x="206" y="391" type="curve" smooth="yes"/>
      <point x="206" y="314" type="line"/>
      <point x="263" y="314" type="line" smooth="yes"/>
      <point x="306" y="314"/>
      <point x="330" y="300"/>
      <point x="330" y="256" type="curve" smooth="yes"/>
      <point x="330" y="212"/>
      <point x="301" y="121"/>
      <point x="301" y="68" type="curve" smooth="yes"/>
      <point x="301" y="29"/>
      <point x="310" y="10"/>
    </contour>
    <contour>
      <point x="160" y="484" type="line"/>
      <point x="324" y="484" type="line"/>
      <point x="324" y="671" type="line"/>
      <point x="160" y="671" type="line"/>
    </contour>
    <contour>
      <point x="426" y="839" type="curve" smooth="yes"/>
      <point x="370" y="839"/>
      <point x="333" y="802"/>
      <point x="333" y="739" type="curve" smooth="yes"/>
      <point x="333" y="726"/>
      <point x="334" y="720"/>
      <point x="335" y="714" type="curve"/>
      <point x="149" y="714" type="line"/>
      <point x="150" y="720"/>
      <point x="151" y="726"/>
      <point x="151" y="739" type="curve" smooth="yes"/>
      <point x="151" y="802"/>
      <point x="114" y="839"/>
      <point x="59" y="839" type="curve" smooth="yes"/>
      <point x="41" y="839"/>
      <point x="28" y="835"/>
      <point x="18" y="829" type="curve"/>
      <point x="33" y="794"/>
      <point x="36" y="763"/>
      <point x="36" y="724" type="curve" smooth="yes"/>
      <point x="36" y="698"/>
      <point x="32" y="672"/>
      <point x="26" y="650" type="curve"/>
      <point x="459" y="650" type="line"/>
      <point x="452" y="672"/>
      <point x="448" y="698"/>
      <point x="448" y="724" type="curve" smooth="yes"/>
      <point x="448" y="763"/>
      <point x="451" y="794"/>
      <point x="466" y="829" type="curve"/>
      <point x="457" y="835"/>
      <point x="443" y="839"/>
    </contour>
  </outline>
</glyph>
<glyph name="nywa-ethiopic" format="2">
  <advance width="618"/>
  <unicode hex="129F"/>
  <note>
uni129F
</note>
  <anchor x="319" y="845" name="top"/>
  <outline>
    <contour>
      <point x="309" y="5" type="curve"/>
      <point x="531" y="7" type="line"/>
      <point x="531" y="64" type="line"/>
      <point x="495" y="64"/>
      <point x="481" y="78"/>
      <point x="481" y="119" type="curve" smooth="yes"/>
      <point x="481" y="146" type="line" smooth="yes"/>
      <point x="481" y="218"/>
      <point x="443" y="271"/>
      <point x="326" y="271" type="curve" smooth="yes"/>
      <point x="231" y="271" type="line"/>
      <point x="231" y="384"/>
      <point x="268" y="485"/>
      <point x="352" y="485" type="curve" smooth="yes"/>
      <point x="359" y="485" type="line"/>
      <point x="358" y="479"/>
      <point x="357" y="473"/>
      <point x="357" y="461" type="curve" smooth="yes"/>
      <point x="357" y="399"/>
      <point x="393" y="362"/>
      <point x="451" y="362" type="curve" smooth="yes"/>
      <point x="468" y="362"/>
      <point x="483" y="367"/>
      <point x="493" y="372" type="curve"/>
      <point x="477" y="407"/>
      <point x="472" y="438"/>
      <point x="472" y="477" type="curve" smooth="yes"/>
      <point x="472" y="502"/>
      <point x="477" y="527"/>
      <point x="484" y="549" type="curve"/>
      <point x="342" y="549" type="line" smooth="yes"/>
      <point x="137" y="549"/>
      <point x="37" y="417"/>
      <point x="37" y="230" type="curve" smooth="yes"/>
      <point x="37" y="198" type="line"/>
      <point x="212" y="198" type="line" smooth="yes"/>
      <point x="284" y="198"/>
      <point x="298" y="166"/>
      <point x="298" y="119" type="curve" smooth="yes"/>
      <point x="298" y="96" type="line" smooth="yes"/>
      <point x="298" y="49"/>
      <point x="301" y="25"/>
    </contour>
    <contour>
      <point x="220" y="512" type="line"/>
      <point x="373" y="512" type="line"/>
      <point x="373" y="727" type="line"/>
      <point x="220" y="727" type="line"/>
    </contour>
    <component base="bonemiddle" xOffset="20" yOffset="12"/>
    <component base="footmiddle" xOffset="27"/>
  </outline>
</glyph>
<glyph name="aGlottal-ethiopic" format="2">
  <advance width="579"/>
  <unicode hex="12A0"/>
  <note>
uni12A0
</note>
  <anchor x="296" y="720" name="top"/>
  <outline>
    <contour>
      <point x="61" y="-7" type="curve"/>
      <point x="263" y="8" type="line"/>
      <point x="263" y="64" type="line"/>
      <point x="242" y="64"/>
      <point x="230" y="76"/>
      <point x="230" y="106" type="curve" smooth="yes"/>
      <point x="230" y="124"/>
      <point x="236" y="146"/>
      <point x="247" y="184" type="curve" smooth="yes"/>
      <point x="289" y="328" type="line" smooth="yes"/>
      <point x="310" y="399"/>
      <point x="323" y="439"/>
      <point x="323" y="469" type="curve" smooth="yes"/>
      <point x="323" y="515"/>
      <point x="295" y="544"/>
      <point x="258" y="544" type="curve" smooth="yes"/>
      <point x="238" y="544" type="line"/>
      <point x="238" y="637" type="line" smooth="yes"/>
      <point x="238" y="675"/>
      <point x="233" y="700"/>
      <point x="220" y="720" type="curve"/>
      <point x="19" y="707" type="line"/>
      <point x="19" y="652" type="line"/>
      <point x="40" y="652"/>
      <point x="53" y="632"/>
      <point x="53" y="590" type="curve" smooth="yes"/>
      <point x="53" y="476" type="line"/>
      <point x="91" y="476" type="line" smooth="yes"/>
      <point x="123" y="476"/>
      <point x="136" y="463"/>
      <point x="136" y="436" type="curve" smooth="yes"/>
      <point x="136" y="407"/>
      <point x="126" y="380"/>
      <point x="115" y="344" type="curve" smooth="yes"/>
      <point x="70" y="200" type="line" smooth="yes"/>
      <point x="56" y="156"/>
      <point x="46" y="114"/>
      <point x="46" y="73" type="curve" smooth="yes"/>
      <point x="46" y="40"/>
      <point x="53" y="15"/>
    </contour>
    <contour>
      <point x="380" y="-7" type="curve"/>
      <point x="574" y="8" type="line"/>
      <point x="574" y="64" type="line"/>
      <point x="545" y="64"/>
      <point x="536" y="83"/>
      <point x="531" y="132" type="curve" smooth="yes"/>
      <point x="512" y="323"/>
      <point x="466" y="380"/>
      <point x="298" y="390" type="curve"/>
      <point x="272" y="317" type="line"/>
      <point x="321" y="304"/>
      <point x="337" y="268"/>
      <point x="352" y="93" type="curve" smooth="yes"/>
      <point x="356" y="45"/>
      <point x="365" y="16"/>
    </contour>
  </outline>
</glyph>
<glyph name="iGlottal-ethiopic" format="2">
  <advance width="758"/>
  <unicode hex="12A2"/>
  <note>
uni12A2
</note>
  <anchor x="383" y="720" name="top"/>
  <outline>
    <contour>
      <point x="61" y="-7" type="curve"/>
      <point x="263" y="8" type="line"/>
      <point x="263" y="64" type="line"/>
      <point x="242" y="64"/>
      <point x="230" y="76"/>
      <point x="230" y="106" type="curve" smooth="yes"/>
      <point x="230" y="124"/>
      <point x="236" y="146"/>
      <point x="247" y="184" type="curve" smooth="yes"/>
      <point x="289" y="328" type="line" smooth="yes"/>
      <point x="310" y="399"/>
      <point x="323" y="439"/>
      <point x="323" y="469" type="curve" smooth="yes"/>
      <point x="323" y="515"/>
      <point x="295" y="544"/>
      <point x="258" y="544" type="curve" smooth="yes"/>
      <point x="238" y="544" type="line"/>
      <point x="238" y="637" type="line" smooth="yes"/>
      <point x="238" y="675"/>
      <point x="233" y="700"/>
      <point x="220" y="720" type="curve"/>
      <point x="19" y="707" type="line"/>
      <point x="19" y="652" type="line"/>
      <point x="40" y="652"/>
      <point x="53" y="632"/>
      <point x="53" y="590" type="curve" smooth="yes"/>
      <point x="53" y="476" type="line"/>
      <point x="91" y="476" type="line" smooth="yes"/>
      <point x="123" y="476"/>
      <point x="136" y="463"/>
      <point x="136" y="436" type="curve" smooth="yes"/>
      <point x="136" y="407"/>
      <point x="126" y="380"/>
      <point x="115" y="344" type="curve" smooth="yes"/>
      <point x="70" y="200" type="line" smooth="yes"/>
      <point x="56" y="156"/>
      <point x="46" y="114"/>
      <point x="46" y="73" type="curve" smooth="yes"/>
      <point x="46" y="40"/>
      <point x="53" y="15"/>
    </contour>
    <contour>
      <point x="380" y="0" type="curve"/>
      <point x="574" y="0" type="line"/>
      <point x="574" y="64" type="line"/>
      <point x="545" y="64"/>
      <point x="536" y="83"/>
      <point x="531" y="132" type="curve" smooth="yes"/>
      <point x="512" y="323"/>
      <point x="466" y="380"/>
      <point x="298" y="390" type="curve"/>
      <point x="272" y="317" type="line"/>
      <point x="321" y="304"/>
      <point x="337" y="268"/>
      <point x="352" y="93" type="curve" smooth="yes"/>
      <point x="356" y="45"/>
      <point x="365" y="23"/>
    </contour>
    <component base="rightdoubleflag" xOffset="523"/>
  </outline>
</glyph>
<glyph name="aaGlottal-ethiopic" format="2">
  <advance width="579"/>
  <unicode hex="12A3"/>
  <note>
uni12A3
</note>
  <anchor x="296" y="720" name="top"/>
  <outline>
    <contour>
      <point x="79" y="135" type="curve"/>
      <point x="282" y="149" type="line"/>
      <point x="282" y="203" type="line"/>
      <point x="261" y="203"/>
      <point x="256" y="216"/>
      <point x="256" y="238" type="curve" smooth="yes"/>
      <point x="256" y="261"/>
      <point x="273" y="294"/>
      <point x="289" y="339" type="curve" smooth="yes"/>
      <point x="309" y="396"/>
      <point x="323" y="433"/>
      <point x="323" y="469" type="curve" smooth="yes"/>
      <point x="323" y="515"/>
      <point x="295" y="544"/>
      <point x="258" y="544" type="curve" smooth="yes"/>
      <point x="238" y="544" type="line"/>
      <point x="238" y="637" type="line" smooth="yes"/>
      <point x="238" y="675"/>
      <point x="233" y="700"/>
      <point x="220" y="720" type="curve"/>
      <point x="19" y="707" type="line"/>
      <point x="19" y="652" type="line"/>
      <point x="40" y="652"/>
      <point x="53" y="632"/>
      <point x="53" y="590" type="curve" smooth="yes"/>
      <point x="53" y="476" type="line"/>
      <point x="95" y="476" type="line" smooth="yes"/>
      <point x="126" y="476"/>
      <point x="139" y="463"/>
      <point x="139" y="436" type="curve" smooth="yes"/>
      <point x="139" y="408"/>
      <point x="126" y="379"/>
      <point x="111" y="339" type="curve" smooth="yes"/>
      <point x="95" y="297"/>
      <point x="70" y="245"/>
      <point x="70" y="201" type="curve" smooth="yes"/>
      <point x="70" y="174"/>
      <point x="73" y="156"/>
    </contour>
    <contour>
      <point x="380" y="-7" type="curve"/>
      <point x="574" y="8" type="line"/>
      <point x="574" y="64" type="line"/>
      <point x="545" y="64"/>
      <point x="536" y="83"/>
      <point x="531" y="132" type="curve" smooth="yes"/>
      <point x="512" y="323"/>
      <point x="466" y="380"/>
      <point x="298" y="390" type="curve"/>
      <point x="272" y="317" type="line"/>
      <point x="321" y="304"/>
      <point x="337" y="268"/>
      <point x="352" y="93" type="curve" smooth="yes"/>
      <point x="356" y="45"/>
      <point x="365" y="16"/>
    </contour>
  </outline>
</glyph>
<glyph name="eeGlottal-ethiopic" format="2">
  <advance width="727"/>
  <unicode hex="12A4"/>
  <note>
uni12A4
</note>
  <anchor x="360" y="720" name="top"/>
  <outline>
    <contour>
      <point x="55" y="-7" type="curve"/>
      <point x="248" y="8" type="line"/>
      <point x="248" y="64" type="line"/>
      <point x="227" y="64"/>
      <point x="215" y="76"/>
      <point x="215" y="106" type="curve" smooth="yes"/>
      <point x="215" y="124"/>
      <point x="223" y="149"/>
      <point x="232" y="184" type="curve" smooth="yes"/>
      <point x="266" y="314" type="line"/>
      <point x="297" y="297"/>
      <point x="311" y="253"/>
      <point x="323" y="109" type="curve" smooth="yes"/>
      <point x="328" y="50"/>
      <point x="343" y="20"/>
      <point x="368" y="0" type="curve"/>
      <point x="559" y="0" type="line" smooth="yes"/>
      <point x="668" y="0"/>
      <point x="717" y="66"/>
      <point x="717" y="150" type="curve" smooth="yes"/>
      <point x="717" y="233"/>
      <point x="672" y="269"/>
      <point x="575" y="269" type="curve" smooth="yes"/>
      <point x="466" y="269" type="line"/>
      <point x="437" y="343"/>
      <point x="384" y="374"/>
      <point x="294" y="389" type="curve"/>
      <point x="303" y="425"/>
      <point x="308" y="449"/>
      <point x="308" y="469" type="curve" smooth="yes"/>
      <point x="308" y="515"/>
      <point x="280" y="544"/>
      <point x="243" y="544" type="curve" smooth="yes"/>
      <point x="223" y="544" type="line"/>
      <point x="223" y="637" type="line" smooth="yes"/>
      <point x="223" y="675"/>
      <point x="218" y="700"/>
      <point x="205" y="720" type="curve"/>
      <point x="4" y="707" type="line"/>
      <point x="4" y="652" type="line"/>
      <point x="25" y="652"/>
      <point x="38" y="632"/>
      <point x="38" y="590" type="curve" smooth="yes"/>
      <point x="38" y="476" type="line"/>
      <point x="86" y="476" type="line" smooth="yes"/>
      <point x="117" y="476"/>
      <point x="130" y="463"/>
      <point x="130" y="436" type="curve" smooth="yes"/>
      <point x="130" y="407"/>
      <point x="119" y="380"/>
      <point x="108" y="344" type="curve" smooth="yes"/>
      <point x="63" y="200" type="line" smooth="yes"/>
      <point x="49" y="155"/>
      <point x="40" y="114"/>
      <point x="40" y="73" type="curve" smooth="yes"/>
      <point x="40" y="40"/>
      <point x="47" y="15"/>
    </contour>
    <contour>
      <point x="518" y="62" type="curve" smooth="yes"/>
      <point x="503" y="62"/>
      <point x="492" y="79"/>
      <point x="488" y="126" type="curve" smooth="yes"/>
      <point x="485" y="158"/>
      <point x="482" y="184"/>
      <point x="477" y="207" type="curve"/>
      <point x="505" y="207" type="line" smooth="yes"/>
      <point x="548" y="207"/>
      <point x="556" y="182"/>
      <point x="556" y="143" type="curve" smooth="yes"/>
      <point x="556" y="97"/>
      <point x="543" y="62"/>
    </contour>
  </outline>
</glyph>
<glyph name="eGlottal-ethiopic" format="2">
  <advance width="554"/>
  <unicode hex="12A5"/>
  <note>
uni12A5
</note>
  <anchor x="246" y="720" name="top"/>
  <outline>
    <contour>
      <point x="45" y="-7" type="curve"/>
      <point x="240" y="8" type="line"/>
      <point x="240" y="64" type="line"/>
      <point x="219" y="64"/>
      <point x="204" y="78"/>
      <point x="204" y="111" type="curve" smooth="yes"/>
      <point x="204" y="129"/>
      <point x="206" y="146"/>
      <point x="219" y="184" type="curve" smooth="yes"/>
      <point x="262" y="314" type="line"/>
      <point x="302" y="300"/>
      <point x="314" y="263"/>
      <point x="330" y="94" type="curve" smooth="yes"/>
      <point x="335" y="46"/>
      <point x="343" y="16"/>
      <point x="358" y="-7" type="curve"/>
      <point x="549" y="8" type="line"/>
      <point x="549" y="64" type="line"/>
      <point x="520" y="64"/>
      <point x="511" y="83"/>
      <point x="506" y="129" type="curve" smooth="yes"/>
      <point x="487" y="315"/>
      <point x="439" y="375"/>
      <point x="291" y="387" type="curve"/>
      <point x="321" y="473" type="line"/>
      <point x="321" y="508" type="line"/>
      <point x="251" y="508" type="line"/>
      <point x="287" y="578" type="line"/>
      <point x="287" y="612" type="line"/>
      <point x="217" y="612" type="line"/>
      <point x="228" y="640" type="line" smooth="yes"/>
      <point x="243" y="678"/>
      <point x="238" y="704"/>
      <point x="227" y="720" type="curve"/>
      <point x="32" y="707" type="line"/>
      <point x="32" y="652" type="line"/>
      <point x="63" y="652"/>
      <point x="78" y="634"/>
      <point x="63" y="593" type="curve" smooth="yes"/>
      <point x="49" y="556" type="line"/>
      <point x="131" y="556" type="line"/>
      <point x="82" y="451" type="line"/>
      <point x="143" y="451" type="line"/>
      <point x="50" y="202" type="line" smooth="yes"/>
      <point x="34" y="160"/>
      <point x="26" y="118"/>
      <point x="26" y="76" type="curve" smooth="yes"/>
      <point x="26" y="46"/>
      <point x="34" y="15"/>
    </contour>
  </outline>
</glyph>
<glyph name="oGlottal-ethiopic" format="2">
  <advance width="568"/>
  <unicode hex="12A6"/>
  <note>
uni12A6
</note>
  <anchor x="286" y="720" name="top"/>
  <outline>
    <contour>
      <point x="59" y="-7" type="curve"/>
      <point x="263" y="7" type="line"/>
      <point x="263" y="61" type="line"/>
      <point x="242" y="61"/>
      <point x="230" y="73"/>
      <point x="230" y="103" type="curve" smooth="yes"/>
      <point x="230" y="121"/>
      <point x="236" y="146"/>
      <point x="247" y="184" type="curve" smooth="yes"/>
      <point x="291" y="329" type="line" smooth="yes"/>
      <point x="312" y="400"/>
      <point x="323" y="439"/>
      <point x="323" y="469" type="curve" smooth="yes"/>
      <point x="323" y="515"/>
      <point x="295" y="544"/>
      <point x="258" y="544" type="curve" smooth="yes"/>
      <point x="238" y="544" type="line"/>
      <point x="238" y="637" type="line" smooth="yes"/>
      <point x="238" y="675"/>
      <point x="233" y="700"/>
      <point x="220" y="720" type="curve"/>
      <point x="19" y="707" type="line"/>
      <point x="19" y="652" type="line"/>
      <point x="40" y="652"/>
      <point x="53" y="632"/>
      <point x="53" y="590" type="curve" smooth="yes"/>
      <point x="53" y="476" type="line"/>
      <point x="93" y="476" type="line" smooth="yes"/>
      <point x="124" y="476"/>
      <point x="137" y="463"/>
      <point x="137" y="436" type="curve" smooth="yes"/>
      <point x="137" y="407"/>
      <point x="127" y="380"/>
      <point x="116" y="344" type="curve" smooth="yes"/>
      <point x="71" y="200" type="line" smooth="yes"/>
      <point x="57" y="156"/>
      <point x="44" y="112"/>
      <point x="44" y="71" type="curve" smooth="yes"/>
      <point x="44" y="38"/>
      <point x="51" y="15"/>
    </contour>
    <contour>
      <point x="365" y="135" type="curve"/>
      <point x="553" y="149" type="line"/>
      <point x="553" y="203" type="line"/>
      <point x="531" y="203"/>
      <point x="526" y="222"/>
      <point x="523" y="242" type="curve" smooth="yes"/>
      <point x="509" y="338"/>
      <point x="434" y="381"/>
      <point x="298" y="390" type="curve"/>
      <point x="272" y="317" type="line"/>
      <point x="318" y="308"/>
      <point x="339" y="273"/>
      <point x="347" y="201" type="curve" smooth="yes"/>
      <point x="350" y="174"/>
      <point x="353" y="152"/>
    </contour>
  </outline>
</glyph>
<glyph name="waGlottal-ethiopic" format="2">
  <advance width="685"/>
  <unicode hex="12A7"/>
  <note>
uni12A7
</note>
  <anchor x="345" y="800" name="top"/>
  <outline>
    <contour>
      <point x="168" y="-7" type="curve"/>
      <point x="368" y="7" type="line"/>
      <point x="368" y="64" type="line"/>
      <point x="347" y="64"/>
      <point x="335" y="76"/>
      <point x="335" y="103" type="curve" smooth="yes"/>
      <point x="335" y="121"/>
      <point x="341" y="146"/>
      <point x="352" y="184" type="curve" smooth="yes"/>
      <point x="394" y="329" type="line" smooth="yes"/>
      <point x="415" y="400"/>
      <point x="428" y="439"/>
      <point x="428" y="469" type="curve" smooth="yes"/>
      <point x="428" y="515"/>
      <point x="401" y="544"/>
      <point x="363" y="544" type="curve" smooth="yes"/>
      <point x="333" y="544" type="line"/>
      <point x="333" y="686" type="line"/>
      <point x="169" y="686" type="line"/>
      <point x="169" y="476" type="line"/>
      <point x="199" y="476" type="line" smooth="yes"/>
      <point x="230" y="476"/>
      <point x="243" y="463"/>
      <point x="243" y="436" type="curve" smooth="yes"/>
      <point x="243" y="407"/>
      <point x="233" y="380"/>
      <point x="222" y="344" type="curve" smooth="yes"/>
      <point x="177" y="200" type="line" smooth="yes"/>
      <point x="163" y="156"/>
      <point x="153" y="114"/>
      <point x="153" y="73" type="curve" smooth="yes"/>
      <point x="153" y="40"/>
      <point x="160" y="15"/>
    </contour>
    <contour>
      <point x="486" y="-7" type="curve"/>
      <point x="680" y="8" type="line"/>
      <point x="680" y="64" type="line"/>
      <point x="651" y="64"/>
      <point x="642" y="83"/>
      <point x="637" y="132" type="curve" smooth="yes"/>
      <point x="618" y="323"/>
      <point x="572" y="380"/>
      <point x="404" y="390" type="curve"/>
      <point x="378" y="317" type="line"/>
      <point x="427" y="304"/>
      <point x="443" y="268"/>
      <point x="458" y="93" type="curve" smooth="yes"/>
      <point x="462" y="45"/>
      <point x="471" y="16"/>
    </contour>
    <component base="bone" xOffset="1" yOffset="-31"/>
  </outline>
</glyph>
<glyph name="ki-ethiopic" format="2">
  <advance width="827"/>
  <unicode hex="12AA"/>
  <note>
uni12AA
</note>
  <anchor x="418" y="770" name="top"/>
  <outline>
    <contour>
      <point x="769" y="-84" type="curve" smooth="yes"/>
      <point x="788" y="-84"/>
      <point x="806" y="-80"/>
      <point x="817" y="-72" type="curve"/>
      <point x="799" y="-50"/>
      <point x="787" y="-12"/>
      <point x="787" y="32" type="curve" smooth="yes"/>
      <point x="787" y="76"/>
      <point x="800" y="113"/>
      <point x="817" y="136" type="curve"/>
      <point x="806" y="143"/>
      <point x="788" y="148"/>
      <point x="769" y="148" type="curve" smooth="yes"/>
      <point x="711" y="148"/>
      <point x="683" y="108"/>
      <point x="672" y="64" type="curve"/>
      <point x="652" y="64" type="line" smooth="yes"/>
      <point x="620" y="64"/>
      <point x="605" y="78"/>
      <point x="605" y="137" type="curve" smooth="yes"/>
      <point x="605" y="210"/>
      <point x="610" y="307"/>
      <point x="610" y="377" type="curve" smooth="yes"/>
      <point x="610" y="527"/>
      <point x="566" y="612"/>
      <point x="410" y="612" type="curve" smooth="yes"/>
      <point x="228" y="612"/>
      <point x="144" y="481"/>
      <point x="144" y="300" type="curve" smooth="yes"/>
      <point x="144" y="91" type="line" smooth="yes"/>
      <point x="144" y="49"/>
      <point x="146" y="13"/>
      <point x="154" y="-7" type="curve"/>
      <point x="375" y="8" type="line"/>
      <point x="375" y="64" type="line"/>
      <point x="342" y="64"/>
      <point x="328" y="78"/>
      <point x="328" y="137" type="curve" smooth="yes"/>
      <point x="328" y="312" type="line" smooth="yes"/>
      <point x="328" y="496"/>
      <point x="351" y="545"/>
      <point x="389" y="545" type="curve" smooth="yes"/>
      <point x="414" y="545"/>
      <point x="425" y="526"/>
      <point x="425" y="448" type="curve" smooth="yes"/>
      <point x="425" y="345"/>
      <point x="421" y="187"/>
      <point x="421" y="98" type="curve" smooth="yes"/>
      <point x="421" y="50"/>
      <point x="424" y="20"/>
      <point x="432" y="0" type="curve"/>
      <point x="672" y="0" type="line"/>
      <point x="683" y="-44"/>
      <point x="711" y="-84"/>
    </contour>
    <contour>
      <point x="126" y="485" type="curve" smooth="yes"/>
      <point x="179" y="485"/>
      <point x="227" y="494"/>
      <point x="259" y="503" type="curve"/>
      <point x="259" y="554" type="line"/>
      <point x="232" y="554"/>
      <point x="222" y="569"/>
      <point x="222" y="619" type="curve" smooth="yes"/>
      <point x="222" y="698" type="line" smooth="yes"/>
      <point x="222" y="732"/>
      <point x="213" y="759"/>
      <point x="197" y="770" type="curve"/>
      <point x="20" y="757" type="line"/>
      <point x="20" y="702" type="line"/>
      <point x="43" y="702"/>
      <point x="57" y="683"/>
      <point x="57" y="644" type="curve" smooth="yes"/>
      <point x="57" y="562" type="line" smooth="yes"/>
      <point x="57" y="507"/>
      <point x="82" y="485"/>
    </contour>
  </outline>
</glyph>
